<svg xmlns="http://www.w3.org/2000/svg" xmlns:xlink="http://www.w3.org/1999/xlink" width="1760" height="1360"><g transform="translate(0 0)"><path d="M0 0h1760v1360H0z" fill="#fff"/><path d="M208 201v1020" fill="none"/><path d="M208 201v10m0 10v20m0 10v20m0 10v20m0 10v20m0 10v20m0 10v20m0 10v20m0 10v20m0 10v20m0 10v20m0 10v20m0 10v20m0 10v20m0 10v20m0 10v20m0 10v20m0 10v20m0 10v20m0 10v20m0 10v20m0 10v20m0 10v20m0 10v20m0 10v20m0 10v20m0 10v20m0 10v20m0 10v20m0 10v20m0 10v20m0 10v20m0 10v20m0 10v20m0 10v10" stroke="#999" stroke-width="2" fill="none"/><path d="M209 201h-2v-1h2z" fill="#999"/><path d="M208 1221v3" stroke="#999" stroke-width="2" fill="none"/><path d="M668 200v1021" fill="none"/><path d="M668 200v10m0 10.02v20.02m0 10v20.03m0 10v20.03m0 10v20.03m0 10v20.03m0 10v20.03m0 10v20.02m0 10v20.03m0 10v20.02m0 10v20.03m0 10v20.03m0 10v20.03m0 10v20.03m0 10v20.02m0 10v20.03m0 10v20.03m0 10v20.03m0 10.02v20.02m0 10v20.03m0 10v20.03m0 10v20.03m0 10v20.03m0 10v20.03m0 10v20.02m0 10v20.03m0 10v20.02m0 10v20.03m0 10v20.03m0 10v20.03m0 10v20.03m0 10v20.02m0 10v20.03m0 10V1201m0 10V1221M668 1221v3" stroke="#999" stroke-width="2" fill="none"/><path d="M1568 85c0-2.76 2.24-5 5-5h150c2.76 0 5 2.24 5 5v110c0 2.76-2.24 5-5 5h-150c-2.76 0-5-2.24-5-5z" stroke="#666" stroke-width="2" fill="#ff8f80"/><use xlink:href="#a" transform="matrix(1,0,0,1,1568,80) translate(34.96296296296296 62.97222222222222)"/><path d="M1648 200v1021" fill="none"/><path d="M1648 200v10m0 10.02v20.02m0 10v20.03m0 10v20.03m0 10v20.03m0 10v20.03m0 10v20.03m0 10v20.02m0 10v20.03m0 10v20.02m0 10v20.03m0 10v20.03m0 10v20.03m0 10v20.03m0 10v20.02m0 10v20.03m0 10v20.03m0 10v20.03m0 10.02v20.02m0 10v20.03m0 10v20.03m0 10v20.03m0 10v20.03m0 10v20.03m0 10v20.02m0 10v20.03m0 10v20.02m0 10v20.03m0 10v20.03m0 10v20.03m0 10v20.03m0 10v20.02m0 10v20.03m0 10V1201m0 10V1221M1648 1221v3" stroke="#999" stroke-width="2" fill="none"/><path d="M1628 405c0-2.76 2.24-5 5-5h30c2.76 0 5 2.24 5 5v330c0 2.76-2.24 5-5 5h-30c-2.76 0-5-2.24-5-5z" stroke="#666" stroke-width="2" fill="#f2f2f2"/><path d="M1058 85c0-2.76 2.24-5 5-5h210c2.76 0 5 2.24 5 5v110c0 2.76-2.24 5-5 5h-210c-2.76 0-5-2.24-5-5z" stroke="#666" stroke-width="2" fill="#a3d977"/><use xlink:href="#b" transform="matrix(1,0,0,1,1058,80) translate(31.901234567901227 51.72222222222222)"/><use xlink:href="#c" transform="matrix(1,0,0,1,1058,80) translate(64.19753086419752 73.05555555555556)"/><path d="M588 85c0-2.76 2.24-5 5-5h150c2.76 0 5 2.24 5 5v110c0 2.76-2.24 5-5 5H593c-2.76 0-5-2.24-5-5z" stroke="#666" stroke-width="2" fill="#ffdf71"/><use xlink:href="#d" transform="matrix(1,0,0,1,588,80) translate(59.33333333333333 51.72222222222222)"/><use xlink:href="#e" transform="matrix(1,0,0,1,588,80) translate(18.444444444444443 73.05555555555556)"/><path d="M1168 340v881" fill="none"/><path d="M1168 340v10.13m0 10.12v20.26m0 10.13v20.26m0 10.1v20.26m0 10.13v20.24m0 10.13v20.25m0 10.13v20.25m0 10.13v20.25m0 10.13v20.26m0 10.13v20.24m0 10.13v20.25m0 10.13v20.25m0 10.13v20.25m0 10.12v20.26m0 10.12v20.26m0 10.12v20.26m0 10.12v20.26m0 10.12v20.25m0 10.13v20.25m0 10.13v20.25m0 10.13v20.25m0 10.14v20.25m0 10.12v20.25m0 10.13v20.25m0 10.13v20.25m0 10.13v20.25m0 10.14V1140m0 10.1v20.27m0 10.12v20.25m0 10.12V1221M1168 1221v3" stroke="#999" stroke-width="2" fill="none"/><path d="M1168 200v80" fill="none"/><path d="M1168 200v8.9m0 8.88v17.78m0 8.88v17.78m0 8.9V280" stroke="#999" stroke-width="2" fill="none"/><path d="M1148 265c0-2.76 2.24-5 5-5h30c2.76 0 5 2.24 5 5v90c0 2.76-2.24 5-5 5h-30c-2.76 0-5-2.24-5-5z" stroke="#666" stroke-width="2" fill="#f2f2f2"/><path d="M128 85c0-2.76 2.24-5 5-5h150c2.76 0 5 2.24 5 5v110c0 2.76-2.24 5-5 5H133c-2.76 0-5-2.24-5-5z" stroke="#666" stroke-width="2" fill="#83bbe5"/><use xlink:href="#f" transform="matrix(1,0,0,1,128,80) translate(48.96296296296296 62.97222222222222)"/><path d="M188 265c0-2.76 2.24-5 5-5h30c2.76 0 5 2.24 5 5v90c0 2.76-2.24 5-5 5h-30c-2.76 0-5-2.24-5-5z" stroke="#666" stroke-width="2" fill="#f2f2f2"/><path d="M229 282.67h918" stroke="#999" stroke-width="2" fill="none"/><path d="M229 283.67h-1v-2h1zM1147 282.67l-14.27 4.63v-9.27z" fill="#999"/><path d="M1148 281.94v1.45l-16.27 5.28v-12.03zm-14.27 4l10.03-3.27-10.03-3.26z" fill="#999"/><use xlink:href="#g" transform="matrix(1,0,0,1,617.175,257.066666666667) translate(0 14.4)"/><use xlink:href="#h" transform="matrix(1,0,0,1,617.175,257.066666666667) translate(48.95 14.4)"/><use xlink:href="#i" transform="matrix(1,0,0,1,617.175,257.066666666667) translate(77.85000000000001 14.4)"/><path d="M1147 338.7H229" stroke="#999" stroke-width="2" fill="none"/><path d="M1148 339.7h-1v-2h1zM243.27 343.34L229 338.7l14.27-4.63z" fill="#999"/><path d="M244.27 344.72l-16.27-5.3V338l16.27-5.3zm-12.03-6l10.03 3.24v-6.5z" fill="#999"/><use xlink:href="#j" transform="matrix(1,0,0,1,619.075,313.1054788441582) translate(0 14.4)"/><use xlink:href="#k" transform="matrix(1,0,0,1,619.075,313.1054788441582) translate(43.900000000000006 14.4)"/><use xlink:href="#l" transform="matrix(1,0,0,1,619.075,313.1054788441582) translate(109.85000000000001 14.4)"/><path d="M228 419.84h1400" stroke="#999" stroke-width="2" fill="none"/><path d="M1628 419.84l-14.27 4.64v-9.28z" fill="#999"/><path d="M1628 418.8v2.1l-15.27 4.95v-12.02zm-13.27 4.3l10.03-3.26-10.03-3.26z" fill="#999"/><use xlink:href="#m" transform="matrix(1,0,0,1,708.875,394.24025134294897) translate(0 14.4)"/><use xlink:href="#n" transform="matrix(1,0,0,1,708.875,394.24025134294897) translate(67.95 14.4)"/><use xlink:href="#o" transform="matrix(1,0,0,1,708.875,394.24025134294897) translate(118.85000000000001 14.4)"/><use xlink:href="#p" transform="matrix(1,0,0,1,708.875,394.24025134294897) translate(162.75 14.4)"/><use xlink:href="#q" transform="matrix(1,0,0,1,708.875,394.24025134294897) translate(273.65 14.4)"/><use xlink:href="#r" transform="matrix(1,0,0,1,708.875,394.24025134294897) translate(349.45 14.4)"/><path d="M1628 474.67h-439" stroke="#999" stroke-width="2" fill="none"/><path d="M1203.27 479.3l-14.27-4.63 14.27-4.64z" fill="#999"/><path d="M1204.27 480.68l-16.27-5.3v-1.44l16.27-5.3zm-12.03-6l10.03 3.25v-6.52z" fill="#999"/><use xlink:href="#j" transform="matrix(1,0,0,1,1333.6,449.0666666666667) translate(0 14.4)"/><use xlink:href="#s" transform="matrix(1,0,0,1,1333.6,449.0666666666667) translate(43.900000000000006 14.4)"/><path d="M1148 465c0-2.76 2.24-5 5-5h30c2.76 0 5 2.24 5 5v230c0 2.76-2.24 5-5 5h-30c-2.76 0-5-2.24-5-5z" stroke="#666" stroke-width="2" fill="#f2f2f2"/><path d="M1189 533.33h439" stroke="#999" stroke-width="2" fill="none"/><path d="M1189 534.33h-1v-2h1zM1628 533.33l-14.27 4.64v-9.27z" fill="#999"/><path d="M1628 532.28v2.1l-15.27 4.97v-12.03zm-13.27 4.3l10.03-3.25-10.03-3.26z" fill="#999"/><use xlink:href="#t" transform="matrix(1,0,0,1,1376.6,507.7333333333334) translate(0 14.4)"/><path d="M1628 564h-439" stroke="#999" stroke-width="2" fill="none"/><path d="M1628 564l-14.27 4.64v-9.28z" fill="#999"/><path d="M1628 562.95v2.1l-15.27 4.96v-12zm-13.27 4.3l10.03-3.25-10.03-3.26zM1189 565h-1v-2h1z" fill="#999"/><use xlink:href="#j" transform="matrix(1,0,0,1,1345.125,538.4) translate(0 14.4)"/><use xlink:href="#u" transform="matrix(1,0,0,1,1345.125,538.4) translate(43.900000000000006 14.4)"/><path d="M1628 723.33H228" stroke="#999" stroke-width="2" fill="none"/><path d="M242.27 727.97L228 723.33l14.27-4.63z" fill="#999"/><path d="M243.27 729.35L228 724.38v-2.1l15.27-4.96zm-12.03-6.02l10.03 3.26v-6.53z" fill="#999"/><use xlink:href="#v" transform="matrix(1,0,0,1,802.25,697.733333333333) translate(0 14.4)"/><use xlink:href="#w" transform="matrix(1,0,0,1,802.25,697.733333333333) translate(43.900000000000006 14.4)"/><use xlink:href="#x" transform="matrix(1,0,0,1,802.25,697.733333333333) translate(136.75 14.4)"/><use xlink:href="#y" transform="matrix(1,0,0,1,802.25,697.733333333333) translate(210.6 14.4)"/><path d="M188 405c0-2.76 2.24-5 5-5h30c2.76 0 5 2.24 5 5v350c0 2.76-2.24 5-5 5h-30c-2.76 0-5-2.24-5-5zM188 825c0-2.76 2.24-5 5-5h30c2.76 0 5 2.24 5 5v310c0 2.76-2.24 5-5 5h-30c-2.76 0-5-2.24-5-5zM648 845c0-2.76 2.24-5 5-5h30c2.76 0 5 2.24 5 5v270c0 2.76-2.24 5-5 5h-30c-2.76 0-5-2.24-5-5z" stroke="#666" stroke-width="2" fill="#f2f2f2"/><path d="M229 877.33h418" stroke="#999" stroke-width="2" fill="none"/><path d="M229 878.33h-1v-2h1zM647 877.33l-14.27 4.64v-9.27z" fill="#999"/><path d="M648 876.6v1.46l-16.27 5.3V871.3zm-14.27 4l10.03-3.27-10.03-3.26z" fill="#999"/><use xlink:href="#z" transform="matrix(1,0,0,1,302.75,830.1333333333334) translate(0 14.4)"/><use xlink:href="#A" transform="matrix(1,0,0,1,302.75,830.1333333333334) translate(149.75 14.4)"/><use xlink:href="#B" transform="matrix(1,0,0,1,302.75,830.1333333333334) translate(0 36)"/><use xlink:href="#r" transform="matrix(1,0,0,1,302.75,830.1333333333334) translate(181.7 36)"/><path d="M1148 865c0-2.76 2.24-5 5-5h30c2.76 0 5 2.24 5 5v230c0 2.76-2.24 5-5 5h-30c-2.76 0-5-2.24-5-5z" stroke="#666" stroke-width="2" fill="#f2f2f2"/><path d="M689 896h458" stroke="#999" stroke-width="2" fill="none"/><path d="M689 897h-1v-2h1zM1147 896l-14.27 4.64v-9.28z" fill="#999"/><path d="M1148 895.27v1.46l-16.27 5.28v-12zm-14.27 4l10.03-3.27-10.03-3.26z" fill="#999"/><use xlink:href="#j" transform="matrix(1,0,0,1,843.1,870.4000000000001) translate(0 14.4)"/><use xlink:href="#s" transform="matrix(1,0,0,1,843.1,870.4000000000001) translate(43.900000000000006 14.4)"/><path d="M1147 944H689" stroke="#999" stroke-width="2" fill="none"/><path d="M1148 945h-1v-2h1zM703.27 948.63L689 944l14.27-4.64z" fill="#999"/><path d="M704.27 950L688 944.73v-1.45l16.27-5.3zm-12.03-6l10.03 3.26v-6.52z" fill="#999"/><use xlink:href="#t" transform="matrix(1,0,0,1,886.1,918.3966387557717) translate(0 14.4)"/><path d="M1147 972H689" stroke="#999" stroke-width="2" fill="none"/><path d="M1148 973h-1v-2h1zM703.27 976.64L689 972l14.27-4.64z" fill="#999"/><path d="M704.27 978L688 972.74v-1.46l16.27-5.28zm-12.03-6l10.03 3.26v-6.52z" fill="#999"/><use xlink:href="#j" transform="matrix(1,0,0,1,854.625,946.4000000000001) translate(0 14.4)"/><use xlink:href="#u" transform="matrix(1,0,0,1,854.625,946.4000000000001) translate(43.900000000000006 14.4)"/><path d="M647 1058.67H229" stroke="#999" stroke-width="2" fill="none"/><path d="M648 1059.67h-1v-2h1zM243.27 1063.3l-14.27-4.63 14.27-4.64z" fill="#999"/><path d="M244.27 1064.68l-16.27-5.3v-1.44l16.27-5.3zm-12.03-6l10.03 3.25v-6.52z" fill="#999"/><g><use xlink:href="#C" transform="matrix(1,0,0,1,374.625,1011.4666666666666) translate(0 14.4)"/><use xlink:href="#D" transform="matrix(1,0,0,1,374.625,1011.4666666666666) translate(0 36)"/><use xlink:href="#u" transform="matrix(1,0,0,1,374.625,1011.4666666666666) translate(43.900000000000006 36)"/></g><g><path d="M1143 1100c-2.76 0-5-2.24-5-5V865c0-2.76 2.24-5 5-5h50c2.76 0 5 2.24 5 5v230c0 2.76-2.24 5-5 5z" fill="none"/></g><g><use xlink:href="#E" transform="matrix(6.123233995736766e-17,-1,1,6.123233995736766e-17,1138,1100) translate(6.599999999999994 33.6)"/><use xlink:href="#F" transform="matrix(6.123233995736766e-17,-1,1,6.123233995736766e-17,1138,1100) translate(115.5 33.6)"/><use xlink:href="#G" transform="matrix(6.123233995736766e-17,-1,1,6.123233995736766e-17,1138,1100) translate(226.4 33.6)"/></g><g><path d="M643 1140c-2.76 0-5-2.24-5-5V905c0-2.76 2.24-5 5-5h50c2.76 0 5 2.24 5 5v230c0 2.76-2.24 5-5 5z" fill="none"/></g><g><use xlink:href="#H" transform="matrix(6.123233995736766e-17,-1,1,6.123233995736766e-17,638,1140) translate(23.674999999999997 33.6)"/><use xlink:href="#I" transform="matrix(6.123233995736766e-17,-1,1,6.123233995736766e-17,638,1140) translate(64.625 33.6)"/><use xlink:href="#J" transform="matrix(6.123233995736766e-17,-1,1,6.123233995736766e-17,638,1140) translate(126.575 33.6)"/><use xlink:href="#K" transform="matrix(6.123233995736766e-17,-1,1,6.123233995736766e-17,638,1140) translate(152.52499999999998 33.6)"/></g><g><path d="M183 760c-2.76 0-5-2.24-5-5V621.66c0-2.77 2.24-5 5-5h50c2.76 0 5 2.23 5 5V755c0 2.76-2.24 5-5 5z" fill="none"/></g><g><use xlink:href="#L" transform="matrix(6.123233995736766e-17,-1,1,6.123233995736766e-17,178,760) translate(7.125 33.6)"/><use xlink:href="#M" transform="matrix(6.123233995736766e-17,-1,1,6.123233995736766e-17,178,760) translate(64.97500000000001 33.6)"/></g><g><path d="M1143 700c-2.76 0-5-2.24-5-5V465c0-2.76 2.24-5 5-5h50c2.76 0 5 2.24 5 5v230c0 2.76-2.24 5-5 5z" fill="none"/></g><g><use xlink:href="#E" transform="matrix(6.123233995736766e-17,-1,1,6.123233995736766e-17,1138,700) translate(6.599999999999994 33.6)"/><use xlink:href="#F" transform="matrix(6.123233995736766e-17,-1,1,6.123233995736766e-17,1138,700) translate(115.5 33.6)"/><use xlink:href="#G" transform="matrix(6.123233995736766e-17,-1,1,6.123233995736766e-17,1138,700) translate(226.4 33.6)"/></g><path d="M1048 285c0-2.76 2.24-5 5-5h230c2.76 0 5 2.24 5 5v50c0 2.76-2.24 5-5 5h-230c-2.76 0-5-2.24-5-5z" fill="none"/><g><use xlink:href="#N" transform="matrix(1,0,0,1,1048,280) translate(116.5 33.6)"/></g><path d="M1048 1265c0-2.76 2.24-5 5-5h230c2.76 0 5 2.24 5 5v50c0 2.76-2.24 5-5 5h-230c-2.76 0-5-2.24-5-5z" fill="none"/><g><use xlink:href="#O" transform="matrix(1,0,0,1,1048,1260) translate(10.775000000000006 33.6)"/><use xlink:href="#P" transform="matrix(1,0,0,1,1048,1260) translate(34.675000000000004 33.6)"/><use xlink:href="#Q" transform="matrix(1,0,0,1,1048,1260) translate(67.625 33.6)"/></g><g><path d="M1623 752.67c-2.76 0-5-2.24-5-5V392.33c0-2.76 2.24-5 5-5h50c2.76 0 5 2.24 5 5v355.34c0 2.76-2.24 5-5 5z" fill="none"/></g><g><use xlink:href="#R" transform="matrix(6.123233995736766e-17,-1,1,6.123233995736766e-17,1618.0000000000002,752.6666666666667) translate(31.5 33.6)"/><use xlink:href="#S" transform="matrix(6.123233995736766e-17,-1,1,6.123233995736766e-17,1618.0000000000002,752.6666666666667) translate(75.35 33.6)"/><use xlink:href="#T" transform="matrix(6.123233995736766e-17,-1,1,6.123233995736766e-17,1618.0000000000002,752.6666666666667) translate(126.25 33.6)"/><use xlink:href="#U" transform="matrix(6.123233995736766e-17,-1,1,6.123233995736766e-17,1618.0000000000002,752.6666666666667) translate(156.25 33.6)"/><use xlink:href="#V" transform="matrix(6.123233995736766e-17,-1,1,6.123233995736766e-17,1618.0000000000002,752.6666666666667) translate(185.2 33.6)"/><use xlink:href="#W" transform="matrix(6.123233995736766e-17,-1,1,6.123233995736766e-17,1618.0000000000002,752.6666666666667) translate(254 33.6)"/><use xlink:href="#X" transform="matrix(6.123233995736766e-17,-1,1,6.123233995736766e-17,1618.0000000000002,752.6666666666667) translate(309.5 33.6)"/></g><g><path d="M45 1220c-2.76 0-5-2.24-5-5V241.66c0-2.77 2.24-5 5-5h30c2.76 0 5 2.23 5 5V1215c0 2.76-2.24 5-5 5z" fill="#666"/><path d="M60 1220V236.66h20V1220z" fill="#666"/><path d="M1700 1215c0 2.76-2.24 5-5 5H45c-2.76 0-5-2.24-5-5V241.66c0-2.77 2.24-5 5-5h1650c2.76 0 5 2.23 5 5zM80 1220V236.66M40 800h1660" stroke="#666" stroke-width="2" fill="none"/></g><g><use xlink:href="#Y" transform="matrix(6.123233995736766e-17,-1,1,6.123233995736766e-17,40.00000000000004,800) translate(253.55 23.6)"/></g><g><use xlink:href="#Z" transform="matrix(6.123233995736766e-17,-1,1,6.123233995736766e-17,40.00000000000003,1220) translate(176.1 23.6)"/></g><defs><path fill="#333" d="M240-174c0 40-23 61-54 70L253 0h-59l-57-94H76V0H24v-248c93 4 217-23 216 74zM76-134c48-2 112 12 112-38 0-48-66-32-112-35v73" id="aa"/><path fill="#333" d="M24 0v-248h195v40H76v63h132v40H76v65h150V0H24" id="ab"/><path fill="#333" d="M67-125c0 54 23 88 75 88 28 0 53-7 68-21v-34h-60v-39h108v91C232-14 192 4 140 4 58 4 20-42 15-125 8-236 126-280 215-234c19 10 29 26 37 47l-47 15c-11-23-29-39-63-39-53 1-75 33-75 86" id="ac"/><path fill="#333" d="M24 0v-248h52V0H24" id="ad"/><path fill="#333" d="M169-182c-1-43-94-46-97-3 18 66 151 10 154 114 3 95-165 93-204 36-6-8-10-19-12-30l50-8c3 46 112 56 116 5-17-69-150-10-154-114-4-87 153-88 188-35 5 8 8 18 10 28" id="ae"/><path fill="#333" d="M136-208V0H84v-208H4v-40h212v40h-80" id="af"/><path fill="#333" d="M146-102V0H94v-102L6-248h54l60 105 60-105h54" id="ag"/><g id="a"><use transform="matrix(0.04938271604938272,0,0,0.04938271604938272,0,0)" xlink:href="#aa"/><use transform="matrix(0.04938271604938272,0,0,0.04938271604938272,12.790123456790125,0)" xlink:href="#ab"/><use transform="matrix(0.04938271604938272,0,0,0.04938271604938272,24.641975308641978,0)" xlink:href="#ac"/><use transform="matrix(0.04938271604938272,0,0,0.04938271604938272,38.46913580246914,0)" xlink:href="#ad"/><use transform="matrix(0.04938271604938272,0,0,0.04938271604938272,43.40740740740741,0)" xlink:href="#ae"/><use transform="matrix(0.04938271604938272,0,0,0.04938271604938272,55.25925925925927,0)" xlink:href="#af"/><use transform="matrix(0.04938271604938272,0,0,0.04938271604938272,66.07407407407408,0)" xlink:href="#aa"/><use transform="matrix(0.04938271604938272,0,0,0.04938271604938272,78.22222222222223,0)" xlink:href="#ag"/></g><path fill="#333" d="M199 0l-22-63H83L61 0H9l90-248h61L250 0h-51zm-33-102l-36-108c-10 38-24 72-36 108h72" id="ah"/><path fill="#333" d="M238-95c0 69-44 99-111 99C63 4 22-25 22-93v-155h51v151c-1 38 19 59 55 60 90 1 49-130 58-211h52v153" id="ai"/><path fill="#333" d="M186 0v-106H76V0H24v-248h52v99h110v-99h50V0h-50" id="aj"/><path fill="#333" d="M175 0L67-191c6 58 2 128 3 191H24v-248h59L193-55c-6-58-2-129-3-193h46V0h-61" id="ak"/><path fill="#333" d="M67-125c0 53 21 87 73 88 37 1 54-22 65-47l45 17C233-25 199 4 140 4 58 4 20-42 15-125 8-235 124-281 211-232c18 10 29 29 36 50l-46 12c-8-25-30-41-62-41-52 0-71 34-72 86" id="al"/><path fill="#333" d="M140-251c80 0 125 45 125 126S219 4 139 4C58 4 15-44 15-125s44-126 125-126zm-1 214c52 0 73-35 73-88 0-50-21-86-72-86-52 0-73 35-73 86s22 88 72 88" id="am"/><g id="b"><use transform="matrix(0.04938271604938272,0,0,0.04938271604938272,0,0)" xlink:href="#ah"/><use transform="matrix(0.04938271604938272,0,0,0.04938271604938272,12.790123456790125,0)" xlink:href="#ai"/><use transform="matrix(0.04938271604938272,0,0,0.04938271604938272,25.58024691358025,0)" xlink:href="#af"/><use transform="matrix(0.04938271604938272,0,0,0.04938271604938272,36.39506172839506,0)" xlink:href="#aj"/><use transform="matrix(0.04938271604938272,0,0,0.04938271604938272,49.18518518518519,0)" xlink:href="#ab"/><use transform="matrix(0.04938271604938272,0,0,0.04938271604938272,61.037037037037045,0)" xlink:href="#ak"/><use transform="matrix(0.04938271604938272,0,0,0.04938271604938272,73.82716049382717,0)" xlink:href="#af"/><use transform="matrix(0.04938271604938272,0,0,0.04938271604938272,84.64197530864197,0)" xlink:href="#ad"/><use transform="matrix(0.04938271604938272,0,0,0.04938271604938272,89.58024691358025,0)" xlink:href="#al"/><use transform="matrix(0.04938271604938272,0,0,0.04938271604938272,102.37037037037038,0)" xlink:href="#ah"/><use transform="matrix(0.04938271604938272,0,0,0.04938271604938272,113.82716049382717,0)" xlink:href="#af"/><use transform="matrix(0.04938271604938272,0,0,0.04938271604938272,124.64197530864199,0)" xlink:href="#ad"/><use transform="matrix(0.04938271604938272,0,0,0.04938271604938272,129.58024691358025,0)" xlink:href="#am"/><use transform="matrix(0.04938271604938272,0,0,0.04938271604938272,143.40740740740742,0)" xlink:href="#ak"/></g><path fill="#333" d="M230 0l2-204L168 0h-37L68-204 70 0H24v-248h70l56 185 57-185h69V0h-46" id="an"/><g id="c"><use transform="matrix(0.04938271604938272,0,0,0.04938271604938272,0,0)" xlink:href="#an"/><use transform="matrix(0.04938271604938272,0,0,0.04938271604938272,14.765432098765434,0)" xlink:href="#ah"/><use transform="matrix(0.04938271604938272,0,0,0.04938271604938272,27.555555555555557,0)" xlink:href="#ak"/><use transform="matrix(0.04938271604938272,0,0,0.04938271604938272,40.345679012345684,0)" xlink:href="#ah"/><use transform="matrix(0.04938271604938272,0,0,0.04938271604938272,53.135802469135804,0)" xlink:href="#ac"/><use transform="matrix(0.04938271604938272,0,0,0.04938271604938272,66.96296296296298,0)" xlink:href="#ab"/><use transform="matrix(0.04938271604938272,0,0,0.04938271604938272,78.81481481481482,0)" xlink:href="#aa"/></g><g id="d"><use transform="matrix(0.04938271604938272,0,0,0.04938271604938272,0,0)" xlink:href="#ai"/><use transform="matrix(0.04938271604938272,0,0,0.04938271604938272,12.790123456790125,0)" xlink:href="#ak"/><use transform="matrix(0.04938271604938272,0,0,0.04938271604938272,25.58024691358025,0)" xlink:href="#ad"/><use transform="matrix(0.04938271604938272,0,0,0.04938271604938272,30.518518518518523,0)" xlink:href="#af"/></g><path fill="#333" d="M24 0v-248h52v208h133V0H24" id="ao"/><g id="e"><use transform="matrix(0.04938271604938272,0,0,0.04938271604938272,0,0)" xlink:href="#al"/><use transform="matrix(0.04938271604938272,0,0,0.04938271604938272,12.790123456790125,0)" xlink:href="#am"/><use transform="matrix(0.04938271604938272,0,0,0.04938271604938272,26.617283950617285,0)" xlink:href="#ak"/><use transform="matrix(0.04938271604938272,0,0,0.04938271604938272,39.40740740740741,0)" xlink:href="#af"/><use transform="matrix(0.04938271604938272,0,0,0.04938271604938272,50.22222222222223,0)" xlink:href="#aa"/><use transform="matrix(0.04938271604938272,0,0,0.04938271604938272,63.01234567901235,0)" xlink:href="#am"/><use transform="matrix(0.04938271604938272,0,0,0.04938271604938272,76.83950617283952,0)" xlink:href="#ao"/><use transform="matrix(0.04938271604938272,0,0,0.04938271604938272,87.65432098765433,0)" xlink:href="#ao"/><use transform="matrix(0.04938271604938272,0,0,0.04938271604938272,98.46913580246914,0)" xlink:href="#ab"/><use transform="matrix(0.04938271604938272,0,0,0.04938271604938272,110.320987654321,0)" xlink:href="#aa"/></g><path fill="#333" d="M182-130c37 4 62 22 62 59C244 23 116-4 24 0v-248c84 5 203-23 205 63 0 31-19 50-47 55zM76-148c40-3 101 13 101-30 0-44-60-28-101-31v61zm0 110c48-3 116 14 116-37 0-48-69-32-116-35v72" id="ap"/><path fill="#333" d="M210 0H11v-37l134-170H24v-41h178v36L68-41h142V0" id="aq"/><g id="f"><use transform="matrix(0.04938271604938272,0,0,0.04938271604938272,0,0)" xlink:href="#ap"/><use transform="matrix(0.04938271604938272,0,0,0.04938271604938272,12.790123456790125,0)" xlink:href="#al"/><use transform="matrix(0.04938271604938272,0,0,0.04938271604938272,25.58024691358025,0)" xlink:href="#am"/><use transform="matrix(0.04938271604938272,0,0,0.04938271604938272,39.40740740740741,0)" xlink:href="#aq"/><use transform="matrix(0.04938271604938272,0,0,0.04938271604938272,50.22222222222223,0)" xlink:href="#ag"/></g><path d="M30 0v-248h33v221h125V0H30" id="ar"/><path d="M100-194c62-1 85 37 85 99 1 63-27 99-86 99S16-35 15-95c0-66 28-99 85-99zM99-20c44 1 53-31 53-75 0-43-8-75-51-75s-53 32-53 75 10 74 51 75" id="as"/><path d="M177-190C167-65 218 103 67 71c-23-6-38-20-44-43l32-5c15 47 100 32 89-28v-30C133-14 115 1 83 1 29 1 15-40 15-95c0-56 16-97 71-98 29-1 48 16 59 35 1-10 0-23 2-32h30zM94-22c36 0 50-32 50-73 0-42-14-75-50-75-39 0-46 34-46 75s6 73 46 73" id="at"/><path d="M24-231v-30h32v30H24zM24 0v-190h32V0H24" id="au"/><path d="M117-194c89-4 53 116 60 194h-32v-121c0-31-8-49-39-48C34-167 62-67 57 0H25l-1-190h30c1 10-1 24 2 32 11-22 29-35 61-36" id="av"/><g id="g"><use transform="matrix(0.05,0,0,0.05,0,0)" xlink:href="#ar"/><use transform="matrix(0.05,0,0,0.05,10,0)" xlink:href="#as"/><use transform="matrix(0.05,0,0,0.05,20,0)" xlink:href="#at"/><use transform="matrix(0.05,0,0,0.05,30,0)" xlink:href="#au"/><use transform="matrix(0.05,0,0,0.05,33.95,0)" xlink:href="#av"/></g><path d="M210-169c-67 3-38 105-44 169h-31v-121c0-29-5-50-35-48C34-165 62-65 56 0H25l-1-190h30c1 10-1 24 2 32 10-44 99-50 107 0 11-21 27-35 58-36 85-2 47 119 55 194h-31v-121c0-29-5-49-35-48" id="aw"/><path d="M59-47c-2 24 18 29 38 22v24C64 9 27 4 27-40v-127H5v-23h24l9-43h21v43h35v23H59v120" id="ax"/><g id="h"><use transform="matrix(0.05,0,0,0.05,0,0)" xlink:href="#aw"/><use transform="matrix(0.05,0,0,0.05,14.950000000000001,0)" xlink:href="#au"/><use transform="matrix(0.05,0,0,0.05,18.900000000000002,0)" xlink:href="#ax"/></g><path d="M212-179c-10-28-35-45-73-45-59 0-87 40-87 99 0 60 29 101 89 101 43 0 62-24 78-52l27 14C228-24 195 4 139 4 59 4 22-46 18-125c-6-104 99-153 187-111 19 9 31 26 39 46" id="ay"/><path d="M24 0v-261h32V0H24" id="az"/><path d="M100-194c63 0 86 42 84 106H49c0 40 14 67 53 68 26 1 43-12 49-29l28 8c-11 28-37 45-77 45C44 4 14-33 15-96c1-61 26-98 85-98zm52 81c6-60-76-77-97-28-3 7-6 17-6 28h103" id="aA"/><path d="M33 0v-248h34V0H33" id="aB"/><path d="M30-248c118-7 216 8 213 122C240-48 200 0 122 0H30v-248zM63-27c89 8 146-16 146-99s-60-101-146-95v194" id="aC"/><g id="i"><use transform="matrix(0.05,0,0,0.05,0,0)" xlink:href="#ay"/><use transform="matrix(0.05,0,0,0.05,12.950000000000001,0)" xlink:href="#az"/><use transform="matrix(0.05,0,0,0.05,16.900000000000002,0)" xlink:href="#au"/><use transform="matrix(0.05,0,0,0.05,20.85,0)" xlink:href="#aA"/><use transform="matrix(0.05,0,0,0.05,30.85,0)" xlink:href="#av"/><use transform="matrix(0.05,0,0,0.05,40.85,0)" xlink:href="#ax"/><use transform="matrix(0.05,0,0,0.05,45.85,0)" xlink:href="#aB"/><use transform="matrix(0.05,0,0,0.05,50.85,0)" xlink:href="#aC"/></g><path d="M185-189c-5-48-123-54-124 2 14 75 158 14 163 119 3 78-121 87-175 55-17-10-28-26-33-46l33-7c5 56 141 63 141-1 0-78-155-14-162-118-5-82 145-84 179-34 5 7 8 16 11 25" id="aD"/><path d="M127-220V0H93v-220H8v-28h204v28h-85" id="aE"/><path d="M68-38c1 34 0 65-14 84H32c9-13 17-26 17-46H33v-38h35" id="aF"/><g id="j"><use transform="matrix(0.05,0,0,0.05,0,0)" xlink:href="#ay"/><use transform="matrix(0.05,0,0,0.05,12.950000000000001,0)" xlink:href="#aD"/><use transform="matrix(0.05,0,0,0.05,24.950000000000003,0)" xlink:href="#aE"/><use transform="matrix(0.05,0,0,0.05,33.900000000000006,0)" xlink:href="#aF"/></g><path d="M135-143c-3-34-86-38-87 0 15 53 115 12 119 90S17 21 10-45l28-5c4 36 97 45 98 0-10-56-113-15-118-90-4-57 82-63 122-42 12 7 21 19 24 35" id="aG"/><g id="k"><use transform="matrix(0.05,0,0,0.05,0,0)" xlink:href="#aG"/><use transform="matrix(0.05,0,0,0.05,9,0)" xlink:href="#aA"/><use transform="matrix(0.05,0,0,0.05,19,0)" xlink:href="#aG"/><use transform="matrix(0.05,0,0,0.05,28,0)" xlink:href="#aG"/><use transform="matrix(0.05,0,0,0.05,37,0)" xlink:href="#au"/><use transform="matrix(0.05,0,0,0.05,40.95,0)" xlink:href="#as"/><use transform="matrix(0.05,0,0,0.05,50.95,0)" xlink:href="#av"/></g><path d="M143 0L79-87 56-68V0H24v-261h32v163l83-92h37l-77 82L181 0h-38" id="aH"/><path d="M179-190L93 31C79 59 56 82 12 73V49c39 6 53-20 64-50L1-190h34L92-34l54-156h33" id="aI"/><g id="l"><use transform="matrix(0.05,0,0,0.05,0,0)" xlink:href="#aH"/><use transform="matrix(0.05,0,0,0.05,9,0)" xlink:href="#aA"/><use transform="matrix(0.05,0,0,0.05,19,0)" xlink:href="#aI"/></g><path d="M205 0l-28-72H64L36 0H1l101-248h38L239 0h-34zm-38-99l-47-123c-12 45-31 82-46 123h93" id="aJ"/><path d="M101-234c-31-9-42 10-38 44h38v23H63V0H32v-167H5v-23h27c-7-52 17-82 69-68v24" id="aK"/><path d="M114-163C36-179 61-72 57 0H25l-1-190h30c1 12-1 29 2 39 6-27 23-49 58-41v29" id="aL"/><path d="M141-36C126-15 110 5 73 4 37 3 15-17 15-53c-1-64 63-63 125-63 3-35-9-54-41-54-24 1-41 7-42 31l-33-3c5-37 33-52 76-52 45 0 72 20 72 64v82c-1 20 7 32 28 27v20c-31 9-61-2-59-35zM48-53c0 20 12 33 32 33 41-3 63-29 60-74-43 2-92-5-92 41" id="aM"/><g id="m"><use transform="matrix(0.05,0,0,0.05,0,0)" xlink:href="#aJ"/><use transform="matrix(0.05,0,0,0.05,12,0)" xlink:href="#av"/><use transform="matrix(0.05,0,0,0.05,22,0)" xlink:href="#aK"/><use transform="matrix(0.05,0,0,0.05,27,0)" xlink:href="#aL"/><use transform="matrix(0.05,0,0,0.05,32.95,0)" xlink:href="#aM"/><use transform="matrix(0.05,0,0,0.05,42.95,0)" xlink:href="#at"/><use transform="matrix(0.05,0,0,0.05,52.95,0)" xlink:href="#aA"/></g><path d="M232-93c-1 65-40 97-104 97C67 4 28-28 28-90v-158h33c8 89-33 224 67 224 102 0 64-133 71-224h33v155" id="aN"/><g id="n"><use transform="matrix(0.05,0,0,0.05,0,0)" xlink:href="#aN"/><use transform="matrix(0.05,0,0,0.05,12.950000000000001,0)" xlink:href="#av"/><use transform="matrix(0.05,0,0,0.05,22.950000000000003,0)" xlink:href="#au"/><use transform="matrix(0.05,0,0,0.05,26.900000000000002,0)" xlink:href="#ax"/><use transform="matrix(0.05,0,0,0.05,31.900000000000002,0)" xlink:href="#aG"/><use transform="matrix(0.05,0,0,0.05,40.900000000000006,0)" xlink:href="#aF"/></g><g id="o"><use transform="matrix(0.05,0,0,0.05,0,0)" xlink:href="#ay"/><use transform="matrix(0.05,0,0,0.05,12.950000000000001,0)" xlink:href="#aD"/><use transform="matrix(0.05,0,0,0.05,24.950000000000003,0)" xlink:href="#aE"/><use transform="matrix(0.05,0,0,0.05,33.900000000000006,0)" xlink:href="#aF"/></g><path d="M84 4C-5 8 30-112 23-190h32v120c0 31 7 50 39 49 72-2 45-101 50-169h31l1 190h-30c-1-10 1-25-2-33-11 22-28 36-60 37" id="aO"/><path d="M106-169C34-169 62-67 57 0H25v-261h32l-1 103c12-21 28-36 61-36 89 0 53 116 60 194h-32v-121c2-32-8-49-39-48" id="aP"/><path d="M96-169c-40 0-48 33-48 73s9 75 48 75c24 0 41-14 43-38l32 2c-6 37-31 61-74 61-59 0-76-41-82-99-10-93 101-131 147-64 4 7 5 14 7 22l-32 3c-4-21-16-35-41-35" id="aQ"/><g id="p"><use transform="matrix(0.05,0,0,0.05,0,0)" xlink:href="#aJ"/><use transform="matrix(0.05,0,0,0.05,12,0)" xlink:href="#aO"/><use transform="matrix(0.05,0,0,0.05,22,0)" xlink:href="#ax"/><use transform="matrix(0.05,0,0,0.05,27,0)" xlink:href="#aP"/><use transform="matrix(0.05,0,0,0.05,37,0)" xlink:href="#aA"/><use transform="matrix(0.05,0,0,0.05,47,0)" xlink:href="#av"/><use transform="matrix(0.05,0,0,0.05,57,0)" xlink:href="#ax"/><use transform="matrix(0.05,0,0,0.05,62,0)" xlink:href="#au"/><use transform="matrix(0.05,0,0,0.05,65.95,0)" xlink:href="#aQ"/><use transform="matrix(0.05,0,0,0.05,74.95,0)" xlink:href="#aM"/><use transform="matrix(0.05,0,0,0.05,84.95,0)" xlink:href="#ax"/><use transform="matrix(0.05,0,0,0.05,89.95,0)" xlink:href="#as"/><use transform="matrix(0.05,0,0,0.05,99.95,0)" xlink:href="#aL"/></g><path d="M87 75C49 33 22-17 22-94c0-76 28-126 65-167h31c-38 41-64 92-64 168S80 34 118 75H87" id="aR"/><g id="q"><use transform="matrix(0.05,0,0,0.05,0,0)" xlink:href="#aR"/><use transform="matrix(0.05,0,0,0.05,5.95,0)" xlink:href="#aQ"/><use transform="matrix(0.05,0,0,0.05,14.949999999999998,0)" xlink:href="#az"/><use transform="matrix(0.05,0,0,0.05,18.9,0)" xlink:href="#au"/><use transform="matrix(0.05,0,0,0.05,22.849999999999998,0)" xlink:href="#aA"/><use transform="matrix(0.05,0,0,0.05,32.849999999999994,0)" xlink:href="#av"/><use transform="matrix(0.05,0,0,0.05,42.849999999999994,0)" xlink:href="#ax"/><use transform="matrix(0.05,0,0,0.05,47.849999999999994,0)" xlink:href="#aB"/><use transform="matrix(0.05,0,0,0.05,52.849999999999994,0)" xlink:href="#aC"/><use transform="matrix(0.05,0,0,0.05,65.8,0)" xlink:href="#aF"/></g><path d="M115-194c55 1 70 41 70 98S169 2 115 4C84 4 66-9 55-30l1 105H24l-1-265h31l2 30c10-21 28-34 59-34zm-8 174c40 0 45-34 45-75s-6-73-45-74c-42 0-51 32-51 76 0 43 10 73 51 73" id="aS"/><path d="M33-261c38 41 65 92 65 168S71 34 33 75H2C39 34 66-17 66-93S39-220 2-261h31" id="aT"/><g id="r"><use transform="matrix(0.05,0,0,0.05,0,0)" xlink:href="#ax"/><use transform="matrix(0.05,0,0,0.05,5,0)" xlink:href="#au"/><use transform="matrix(0.05,0,0,0.05,8.95,0)" xlink:href="#aw"/><use transform="matrix(0.05,0,0,0.05,23.9,0)" xlink:href="#aA"/><use transform="matrix(0.05,0,0,0.05,33.9,0)" xlink:href="#aG"/><use transform="matrix(0.05,0,0,0.05,42.9,0)" xlink:href="#ax"/><use transform="matrix(0.05,0,0,0.05,47.9,0)" xlink:href="#aM"/><use transform="matrix(0.05,0,0,0.05,57.900000000000006,0)" xlink:href="#aw"/><use transform="matrix(0.05,0,0,0.05,72.85,0)" xlink:href="#aS"/><use transform="matrix(0.05,0,0,0.05,82.85,0)" xlink:href="#aT"/></g><g id="s"><use transform="matrix(0.05,0,0,0.05,0,0)" xlink:href="#aJ"/><use transform="matrix(0.05,0,0,0.05,12,0)" xlink:href="#aO"/><use transform="matrix(0.05,0,0,0.05,22,0)" xlink:href="#ax"/><use transform="matrix(0.05,0,0,0.05,27,0)" xlink:href="#aP"/><use transform="matrix(0.05,0,0,0.05,37,0)" xlink:href="#aA"/><use transform="matrix(0.05,0,0,0.05,47,0)" xlink:href="#av"/><use transform="matrix(0.05,0,0,0.05,57,0)" xlink:href="#ax"/><use transform="matrix(0.05,0,0,0.05,62,0)" xlink:href="#au"/><use transform="matrix(0.05,0,0,0.05,65.95,0)" xlink:href="#aQ"/><use transform="matrix(0.05,0,0,0.05,74.95,0)" xlink:href="#aM"/><use transform="matrix(0.05,0,0,0.05,84.95,0)" xlink:href="#ax"/><use transform="matrix(0.05,0,0,0.05,89.95,0)" xlink:href="#as"/><use transform="matrix(0.05,0,0,0.05,99.95,0)" xlink:href="#aL"/></g><g id="t"><use transform="matrix(0.05,0,0,0.05,0,0)" xlink:href="#ay"/><use transform="matrix(0.05,0,0,0.05,12.950000000000001,0)" xlink:href="#az"/><use transform="matrix(0.05,0,0,0.05,16.900000000000002,0)" xlink:href="#au"/><use transform="matrix(0.05,0,0,0.05,20.85,0)" xlink:href="#aA"/><use transform="matrix(0.05,0,0,0.05,30.85,0)" xlink:href="#av"/><use transform="matrix(0.05,0,0,0.05,40.85,0)" xlink:href="#ax"/><use transform="matrix(0.05,0,0,0.05,45.85,0)" xlink:href="#aB"/><use transform="matrix(0.05,0,0,0.05,50.85,0)" xlink:href="#aC"/></g><g id="u"><use transform="matrix(0.05,0,0,0.05,0,0)" xlink:href="#ax"/><use transform="matrix(0.05,0,0,0.05,5,0)" xlink:href="#au"/><use transform="matrix(0.05,0,0,0.05,8.95,0)" xlink:href="#aw"/><use transform="matrix(0.05,0,0,0.05,23.9,0)" xlink:href="#aA"/><use transform="matrix(0.05,0,0,0.05,33.9,0)" xlink:href="#aG"/><use transform="matrix(0.05,0,0,0.05,42.9,0)" xlink:href="#ax"/><use transform="matrix(0.05,0,0,0.05,47.9,0)" xlink:href="#aM"/><use transform="matrix(0.05,0,0,0.05,57.900000000000006,0)" xlink:href="#aw"/><use transform="matrix(0.05,0,0,0.05,72.85,0)" xlink:href="#aS"/></g><g id="v"><use transform="matrix(0.05,0,0,0.05,0,0)" xlink:href="#ay"/><use transform="matrix(0.05,0,0,0.05,12.950000000000001,0)" xlink:href="#aD"/><use transform="matrix(0.05,0,0,0.05,24.950000000000003,0)" xlink:href="#aE"/><use transform="matrix(0.05,0,0,0.05,33.900000000000006,0)" xlink:href="#aF"/></g><g id="w"><use transform="matrix(0.05,0,0,0.05,0,0)" xlink:href="#ax"/><use transform="matrix(0.05,0,0,0.05,5,0)" xlink:href="#au"/><use transform="matrix(0.05,0,0,0.05,8.95,0)" xlink:href="#aw"/><use transform="matrix(0.05,0,0,0.05,23.9,0)" xlink:href="#aA"/><use transform="matrix(0.05,0,0,0.05,33.9,0)" xlink:href="#aG"/><use transform="matrix(0.05,0,0,0.05,42.9,0)" xlink:href="#ax"/><use transform="matrix(0.05,0,0,0.05,47.9,0)" xlink:href="#aM"/><use transform="matrix(0.05,0,0,0.05,57.900000000000006,0)" xlink:href="#aw"/><use transform="matrix(0.05,0,0,0.05,72.85,0)" xlink:href="#aS"/><use transform="matrix(0.05,0,0,0.05,82.85,0)" xlink:href="#aF"/></g><g id="x"><use transform="matrix(0.05,0,0,0.05,0,0)" xlink:href="#at"/><use transform="matrix(0.05,0,0,0.05,10,0)" xlink:href="#aA"/><use transform="matrix(0.05,0,0,0.05,20,0)" xlink:href="#aK"/><use transform="matrix(0.05,0,0,0.05,25,0)" xlink:href="#au"/><use transform="matrix(0.05,0,0,0.05,28.950000000000003,0)" xlink:href="#az"/><use transform="matrix(0.05,0,0,0.05,32.9,0)" xlink:href="#ax"/><use transform="matrix(0.05,0,0,0.05,37.9,0)" xlink:href="#aA"/><use transform="matrix(0.05,0,0,0.05,47.9,0)" xlink:href="#aL"/><use transform="matrix(0.05,0,0,0.05,53.85,0)" xlink:href="#ax"/><use transform="matrix(0.05,0,0,0.05,58.85,0)" xlink:href="#aA"/></g><g id="y"><use transform="matrix(0.05,0,0,0.05,0,0)" xlink:href="#aN"/><use transform="matrix(0.05,0,0,0.05,12.950000000000001,0)" xlink:href="#av"/><use transform="matrix(0.05,0,0,0.05,22.950000000000003,0)" xlink:href="#au"/><use transform="matrix(0.05,0,0,0.05,26.900000000000002,0)" xlink:href="#ax"/><use transform="matrix(0.05,0,0,0.05,31.900000000000002,0)" xlink:href="#aG"/></g><g id="z"><use transform="matrix(0.05,0,0,0.05,0,0)" xlink:href="#aJ"/><use transform="matrix(0.05,0,0,0.05,12,0)" xlink:href="#aQ"/><use transform="matrix(0.05,0,0,0.05,21,0)" xlink:href="#ax"/><use transform="matrix(0.05,0,0,0.05,26,0)" xlink:href="#au"/><use transform="matrix(0.05,0,0,0.05,29.950000000000003,0)" xlink:href="#as"/><use transform="matrix(0.05,0,0,0.05,39.95,0)" xlink:href="#av"/><use transform="matrix(0.05,0,0,0.05,49.95,0)" xlink:href="#aC"/><use transform="matrix(0.05,0,0,0.05,62.900000000000006,0)" xlink:href="#aA"/><use transform="matrix(0.05,0,0,0.05,72.9,0)" xlink:href="#aG"/><use transform="matrix(0.05,0,0,0.05,81.9,0)" xlink:href="#aQ"/><use transform="matrix(0.05,0,0,0.05,90.9,0)" xlink:href="#aL"/><use transform="matrix(0.05,0,0,0.05,96.85000000000001,0)" xlink:href="#au"/><use transform="matrix(0.05,0,0,0.05,100.80000000000001,0)" xlink:href="#aS"/><use transform="matrix(0.05,0,0,0.05,110.80000000000001,0)" xlink:href="#ax"/><use transform="matrix(0.05,0,0,0.05,115.80000000000001,0)" xlink:href="#au"/><use transform="matrix(0.05,0,0,0.05,119.75,0)" xlink:href="#as"/><use transform="matrix(0.05,0,0,0.05,129.75,0)" xlink:href="#av"/><use transform="matrix(0.05,0,0,0.05,139.75,0)" xlink:href="#aF"/></g><g id="A"><use transform="matrix(0.05,0,0,0.05,0,0)" xlink:href="#ay"/><use transform="matrix(0.05,0,0,0.05,12.950000000000001,0)" xlink:href="#aD"/><use transform="matrix(0.05,0,0,0.05,24.950000000000003,0)" xlink:href="#aE"/><use transform="matrix(0.05,0,0,0.05,33.900000000000006,0)" xlink:href="#aF"/></g><g id="B"><use transform="matrix(0.05,0,0,0.05,0,0)" xlink:href="#aJ"/><use transform="matrix(0.05,0,0,0.05,12,0)" xlink:href="#aO"/><use transform="matrix(0.05,0,0,0.05,22,0)" xlink:href="#ax"/><use transform="matrix(0.05,0,0,0.05,27,0)" xlink:href="#aP"/><use transform="matrix(0.05,0,0,0.05,37,0)" xlink:href="#aA"/><use transform="matrix(0.05,0,0,0.05,47,0)" xlink:href="#av"/><use transform="matrix(0.05,0,0,0.05,57,0)" xlink:href="#ax"/><use transform="matrix(0.05,0,0,0.05,62,0)" xlink:href="#au"/><use transform="matrix(0.05,0,0,0.05,65.95,0)" xlink:href="#aQ"/><use transform="matrix(0.05,0,0,0.05,74.95,0)" xlink:href="#aM"/><use transform="matrix(0.05,0,0,0.05,84.95,0)" xlink:href="#ax"/><use transform="matrix(0.05,0,0,0.05,89.95,0)" xlink:href="#as"/><use transform="matrix(0.05,0,0,0.05,99.95,0)" xlink:href="#aL"/><use transform="matrix(0.05,0,0,0.05,105.9,0)" xlink:href="#aR"/><use transform="matrix(0.05,0,0,0.05,111.85000000000001,0)" xlink:href="#aQ"/><use transform="matrix(0.05,0,0,0.05,120.85000000000001,0)" xlink:href="#az"/><use transform="matrix(0.05,0,0,0.05,124.80000000000001,0)" xlink:href="#au"/><use transform="matrix(0.05,0,0,0.05,128.75,0)" xlink:href="#aA"/><use transform="matrix(0.05,0,0,0.05,138.75,0)" xlink:href="#av"/><use transform="matrix(0.05,0,0,0.05,148.75,0)" xlink:href="#ax"/><use transform="matrix(0.05,0,0,0.05,153.75,0)" xlink:href="#aB"/><use transform="matrix(0.05,0,0,0.05,158.75,0)" xlink:href="#aC"/><use transform="matrix(0.05,0,0,0.05,171.7,0)" xlink:href="#aF"/></g><path d="M206 0h-36l-40-164L89 0H53L-1-190h32L70-26l43-164h34l41 164 42-164h31" id="aU"/><g id="C"><use transform="matrix(0.05,0,0,0.05,0,0)" xlink:href="#aJ"/><use transform="matrix(0.05,0,0,0.05,12,0)" xlink:href="#av"/><use transform="matrix(0.05,0,0,0.05,22,0)" xlink:href="#ax"/><use transform="matrix(0.05,0,0,0.05,27,0)" xlink:href="#aU"/><use transform="matrix(0.05,0,0,0.05,39.95,0)" xlink:href="#as"/><use transform="matrix(0.05,0,0,0.05,49.95,0)" xlink:href="#aL"/><use transform="matrix(0.05,0,0,0.05,55.900000000000006,0)" xlink:href="#ax"/></g><g id="D"><use transform="matrix(0.05,0,0,0.05,0,0)" xlink:href="#ay"/><use transform="matrix(0.05,0,0,0.05,12.950000000000001,0)" xlink:href="#aD"/><use transform="matrix(0.05,0,0,0.05,24.950000000000003,0)" xlink:href="#aE"/><use transform="matrix(0.05,0,0,0.05,33.900000000000006,0)" xlink:href="#aF"/></g><path fill="#333" d="M100-194c63 0 86 42 84 106H49c0 40 14 67 53 68 26 1 43-12 49-29l28 8c-11 28-37 45-77 45C44 4 14-33 15-96c1-61 26-98 85-98zm52 81c6-60-76-77-97-28-3 7-6 17-6 28h103" id="aV"/><path fill="#333" d="M117-194c89-4 53 116 60 194h-32v-121c0-31-8-49-39-48C34-167 62-67 57 0H25l-1-190h30c1 10-1 24 2 32 11-22 29-35 61-36" id="aW"/><path fill="#333" d="M59-47c-2 24 18 29 38 22v24C64 9 27 4 27-40v-127H5v-23h24l9-43h21v43h35v23H59v120" id="aX"/><path fill="#333" d="M135-143c-3-34-86-38-87 0 15 53 115 12 119 90S17 21 10-45l28-5c4 36 97 45 98 0-10-56-113-15-118-90-4-57 82-63 122-42 12 7 21 19 24 35" id="aY"/><path fill="#333" d="M96-169c-40 0-48 33-48 73s9 75 48 75c24 0 41-14 43-38l32 2c-6 37-31 61-74 61-59 0-76-41-82-99-10-93 101-131 147-64 4 7 5 14 7 22l-32 3c-4-21-16-35-41-35" id="aZ"/><path fill="#333" d="M106-169C34-169 62-67 57 0H25v-261h32l-1 103c12-21 28-36 61-36 89 0 53 116 60 194h-32v-121c2-32-8-49-39-48" id="ba"/><path fill="#333" d="M24 0v-261h32V0H24" id="bb"/><path fill="#333" d="M85 4C-4 8 31-112 24-190h32v120c0 31 7 50 39 49 72-2 45-101 50-169h31l1 190h-30c-1-10 1-25-2-33-11 22-28 36-60 37zm34-218v-33h29v33h-29zm-69 0v-33h29v33H50" id="bc"/><g id="E"><use transform="matrix(0.05,0,0,0.05,0,0)" xlink:href="#aV"/><use transform="matrix(0.05,0,0,0.05,10,0)" xlink:href="#aW"/><use transform="matrix(0.05,0,0,0.05,20,0)" xlink:href="#aX"/><use transform="matrix(0.05,0,0,0.05,25,0)" xlink:href="#aY"/><use transform="matrix(0.05,0,0,0.05,34,0)" xlink:href="#aZ"/><use transform="matrix(0.05,0,0,0.05,43,0)" xlink:href="#ba"/><use transform="matrix(0.05,0,0,0.05,53,0)" xlink:href="#bb"/><use transform="matrix(0.05,0,0,0.05,56.95,0)" xlink:href="#bc"/><use transform="matrix(0.05,0,0,0.05,66.95,0)" xlink:href="#aY"/><use transform="matrix(0.05,0,0,0.05,75.95,0)" xlink:href="#aY"/><use transform="matrix(0.05,0,0,0.05,84.95,0)" xlink:href="#aV"/><use transform="matrix(0.05,0,0,0.05,94.95,0)" xlink:href="#bb"/><use transform="matrix(0.05,0,0,0.05,98.9,0)" xlink:href="#aX"/></g><path fill="#333" d="M205 0l-28-72H64L36 0H1l101-248h38L239 0h-34zm-38-99l-47-123c-12 45-31 82-46 123h93" id="bd"/><path fill="#333" d="M84 4C-5 8 30-112 23-190h32v120c0 31 7 50 39 49 72-2 45-101 50-169h31l1 190h-30c-1-10 1-25-2-33-11 22-28 36-60 37" id="be"/><path fill="#333" d="M24-231v-30h32v30H24zM24 0v-190h32V0H24" id="bf"/><path fill="#333" d="M141-36C126-15 110 5 73 4 37 3 15-17 15-53c-1-64 63-63 125-63 3-35-9-54-41-54-24 1-41 7-42 31l-33-3c5-37 33-52 76-52 45 0 72 20 72 64v82c-1 20 7 32 28 27v20c-31 9-61-2-59-35zM48-53c0 20 12 33 32 33 41-3 63-29 60-74-43 2-92-5-92 41" id="bg"/><path fill="#333" d="M100-194c62-1 85 37 85 99 1 63-27 99-86 99S16-35 15-95c0-66 28-99 85-99zM99-20c44 1 53-31 53-75 0-43-8-75-51-75s-53 32-53 75 10 74 51 75" id="bh"/><path fill="#333" d="M114-163C36-179 61-72 57 0H25l-1-190h30c1 12-1 29 2 39 6-27 23-49 58-41v29" id="bi"/><g id="F"><use transform="matrix(0.05,0,0,0.05,0,0)" xlink:href="#bd"/><use transform="matrix(0.05,0,0,0.05,12,0)" xlink:href="#be"/><use transform="matrix(0.05,0,0,0.05,22,0)" xlink:href="#aX"/><use transform="matrix(0.05,0,0,0.05,27,0)" xlink:href="#ba"/><use transform="matrix(0.05,0,0,0.05,37,0)" xlink:href="#aV"/><use transform="matrix(0.05,0,0,0.05,47,0)" xlink:href="#aW"/><use transform="matrix(0.05,0,0,0.05,57,0)" xlink:href="#aX"/><use transform="matrix(0.05,0,0,0.05,62,0)" xlink:href="#bf"/><use transform="matrix(0.05,0,0,0.05,65.95,0)" xlink:href="#aZ"/><use transform="matrix(0.05,0,0,0.05,74.95,0)" xlink:href="#bg"/><use transform="matrix(0.05,0,0,0.05,84.95,0)" xlink:href="#aX"/><use transform="matrix(0.05,0,0,0.05,89.95,0)" xlink:href="#bh"/><use transform="matrix(0.05,0,0,0.05,99.95,0)" xlink:href="#bi"/></g><path fill="#333" d="M80-196l47-18 7 23-49 13 32 44-20 13-27-46-27 45-21-12 33-44-49-13 8-23 47 19-2-53h23" id="bj"/><use transform="matrix(0.05,0,0,0.05,0,0)" xlink:href="#bj" id="G"/><path fill="#333" d="M115-194c55 1 70 41 70 98S169 2 115 4C84 4 66-9 55-30l1 105H24l-1-265h31l2 30c10-21 28-34 59-34zm-8 174c40 0 45-34 45-75s-6-73-45-74c-42 0-51 32-51 76 0 43 10 73 51 73" id="bk"/><path fill="#333" d="M101-234c-31-9-42 10-38 44h38v23H63V0H32v-167H5v-23h27c-7-52 17-82 69-68v24" id="bl"/><g id="H"><use transform="matrix(0.05,0,0,0.05,0,0)" xlink:href="#bk"/><use transform="matrix(0.05,0,0,0.05,10,0)" xlink:href="#bi"/><use transform="matrix(0.05,0,0,0.05,15.949999999999998,0)" xlink:href="#bc"/><use transform="matrix(0.05,0,0,0.05,25.950000000000003,0)" xlink:href="#bl"/><use transform="matrix(0.05,0,0,0.05,30.950000000000003,0)" xlink:href="#aX"/></g><path fill="#333" d="M233-177c-1 41-23 64-60 70L243 0h-38l-65-103H63V0H30v-248c88 3 205-21 203 71zM63-129c60-2 137 13 137-47 0-61-80-42-137-45v92" id="bm"/><g id="I"><use transform="matrix(0.05,0,0,0.05,0,0)" xlink:href="#bm"/><use transform="matrix(0.05,0,0,0.05,12.950000000000001,0)" xlink:href="#aV"/><use transform="matrix(0.05,0,0,0.05,22.950000000000003,0)" xlink:href="#aZ"/><use transform="matrix(0.05,0,0,0.05,31.950000000000003,0)" xlink:href="#ba"/><use transform="matrix(0.05,0,0,0.05,41.95,0)" xlink:href="#aX"/><use transform="matrix(0.05,0,0,0.05,46.95,0)" xlink:href="#aV"/></g><g id="J"><use transform="matrix(0.05,0,0,0.05,0,0)" xlink:href="#bl"/><use transform="matrix(0.05,0,0,0.05,5,0)" xlink:href="#bc"/><use transform="matrix(0.05,0,0,0.05,15,0)" xlink:href="#bi"/></g><path fill="#333" d="M212-179c-10-28-35-45-73-45-59 0-87 40-87 99 0 60 29 101 89 101 43 0 62-24 78-52l27 14C228-24 195 4 139 4 59 4 22-46 18-125c-6-104 99-153 187-111 19 9 31 26 39 46" id="bn"/><path fill="#333" d="M33 0v-248h34V0H33" id="bo"/><path fill="#333" d="M30-248c118-7 216 8 213 122C240-48 200 0 122 0H30v-248zM63-27c89 8 146-16 146-99s-60-101-146-95v194" id="bp"/><g id="K"><use transform="matrix(0.05,0,0,0.05,0,0)" xlink:href="#bn"/><use transform="matrix(0.05,0,0,0.05,12.950000000000001,0)" xlink:href="#bb"/><use transform="matrix(0.05,0,0,0.05,16.900000000000002,0)" xlink:href="#bf"/><use transform="matrix(0.05,0,0,0.05,20.85,0)" xlink:href="#aV"/><use transform="matrix(0.05,0,0,0.05,30.85,0)" xlink:href="#aW"/><use transform="matrix(0.05,0,0,0.05,40.85,0)" xlink:href="#aX"/><use transform="matrix(0.05,0,0,0.05,45.85,0)" xlink:href="#bo"/><use transform="matrix(0.05,0,0,0.05,50.85,0)" xlink:href="#bp"/></g><g id="L"><use transform="matrix(0.05,0,0,0.05,0,0)" xlink:href="#aV"/><use transform="matrix(0.05,0,0,0.05,10,0)" xlink:href="#bi"/><use transform="matrix(0.05,0,0,0.05,15.949999999999998,0)" xlink:href="#aY"/><use transform="matrix(0.05,0,0,0.05,24.95,0)" xlink:href="#aX"/><use transform="matrix(0.05,0,0,0.05,29.950000000000003,0)" xlink:href="#aV"/><use transform="matrix(0.05,0,0,0.05,39.95,0)" xlink:href="#bb"/><use transform="matrix(0.05,0,0,0.05,43.900000000000006,0)" xlink:href="#bb"/><use transform="matrix(0.05,0,0,0.05,47.85000000000001,0)" xlink:href="#aX"/></g><path fill="#333" d="M210-169c-67 3-38 105-44 169h-31v-121c0-29-5-50-35-48C34-165 62-65 56 0H25l-1-190h30c1 10-1 24 2 32 10-44 99-50 107 0 11-21 27-35 58-36 85-2 47 119 55 194h-31v-121c0-29-5-49-35-48" id="bq"/><g id="M"><use transform="matrix(0.05,0,0,0.05,0,0)" xlink:href="#bm"/><use transform="matrix(0.05,0,0,0.05,12.950000000000001,0)" xlink:href="#aV"/><use transform="matrix(0.05,0,0,0.05,22.950000000000003,0)" xlink:href="#bq"/><use transform="matrix(0.05,0,0,0.05,37.900000000000006,0)" xlink:href="#bh"/><use transform="matrix(0.05,0,0,0.05,47.900000000000006,0)" xlink:href="#aX"/><use transform="matrix(0.05,0,0,0.05,52.900000000000006,0)" xlink:href="#aV"/><use transform="matrix(0.05,0,0,0.05,62.900000000000006,0)" xlink:href="#aY"/></g><path fill="#333" d="M86-200l42-18 12 35-44 11 32 37-32 21-26-44-26 44-32-21 33-37-44-11 12-35 42 18-3-48h38" id="br"/><use transform="matrix(0.05,0,0,0.05,0,0)" xlink:href="#br" id="N"/><path fill="#333" d="M87 75C49 33 22-17 22-94c0-76 28-126 65-167h31c-38 41-64 92-64 168S80 34 118 75H87" id="bs"/><path fill="#333" d="M33-261c38 41 65 92 65 168S71 34 33 75H2C39 34 66-17 66-93S39-220 2-261h31" id="bt"/><g id="O"><use transform="matrix(0.05,0,0,0.05,0,0)" xlink:href="#bs"/><use transform="matrix(0.05,0,0,0.05,5.95,0)" xlink:href="#bj"/><use transform="matrix(0.05,0,0,0.05,12.949999999999998,0)" xlink:href="#bt"/></g><path fill="#333" d="M108 0H70L1-190h34L89-25l56-165h34" id="bu"/><path fill="#333" d="M177-190C167-65 218 103 67 71c-23-6-38-20-44-43l32-5c15 47 100 32 89-28v-30C133-14 115 1 83 1 29 1 15-40 15-95c0-56 16-97 71-98 29-1 48 16 59 35 1-10 0-23 2-32h30zM94-22c36 0 50-32 50-73 0-42-14-75-50-75-39 0-46 34-46 75s6 73 46 73" id="bv"/><path fill="#333" d="M33 0v-38h34V0H33" id="bw"/><g id="P"><use transform="matrix(0.05,0,0,0.05,0,0)" xlink:href="#bu"/><use transform="matrix(0.05,0,0,0.05,9,0)" xlink:href="#bv"/><use transform="matrix(0.05,0,0,0.05,19,0)" xlink:href="#bb"/><use transform="matrix(0.05,0,0,0.05,22.95,0)" xlink:href="#bw"/></g><path fill="#333" d="M194 0L95-120 63-95V0H30v-248h33v124l119-124h40L117-140 236 0h-42" id="bx"/><path fill="#333" d="M115-194c53 0 69 39 70 98 0 66-23 100-70 100C84 3 66-7 56-30L54 0H23l1-261h32v101c10-23 28-34 59-34zm-8 174c40 0 45-34 45-75 0-40-5-75-45-74-42 0-51 32-51 76 0 43 10 73 51 73" id="by"/><path fill="#333" d="M16-82v-28h88v28H16" id="bz"/><g id="Q"><use transform="matrix(0.05,0,0,0.05,0,0)" xlink:href="#bx"/><use transform="matrix(0.05,0,0,0.05,12,0)" xlink:href="#aV"/><use transform="matrix(0.05,0,0,0.05,22,0)" xlink:href="#bi"/><use transform="matrix(0.05,0,0,0.05,27.950000000000003,0)" xlink:href="#by"/><use transform="matrix(0.05,0,0,0.05,37.95,0)" xlink:href="#aV"/><use transform="matrix(0.05,0,0,0.05,47.95,0)" xlink:href="#bi"/><use transform="matrix(0.05,0,0,0.05,53.900000000000006,0)" xlink:href="#bh"/><use transform="matrix(0.05,0,0,0.05,63.900000000000006,0)" xlink:href="#aY"/><use transform="matrix(0.05,0,0,0.05,72.9,0)" xlink:href="#bz"/><use transform="matrix(0.05,0,0,0.05,78.85000000000001,0)" xlink:href="#bp"/><use transform="matrix(0.05,0,0,0.05,91.80000000000001,0)" xlink:href="#bf"/><use transform="matrix(0.05,0,0,0.05,95.75000000000001,0)" xlink:href="#bg"/><use transform="matrix(0.05,0,0,0.05,105.75,0)" xlink:href="#bv"/><use transform="matrix(0.05,0,0,0.05,115.75,0)" xlink:href="#bi"/><use transform="matrix(0.05,0,0,0.05,121.7,0)" xlink:href="#bg"/><use transform="matrix(0.05,0,0,0.05,131.70000000000002,0)" xlink:href="#bq"/><use transform="matrix(0.05,0,0,0.05,146.65,0)" xlink:href="#bq"/></g><g id="R"><use transform="matrix(0.05,0,0,0.05,0,0)" xlink:href="#bl"/><use transform="matrix(0.05,0,0,0.05,5,0)" xlink:href="#bf"/><use transform="matrix(0.05,0,0,0.05,8.95,0)" xlink:href="#bb"/><use transform="matrix(0.05,0,0,0.05,12.899999999999999,0)" xlink:href="#aX"/><use transform="matrix(0.05,0,0,0.05,17.9,0)" xlink:href="#aV"/><use transform="matrix(0.05,0,0,0.05,27.899999999999995,0)" xlink:href="#bi"/><use transform="matrix(0.05,0,0,0.05,33.85,0)" xlink:href="#aX"/></g><path fill="#333" d="M232-93c-1 65-40 97-104 97C67 4 28-28 28-90v-158h33c8 89-33 224 67 224 102 0 64-133 71-224h33v155" id="bA"/><path fill="#333" d="M68-38c1 34 0 65-14 84H32c9-13 17-26 17-46H33v-38h35" id="bB"/><g id="S"><use transform="matrix(0.05,0,0,0.05,0,0)" xlink:href="#bA"/><use transform="matrix(0.05,0,0,0.05,12.950000000000001,0)" xlink:href="#aW"/><use transform="matrix(0.05,0,0,0.05,22.950000000000003,0)" xlink:href="#bf"/><use transform="matrix(0.05,0,0,0.05,26.900000000000002,0)" xlink:href="#aX"/><use transform="matrix(0.05,0,0,0.05,31.900000000000002,0)" xlink:href="#aY"/><use transform="matrix(0.05,0,0,0.05,40.900000000000006,0)" xlink:href="#bB"/></g><g id="T"><use transform="matrix(0.05,0,0,0.05,0,0)" xlink:href="#bg"/><use transform="matrix(0.05,0,0,0.05,10,0)" xlink:href="#be"/><use transform="matrix(0.05,0,0,0.05,20,0)" xlink:href="#bl"/></g><path fill="#333" d="M85-194c31 0 48 13 60 33l-1-100h32l1 261h-30c-2-10 0-23-3-31C134-8 116 4 85 4 32 4 16-35 15-94c0-66 23-100 70-100zm9 24c-40 0-46 34-46 75 0 40 6 74 45 74 42 0 51-32 51-76 0-42-9-74-50-73" id="bC"/><g id="U"><use transform="matrix(0.05,0,0,0.05,0,0)" xlink:href="#bC"/><use transform="matrix(0.05,0,0,0.05,10,0)" xlink:href="#bf"/><use transform="matrix(0.05,0,0,0.05,13.949999999999998,0)" xlink:href="#aV"/></g><g id="V"><use transform="matrix(0.05,0,0,0.05,0,0)" xlink:href="#bn"/><use transform="matrix(0.05,0,0,0.05,12.950000000000001,0)" xlink:href="#bb"/><use transform="matrix(0.05,0,0,0.05,16.900000000000002,0)" xlink:href="#bf"/><use transform="matrix(0.05,0,0,0.05,20.85,0)" xlink:href="#aV"/><use transform="matrix(0.05,0,0,0.05,30.85,0)" xlink:href="#aW"/><use transform="matrix(0.05,0,0,0.05,40.85,0)" xlink:href="#aX"/><use transform="matrix(0.05,0,0,0.05,45.85,0)" xlink:href="#bo"/><use transform="matrix(0.05,0,0,0.05,50.85,0)" xlink:href="#bp"/></g><path fill="#333" d="M209 0H11v-25l151-195H24v-28h176v25L50-27h159V0" id="bD"/><g id="W"><use transform="matrix(0.05,0,0,0.05,0,0)" xlink:href="#bD"/><use transform="matrix(0.05,0,0,0.05,10.950000000000001,0)" xlink:href="#be"/><use transform="matrix(0.05,0,0,0.05,20.950000000000003,0)" xlink:href="#bv"/><use transform="matrix(0.05,0,0,0.05,30.950000000000003,0)" xlink:href="#bi"/><use transform="matrix(0.05,0,0,0.05,36.900000000000006,0)" xlink:href="#bf"/><use transform="matrix(0.05,0,0,0.05,40.85000000000001,0)" xlink:href="#bl"/><use transform="matrix(0.05,0,0,0.05,45.50000000000001,0)" xlink:href="#bl"/></g><g id="X"><use transform="matrix(0.05,0,0,0.05,0,0)" xlink:href="#ba"/><use transform="matrix(0.05,0,0,0.05,10,0)" xlink:href="#bg"/><use transform="matrix(0.05,0,0,0.05,20,0)" xlink:href="#aX"/></g><path fill="#fff" d="M24 0v-248h52v208h133V0H24" id="bE"/><path fill="#fff" d="M140-251c80 0 125 45 125 126S219 4 139 4C58 4 15-44 15-125s44-126 125-126zm-1 214c52 0 73-35 73-88 0-50-21-86-72-86-52 0-73 35-73 86s22 88 72 88" id="bF"/><path fill="#fff" d="M67-125c0 54 23 88 75 88 28 0 53-7 68-21v-34h-60v-39h108v91C232-14 192 4 140 4 58 4 20-42 15-125 8-236 126-280 215-234c19 10 29 26 37 47l-47 15c-11-23-29-39-63-39-53 1-75 33-75 86" id="bG"/><path fill="#fff" d="M24 0v-248h52V0H24" id="bH"/><path fill="#fff" d="M175 0L67-191c6 58 2 128 3 191H24v-248h59L193-55c-6-58-2-129-3-193h46V0h-61" id="bI"/><g id="Y"><use transform="matrix(0.05,0,0,0.05,0,0)" xlink:href="#bE"/><use transform="matrix(0.05,0,0,0.05,10.950000000000001,0)" xlink:href="#bF"/><use transform="matrix(0.05,0,0,0.05,24.950000000000003,0)" xlink:href="#bG"/><use transform="matrix(0.05,0,0,0.05,38.95,0)" xlink:href="#bH"/><use transform="matrix(0.05,0,0,0.05,43.95,0)" xlink:href="#bI"/></g><path fill="#fff" d="M199 0l-22-63H83L61 0H9l90-248h61L250 0h-51zm-33-102l-36-108c-10 38-24 72-36 108h72" id="bJ"/><path fill="#fff" d="M195 0l-88-114-31 24V0H24v-248h52v113l112-113h60L142-143 257 0h-62" id="bK"/><path fill="#fff" d="M136-208V0H84v-208H4v-40h212v40h-80" id="bL"/><g id="Z"><use transform="matrix(0.05,0,0,0.05,0,0)" xlink:href="#bJ"/><use transform="matrix(0.05,0,0,0.05,12.950000000000001,0)" xlink:href="#bK"/><use transform="matrix(0.05,0,0,0.05,25.900000000000002,0)" xlink:href="#bL"/><use transform="matrix(0.05,0,0,0.05,36.85,0)" xlink:href="#bH"/><use transform="matrix(0.05,0,0,0.05,41.85,0)" xlink:href="#bF"/><use transform="matrix(0.05,0,0,0.05,55.85,0)" xlink:href="#bI"/></g></defs></g></svg>