<svg xmlns="http://www.w3.org/2000/svg" xmlns:xlink="http://www.w3.org/1999/xlink" width="1668" height="1711"><g transform="translate(20 20)"><path d="M0 0h1760v1360H0z" fill="#fff"/><path d="M1440 5c0-2.76 2.24-5 5-5h178c2.76 0 5 2.24 5 5v110c0 2.76-2.24 5-5 5h-178c-2.76 0-5-2.24-5-5z" stroke="#666" stroke-width="2" fill="#a3d977"/><use xlink:href="#a" transform="matrix(1,0,0,1,1440,0) translate(15.901234567901227 51.72222222222222)"/><use xlink:href="#b" transform="matrix(1,0,0,1,1440,0) translate(32.44444444444444 73.05555555555556)"/><path d="M1170 5c0-2.76 2.24-5 5-5h178c2.76 0 5 2.24 5 5v110c0 2.76-2.24 5-5 5h-178c-2.76 0-5-2.24-5-5z" stroke="#666" stroke-width="2" fill="#ffdf71"/><use xlink:href="#c" transform="matrix(1,0,0,1,1170,0) translate(73.33333333333333 51.72222222222222)"/><use xlink:href="#d" transform="matrix(1,0,0,1,1170,0) translate(32.44444444444444 73.05555555555556)"/><path d="M0 5c0-2.76 2.24-5 5-5h178c2.76 0 5 2.24 5 5v110c0 2.76-2.24 5-5 5H5c-2.76 0-5-2.24-5-5z" stroke="#666" stroke-width="2" fill="#83bbe5"/><use xlink:href="#e" transform="matrix(1,0,0,1,0,0) translate(62.96296296296296 62.97222222222222)"/><path d="M240 5c0-2.76 2.24-5 5-5h178c2.76 0 5 2.24 5 5v110c0 2.76-2.24 5-5 5H245c-2.76 0-5-2.24-5-5z" stroke="#666" stroke-width="2" fill="#ff8f80"/><use xlink:href="#c" transform="matrix(1,0,0,1,239.99999999999977,0) translate(73.33333333333333 51.72222222222222)"/><use xlink:href="#f" transform="matrix(1,0,0,1,239.99999999999977,0) translate(56.04938271604939 73.05555555555556)"/><path d="M94 120v1560" fill="none"/><path d="M94 120v20m0 20v40m0 20v40m0 20v40m0 20v40m0 20v40m0 20v40m0 20v40m0 20v40m0 20v40m0 20v40m0 20v40m0 20v40m0 20v40m0 20v40m0 20v40m0 20v40m0 20v40m0 20v40m0 20v40m0 20v40m0 20v40m0 20v40m0 20v40m0 20v40m0 20v40m0 20v20" stroke="#999" stroke-width="2" fill="none"/><path d="M334 120v1560" fill="none"/><path d="M334 120v20m0 20v40m0 20v40m0 20v40m0 20v40m0 20v40m0 20v40m0 20v40m0 20v40m0 20v40m0 20v40m0 20v40m0 20v40m0 20v40m0 20v40m0 20v40m0 20v40m0 20v40m0 20v40m0 20v40m0 20v40m0 20v40m0 20v40m0 20v40m0 20v40m0 20v40m0 20v20" stroke="#999" stroke-width="2" fill="none"/><path d="M1264 120v1560" fill="none"/><path d="M1264 120v20m0 20v40m0 20v40m0 20v40m0 20v40m0 20v40m0 20v40m0 20v40m0 20v40m0 20v40m0 20v40m0 20v40m0 20v40m0 20v40m0 20v40m0 20v40m0 20v40m0 20v40m0 20v40m0 20v40m0 20v40m0 20v40m0 20v40m0 20v40m0 20v40m0 20v40m0 20v20" stroke="#999" stroke-width="2" fill="none"/><path d="M1534 120v1560" fill="none"/><path d="M1534 120v20m0 20v40m0 20v40m0 20v40m0 20v40m0 20v40m0 20v40m0 20v40m0 20v40m0 20v40m0 20v40m0 20v40m0 20v40m0 20v40m0 20v40m0 20v40m0 20v40m0 20v40m0 20v40m0 20v40m0 20v40m0 20v40m0 20v40m0 20v40m0 20v40m0 20v40m0 20v20" stroke="#999" stroke-width="2" fill="none"/><path d="M24 165c0-2.76 2.24-5 5-5h130c2.76 0 5 2.24 5 5v90c0 2.76-2.24 5-5 5H29c-2.76 0-5-2.24-5-5z" stroke="#666" stroke-width="2" fill="#c1e4f7"/><use xlink:href="#g" transform="matrix(1,0,0,1,24,160) translate(22.604999999999997 42.525)"/><use xlink:href="#h" transform="matrix(1,0,0,1,24,160) translate(34.529999999999994 64.125)"/><path d="M24 285c0-2.76 2.24-5 5-5h130c2.76 0 5 2.24 5 5v90c0 2.76-2.24 5-5 5H29c-2.76 0-5-2.24-5-5z" stroke="#666" stroke-width="2" fill="#c1e4f7"/><use xlink:href="#i" transform="matrix(1,0,0,1,24,280) translate(45.029999999999994 42.525)"/><use xlink:href="#j" transform="matrix(1,0,0,1,24,280) translate(30.029999999999994 64.125)"/><path d="M164 330h170" stroke="#999" stroke-width="2" fill="none"/><path d="M334 330l-14.27 4.64v-9.28z" stroke="#999" stroke-width="2" fill="#999"/><use xlink:href="#k" transform="matrix(1,0,0,1,173.76666666666665,282.8) translate(19.930000000000007 14.4)"/><use xlink:href="#l" transform="matrix(1,0,0,1,173.76666666666665,282.8) translate(0.005000000000002558 36)"/><path d="M264 645c0-2.76 2.24-5 5-5h130c2.76 0 5 2.24 5 5v270c0 2.76-2.24 5-5 5H269c-2.76 0-5-2.24-5-5z" stroke="#666" stroke-width="2" fill="#ffdede"/><use xlink:href="#i" transform="matrix(1,0,0,1,264.0000000000002,640) translate(45.029999999999994 132.525)"/><use xlink:href="#m" transform="matrix(1,0,0,1,264.0000000000002,640) translate(23.179999999999993 154.125)"/><path d="M415 765c0-2.76 2.24-5 5-5h206c2.76 0 6.58 1.58 8.54 3.54l24.92 24.92c1.96 1.96 3.54 5.78 3.54 8.54v118c0 2.76-2.24 5-5 5H420c-2.76 0-5-2.24-5-5z" stroke="#666" stroke-width="2" fill="#ffdede"/><path d="M632.2 764.85c-.66-2.68.38-3.27 2.34-1.3l24.92 24.9c1.96 1.97 1.37 3-1.3 2.34l-15.9-4c-2.7-.66-5.4-3.37-6.07-6.05z" stroke="#666" stroke-width="2" fill="#b39b9b"/><use xlink:href="#n" transform="matrix(1,0,0,1,415,760) translate(86.85067901234568 19.232222222222223)"/><use xlink:href="#o" transform="matrix(1,0,0,1,415,760) translate(5.01 40.565555555555555)"/><use xlink:href="#p" transform="matrix(1,0,0,1,415,760) translate(50.39271604938272 40.565555555555555)"/><use xlink:href="#q" transform="matrix(1,0,0,1,415,760) translate(5.01 61.89888888888889)"/><use xlink:href="#r" transform="matrix(1,0,0,1,415,760) translate(5.01 83.23222222222223)"/><use xlink:href="#s" transform="matrix(1,0,0,1,415,760) translate(57.3062962962963 83.23222222222223)"/><use xlink:href="#t" transform="matrix(1,0,0,1,415,760) translate(5.01 104.56555555555556)"/><use xlink:href="#u" transform="matrix(1,0,0,1,415,760) translate(24.763086419753087 104.56555555555556)"/><use xlink:href="#v" transform="matrix(1,0,0,1,415,760) translate(5.01 125.8988888888889)"/><use xlink:href="#w" transform="matrix(1,0,0,1,415,760) translate(24.763086419753087 125.8988888888889)"/><use xlink:href="#x" transform="matrix(1,0,0,1,415,760) translate(7.01 147.23222222222225)"/><path d="M264 945c0-2.76 2.24-5 5-5h130c2.76 0 5 2.24 5 5v90c0 2.76-2.24 5-5 5H269c-2.76 0-5-2.24-5-5z" stroke="#666" stroke-width="2" fill="#ffdede"/><use xlink:href="#i" transform="matrix(1,0,0,1,264,940.0000000000001) translate(45.029999999999994 42.525)"/><use xlink:href="#j" transform="matrix(1,0,0,1,264,940.0000000000001) translate(30.029999999999994 64.125)"/><path d="M404 990h860" stroke="#999" stroke-width="2" fill="none"/><path d="M1264 990l-14.27 4.64v-9.28z" stroke="#999" stroke-width="2" fill="#999"/><use xlink:href="#k" transform="matrix(1,0,0,1,415.1,942.8000000000001) translate(19.930000000000007 14.4)"/><use xlink:href="#l" transform="matrix(1,0,0,1,415.1,942.8000000000001) translate(0.005000000000002558 36)"/><path d="M1194 1045c0-2.76 2.24-5 5-5h130c2.76 0 5 2.24 5 5v90c0 2.76-2.24 5-5 5h-130c-2.76 0-5-2.24-5-5z" stroke="#666" stroke-width="2" fill="#ffeca9"/><use xlink:href="#y" transform="matrix(1,0,0,1,1194,1040) translate(13.104999999999992 55.025)"/><path d="M1463 1045c0-2.76 2.24-5 5-5h130c2.76 0 5 2.24 5 5v90c0 2.76-2.24 5-5 5h-130c-2.76 0-5-2.24-5-5z" stroke="#666" stroke-width="2" fill="#c7e8ac"/><use xlink:href="#y" transform="matrix(1,0,0,1,1463,1040) translate(13.104999999999992 55.025)"/><path d="M1335 1052h127" stroke="#999" stroke-width="2" fill="none"/><path d="M1335 1053h-1v-2h1zM1462 1052l-14.27 4.64v-9.28z" fill="#999"/><path d="M1463 1051.27v1.46l-16.27 5.28v-12zm-14.27 4l10.03-3.27-10.03-3.26z" fill="#999"/><use xlink:href="#z" transform="matrix(1,0,0,1,1345.55,1055.9999999999998) translate(29.330000000000005 14.4)"/><use xlink:href="#A" transform="matrix(1,0,0,1,1345.55,1055.9999999999998) translate(0.005000000000002558 36)"/><use xlink:href="#B" transform="matrix(1,0,0,1,1345.55,1055.9999999999998) translate(18.705000000000005 57.6)"/><path d="M1194 1165c0-2.76 2.24-5 5-5h130c2.76 0 5 2.24 5 5v50c0 2.76-2.24 5-5 5h-130c-2.76 0-5-2.24-5-5z" stroke="#666" stroke-width="2" fill="#ffeca9"/><use xlink:href="#C" transform="matrix(1,0,0,1,1194,1160) translate(22.10499999999999 33.15)"/><path d="M1464 1165c0-2.76 2.24-5 5-5h130c2.76 0 5 2.24 5 5v50c0 2.76-2.24 5-5 5h-130c-2.76 0-5-2.24-5-5z" stroke="#666" stroke-width="2" fill="#c7e8ac"/><use xlink:href="#C" transform="matrix(1,0,0,1,1464,1160) translate(22.10499999999999 33.15)"/><path d="M1335 1172h128" stroke="#999" stroke-width="2" fill="none"/><path d="M1335 1173h-1v-2h1zM1463 1172l-14.27 4.64v-9.28z" fill="#999"/><path d="M1464 1171.27v1.46l-16.27 5.28v-12zm-14.27 4l10.03-3.27-10.03-3.26z" fill="#999"/><path fill="#fff" d="M1394 1161.2h10v21.6h-10z"/><use xlink:href="#D" transform="matrix(1,0,0,1,1394,1161.2) translate(0.004999999999999893 14.4)"/><path d="M1463 1208h-128" stroke="#999" stroke-width="2" fill="none"/><path d="M1464 1209h-1v-2h1zM1349.27 1212.64L1335 1208l14.27-4.64z" fill="#999"/><path d="M1350.27 1214l-16.27-5.27v-1.46l16.27-5.28zm-12.03-6l10.03 3.26v-6.52z" fill="#999"/><path fill="#fff" d="M1394 1197.2h10v21.6h-10z"/><use xlink:href="#D" transform="matrix(1,0,0,1,1394,1197.2) translate(0.004999999999999893 14.4)"/><path d="M1195.33 1238.33c0-2.76 2.24-5 5-5h130c2.76 0 5 2.24 5 5v90c0 2.76-2.24 5-5 5h-130c-2.76 0-5-2.24-5-5z" stroke="#666" stroke-width="2" fill="#ffeca9"/><use xlink:href="#i" transform="matrix(1,0,0,1,1195.333333333333,1233.3333333333335) translate(45.029999999999994 42.525)"/><use xlink:href="#j" transform="matrix(1,0,0,1,1195.333333333333,1233.3333333333335) translate(30.029999999999994 64.125)"/><path d="M1195.33 1283.33H334" stroke="#999" stroke-width="2" fill="none"/><path d="M334 1283.33l14.27-4.63v9.27z" stroke="#999" stroke-width="2" fill="#999"/><use xlink:href="#k" transform="matrix(1,0,0,1,1127.3833333333332,1236.1333333333337) translate(0.9800000000000004 14.4)"/><use xlink:href="#E" transform="matrix(1,0,0,1,1127.3833333333332,1236.1333333333337) translate(0.004999999999999005 36)"/><path d="M264 1338.33c0-2.76 2.24-5 5-5h130c2.76 0 5 2.24 5 5v110c0 2.76-2.24 5-5 5H269c-2.76 0-5-2.24-5-5z" stroke="#666" stroke-width="2" fill="#ffdede"/><use xlink:href="#F" transform="matrix(1,0,0,1,264,1333.3333333333335) translate(30.07999999999999 40.65)"/><use xlink:href="#G" transform="matrix(1,0,0,1,264,1333.3333333333335) translate(18.054999999999993 62.25)"/><use xlink:href="#H" transform="matrix(1,0,0,1,264,1333.3333333333335) translate(92.95500000000001 62.25)"/><use xlink:href="#I" transform="matrix(1,0,0,1,264,1333.3333333333335) translate(36.529999999999994 83.85000000000001)"/><path d="M775.33 1338.33c0-2.76 2.24-5 5-5h106.8c2.76 0 6.6 1.6 8.54 3.54L917.8 1359c1.95 1.95 3.53 5.77 3.53 8.53v148.8c0 2.76-2.24 5-5 5h-136c-2.76 0-5-2.24-5-5z" stroke="#666" stroke-width="2" fill="#f0f0f0"/><path d="M893.35 1338.18c-.67-2.67.37-3.26 2.32-1.3L917.8 1359c1.95 1.95 1.36 3-1.32 2.32l-13.66-3.4c-2.67-.68-5.4-3.4-6.06-6.08z" stroke="#666" stroke-width="2" fill="#a8a8a8"/><use xlink:href="#n" transform="matrix(1,0,0,1,775.3333333333335,1333.3333333333335) translate(37.35067901234568 20.09722222222222)"/><use xlink:href="#J" transform="matrix(1,0,0,1,775.3333333333335,1333.3333333333335) translate(5.01 41.43055555555556)"/><use xlink:href="#K" transform="matrix(1,0,0,1,775.3333333333335,1333.3333333333335) translate(5.01 62.76388888888889)"/><use xlink:href="#L" transform="matrix(1,0,0,1,775.3333333333335,1333.3333333333335) translate(97.01 62.76388888888889)"/><use xlink:href="#M" transform="matrix(1,0,0,1,775.3333333333335,1333.3333333333335) translate(5.01 84.09722222222223)"/><use xlink:href="#N" transform="matrix(1,0,0,1,775.3333333333335,1333.3333333333335) translate(5.01 105.43055555555557)"/><use xlink:href="#O" transform="matrix(1,0,0,1,775.3333333333335,1333.3333333333335) translate(5.01 126.76388888888891)"/><use xlink:href="#P" transform="matrix(1,0,0,1,775.3333333333335,1333.3333333333335) translate(33.553209876543214 126.76388888888891)"/><use xlink:href="#Q" transform="matrix(1,0,0,1,775.3333333333335,1333.3333333333335) translate(73.01 126.76388888888891)"/><use xlink:href="#R" transform="matrix(1,0,0,1,775.3333333333335,1333.3333333333335) translate(5.01 148.09722222222226)"/><use xlink:href="#S" transform="matrix(1,0,0,1,775.3333333333335,1333.3333333333335) translate(5.01 169.4305555555556)"/><path d="M1353 1241c0-2.76 2.24-5 5-5h221c2.76 0 6.58 1.58 8.54 3.54l12.92 12.92c1.96 1.96 3.54 5.78 3.54 8.54v70c0 2.76-2.24 5-5 5h-241c-2.76 0-5-2.24-5-5z" stroke="#666" stroke-width="2" fill="#ffeca9"/><path d="M1585.2 1240.85c-.66-2.68.38-3.27 2.34-1.3l12.92 12.9c1.96 1.97 1.37 3-1.3 2.34l-6.3-1.6c-2.7-.66-5.4-3.37-6.07-6.05z" stroke="#666" stroke-width="2" fill="#b3a576"/><use xlink:href="#n" transform="matrix(1,0,0,1,1353,1236) translate(94.35067901234568 19.232222222222223)"/><use xlink:href="#o" transform="matrix(1,0,0,1,1353,1236) translate(5.01 40.565555555555555)"/><use xlink:href="#T" transform="matrix(1,0,0,1,1353,1236) translate(50.39271604938272 40.565555555555555)"/><use xlink:href="#U" transform="matrix(1,0,0,1,1353,1236) translate(155.9235802469136 40.565555555555555)"/><use xlink:href="#V" transform="matrix(1,0,0,1,1353,1236) translate(5.01 61.89888888888889)"/><use xlink:href="#W" transform="matrix(1,0,0,1,1353,1236) translate(5.01 83.23222222222223)"/><path d="M600 5c0-2.76 2.24-5 5-5h178c2.76 0 5 2.24 5 5v110c0 2.76-2.24 5-5 5H605c-2.76 0-5-2.24-5-5z" stroke="#666" stroke-width="2" fill="#ccc"/><use xlink:href="#X" transform="matrix(1,0,0,1,600,0) translate(15.901234567901227 51.72222222222222)"/><use xlink:href="#Y" transform="matrix(1,0,0,1,600,0) translate(16.222222222222214 73.05555555555556)"/><use xlink:href="#Z" transform="matrix(1,0,0,1,600,0) translate(85.1604938271605 73.05555555555556)"/><path d="M694 120v1560" fill="none"/><path d="M694 120v20m0 20v40m0 20v40m0 20v40m0 20v40m0 20v40m0 20v40m0 20v40m0 20v40m0 20v40m0 20v40m0 20v40m0 20v40m0 20v40m0 20v40m0 20v40m0 20v40m0 20v40m0 20v40m0 20v40m0 20v40m0 20v40m0 20v40m0 20v40m0 20v40m0 20v40m0 20v20" stroke="#999" stroke-width="2" fill="none"/><path d="M624 645.67c0-2.76 2.24-5 5-5h130c2.76 0 5 2.24 5 5V735c0 2.76-2.24 5-5 5H629c-2.76 0-5-2.24-5-5z" stroke="#666" stroke-width="2" fill="#f0f0f0"/><use xlink:href="#i" transform="matrix(1,0,0,1,624.0000000000005,640.6666666666666) translate(45.029999999999994 42.525)"/><use xlink:href="#m" transform="matrix(1,0,0,1,624.0000000000005,640.6666666666666) translate(23.179999999999993 64.125)"/><path d="M405 657.78h218" stroke="#999" stroke-width="2" fill="none"/><path d="M405 658.78h-1v-2h1zM623 657.78l-14.27 4.63v-9.26z" fill="#999"/><path d="M624 657.05v1.45l-16.27 5.3v-12.03zm-14.27 4l10.03-3.27-10.03-3.26z" fill="#999"/><use xlink:href="#z" transform="matrix(1,0,0,1,461.05000000000035,661.7777777777776) translate(29.330000000000005 14.4)"/><use xlink:href="#A" transform="matrix(1,0,0,1,461.05000000000035,661.7777777777776) translate(0.005000000000002558 36)"/><use xlink:href="#B" transform="matrix(1,0,0,1,461.05000000000035,661.7777777777776) translate(18.705000000000005 57.6)"/><path d="M623 725.33H405" stroke="#999" stroke-width="2" fill="none"/><path d="M624 726.33h-1v-2h1zM419.27 729.97L405 725.33l14.27-4.63z" fill="#999"/><path d="M420.27 731.35l-16.27-5.3v-1.44l16.27-5.28zm-12.03-6.02l10.03 3.26v-6.53z" fill="#999"/><path d="M772 646c0-2.76 2.24-5 5-5h118c2.76 0 6.58 1.58 8.54 3.54l12.92 12.92c1.96 1.96 3.54 5.78 3.54 8.54v70c0 2.76-2.24 5-5 5H777c-2.76 0-5-2.24-5-5z" stroke="#666" stroke-width="2" fill="#f0f0f0"/><path d="M901.2 645.85c-.66-2.68.38-3.27 2.34-1.3l12.92 12.9c1.96 1.97 1.37 3-1.3 2.34l-6.3-1.6c-2.7-.66-5.4-3.37-6.07-6.05z" stroke="#666" stroke-width="2" fill="#a8a8a8"/><use xlink:href="#n" transform="matrix(1,0,0,1,772.0000000000005,641) translate(42.85067901234567 19.232222222222223)"/><use xlink:href="#aa" transform="matrix(1,0,0,1,772.0000000000005,641) translate(5.01 40.565555555555555)"/><use xlink:href="#ab" transform="matrix(1,0,0,1,772.0000000000005,641) translate(96.66432098765434 40.565555555555555)"/><use xlink:href="#ac" transform="matrix(1,0,0,1,772.0000000000005,641) translate(5.01 61.89888888888889)"/><use xlink:href="#Q" transform="matrix(1,0,0,1,772.0000000000005,641) translate(97.01 61.89888888888889)"/><use xlink:href="#ad" transform="matrix(1,0,0,1,772.0000000000005,641) translate(5.01 83.23222222222223)"/><path d="M1462 1122.67h-127" stroke="#999" stroke-width="2" fill="none"/><path d="M1463 1123.67h-1v-2h1zM1349.27 1127.3l-14.27-4.63 14.27-4.64z" fill="#999"/><path d="M1350.27 1128.68l-16.27-5.3v-1.44l16.27-5.3zm-12.03-6l10.03 3.25v-6.52z" fill="#999"/><path d="M624 1338.33c0-2.76 2.24-5 5-5h130c2.76 0 5 2.24 5 5v110c0 2.76-2.24 5-5 5H629c-2.76 0-5-2.24-5-5z" stroke="#666" stroke-width="2" fill="#f0f0f0"/><g><use xlink:href="#F" transform="matrix(1,0,0,1,624.0000000000002,1333.3333333333335) translate(30.07999999999999 40.65)"/><use xlink:href="#G" transform="matrix(1,0,0,1,624.0000000000002,1333.3333333333335) translate(18.054999999999993 62.25)"/><use xlink:href="#H" transform="matrix(1,0,0,1,624.0000000000002,1333.3333333333335) translate(92.95500000000001 62.25)"/><use xlink:href="#I" transform="matrix(1,0,0,1,624.0000000000002,1333.3333333333335) translate(36.529999999999994 83.85000000000001)"/></g><path d="M405 1361.33h218" stroke="#999" stroke-width="2" fill="none"/><path d="M405 1362.33h-1v-2h1zM623 1361.33l-14.27 4.64v-9.27z" fill="#999"/><path d="M624 1360.6v1.46l-16.27 5.3v-12.04zm-14.27 4l10.03-3.27-10.03-3.26z" fill="#999"/><g><use xlink:href="#z" transform="matrix(1,0,0,1,461.0500000000001,1365.3333333333333) translate(29.330000000000005 14.4)"/><use xlink:href="#A" transform="matrix(1,0,0,1,461.0500000000001,1365.3333333333333) translate(0.005000000000002558 36)"/><use xlink:href="#B" transform="matrix(1,0,0,1,461.0500000000001,1365.3333333333333) translate(18.705000000000005 57.6)"/></g><path d="M623 1433.33H405" stroke="#999" stroke-width="2" fill="none"/><path d="M624 1434.33h-1v-2h1zM419.27 1437.97l-14.27-4.64 14.27-4.63z" fill="#999"/><path d="M420.27 1439.35l-16.27-5.3v-1.44l16.27-5.28zm-12.03-6.02l10.03 3.26v-6.53z" fill="#999"/><path d="M264 1475c0-2.76 2.24-5 5-5h130c2.76 0 5 2.24 5 5v90c0 2.76-2.24 5-5 5H269c-2.76 0-5-2.24-5-5z" stroke="#666" stroke-width="2" fill="#ffdede"/><g><use xlink:href="#i" transform="matrix(1,0,0,1,264,1470) translate(45.029999999999994 42.525)"/><use xlink:href="#ae" transform="matrix(1,0,0,1,264,1470) translate(21.57999999999999 64.125)"/></g><path d="M264 1520H94" stroke="#999" stroke-width="2" fill="none"/><path d="M94 1520l14.27-4.64v9.28z" stroke="#999" stroke-width="2" fill="#999"/><path d="M880 5c0-2.76 2.24-5 5-5h178c2.76 0 5 2.24 5 5v110c0 2.76-2.24 5-5 5H885c-2.76 0-5-2.24-5-5z" stroke="#666" stroke-width="2" fill="#ffc374"/><g><use xlink:href="#af" transform="matrix(1,0,0,1,880,0) translate(54.51851851851851 51.72222222222222)"/><use xlink:href="#ag" transform="matrix(1,0,0,1,880,0) translate(48.197530864197525 73.05555555555556)"/></g><path d="M264 385c0-2.76 2.24-5 5-5h130c2.76 0 5 2.24 5 5v231c0 2.76-2.24 5-5 5H269c-2.76 0-5-2.24-5-5z" stroke="#666" stroke-width="2" fill="#ffdede"/><g><use xlink:href="#F" transform="matrix(1,0,0,1,264,380) translate(30.07999999999999 112.30625)"/><use xlink:href="#ah" transform="matrix(1,0,0,1,264,380) translate(24.029999999999994 133.90625)"/></g><path d="M974 120v1560" fill="none"/><path d="M974 120v20m0 20v40m0 20v40m0 20v40m0 20v40m0 20v40m0 20v40m0 20v40m0 20v40m0 20v40m0 20v40m0 20v40m0 20v40m0 20v40m0 20v40m0 20v40m0 20v40m0 20v40m0 20v40m0 20v40m0 20v40m0 20v40m0 20v40m0 20v40m0 20v40m0 20v40m0 20v20" stroke="#999" stroke-width="2" fill="none"/><path d="M900 505c0-2.76 2.24-5 5-5h130c2.76 0 5 2.24 5 5v111c0 2.76-2.24 5-5 5H905c-2.76 0-5-2.24-5-5z" stroke="#666" stroke-width="2" fill="#ffdba9"/><g><use xlink:href="#ai" transform="matrix(1,0,0,1,900,500) translate(19.58 40.86875)"/><use xlink:href="#aj" transform="matrix(1,0,0,1,900,500) translate(74.58 40.86875)"/><use xlink:href="#ak" transform="matrix(1,0,0,1,900,500) translate(23.07999999999999 62.46875)"/><use xlink:href="#al" transform="matrix(1,0,0,1,900,500) translate(64.03 62.46875)"/><use xlink:href="#am" transform="matrix(1,0,0,1,900,500) translate(30.055 84.06875000000001)"/><use xlink:href="#an" transform="matrix(1,0,0,1,900,500) translate(86.005 84.06875000000001)"/></g><path d="M1050 505c0-2.76 2.24-5 5-5h144.2c2.76 0 6.58 1.58 8.54 3.54l24.72 24.72c1.96 1.96 3.54 5.78 3.54 8.54V654c0 2.76-2.24 5-5 5h-176c-2.76 0-5-2.24-5-5z" stroke="#666" stroke-width="2" fill="#ffdba9"/><path d="M1205.4 504.85c-.66-2.68.38-3.27 2.34-1.3l24.72 24.7c1.96 1.97 1.37 3-1.3 2.34l-15.75-3.95c-2.67-.67-5.38-3.38-6.05-6.06z" stroke="#666" stroke-width="2" fill="#b39976"/><g><use xlink:href="#n" transform="matrix(1,0,0,1,1050,500) translate(56.35067901234567 19.232222222222223)"/><use xlink:href="#ao" transform="matrix(1,0,0,1,1050,500) translate(5.01 40.565555555555555)"/><use xlink:href="#ap" transform="matrix(1,0,0,1,1050,500) translate(28.713703703703708 40.565555555555555)"/><use xlink:href="#aq" transform="matrix(1,0,0,1,1050,500) translate(57.3062962962963 40.565555555555555)"/><use xlink:href="#ar" transform="matrix(1,0,0,1,1050,500) translate(5.01 61.89888888888889)"/><use xlink:href="#as" transform="matrix(1,0,0,1,1050,500) translate(77.01 61.89888888888889)"/><use xlink:href="#at" transform="matrix(1,0,0,1,1050,500) translate(125.35567901234569 61.89888888888889)"/><use xlink:href="#au" transform="matrix(1,0,0,1,1050,500) translate(5.01 83.23222222222223)"/><use xlink:href="#av" transform="matrix(1,0,0,1,1050,500) translate(47.47913580246914 83.23222222222223)"/><use xlink:href="#aw" transform="matrix(1,0,0,1,1050,500) translate(102.7383950617284 83.23222222222223)"/><use xlink:href="#ax" transform="matrix(1,0,0,1,1050,500) translate(5.01 104.56555555555556)"/><use xlink:href="#ay" transform="matrix(1,0,0,1,1050,500) translate(59.33098765432099 104.56555555555556)"/><use xlink:href="#az" transform="matrix(1,0,0,1,1050,500) translate(101.70135802469136 104.56555555555556)"/><use xlink:href="#av" transform="matrix(1,0,0,1,1050,500) translate(5.01 125.8988888888889)"/><use xlink:href="#aA" transform="matrix(1,0,0,1,1050,500) translate(60.269259259259265 125.8988888888889)"/><use xlink:href="#aB" transform="matrix(1,0,0,1,1050,500) translate(93.80012345679013 125.8988888888889)"/><use xlink:href="#aC" transform="matrix(1,0,0,1,1050,500) translate(130.24456790123457 125.8988888888889)"/><use xlink:href="#aD" transform="matrix(1,0,0,1,1050,500) translate(10.01 147.23222222222225)"/><use xlink:href="#aE" transform="matrix(1,0,0,1,1050,500) translate(67.1951851851852 147.23222222222225)"/></g><path d="M1463 385c0-2.76 2.24-5 5-5h130c2.76 0 5 2.24 5 5v90c0 2.76-2.24 5-5 5h-130c-2.76 0-5-2.24-5-5z" stroke="#666" stroke-width="2" fill="#c7e8ac"/><g><use xlink:href="#F" transform="matrix(1,0,0,1,1463,379.99999999999994) translate(30.07999999999999 42.525)"/><use xlink:href="#ah" transform="matrix(1,0,0,1,1463,379.99999999999994) translate(24.029999999999994 64.125)"/></g><path d="M899 595.6l-494 .1" stroke="#999" stroke-width="2" fill="none"/><path d="M900 596.6h-1v-2h1zM419.27 600.33L405 595.7l14.26-4.64z" fill="#999"/><path d="M420.27 601.7L404 596.42v-1.45l16.26-5.3zm-12.03-6l10.03 3.25v-6.52z" fill="#999"/><g><use xlink:href="#aF" transform="matrix(1,0,0,1,822.6929701871886,569.9994203608697) translate(0.004999999999999005 14.4)"/></g><path d="M900 385c0-2.76 2.24-5 5-5h130c2.76 0 5 2.24 5 5v90c0 2.76-2.24 5-5 5H905c-2.76 0-5-2.24-5-5z" stroke="#666" stroke-width="2" fill="#ffdba9"/><g><use xlink:href="#F" transform="matrix(1,0,0,1,900,379.99999999999994) translate(30.07999999999999 42.525)"/><use xlink:href="#ah" transform="matrix(1,0,0,1,900,379.99999999999994) translate(24.029999999999994 64.125)"/></g><path d="M405 400h494" stroke="#999" stroke-width="2" fill="none"/><path d="M405 401h-1v-2h1zM899 400l-14.27 4.64v-9.28z" fill="#999"/><path d="M900 399.27v1.46L883.73 406v-12zm-14.27 4l10.03-3.27-10.03-3.26z" fill="#999"/><path d="M1041 400h421" stroke="#999" stroke-width="2" fill="none"/><path d="M1041 401h-1v-2h1zM1462 400l-14.27 4.64v-9.28z" fill="#999"/><path d="M1463 399.27v1.46l-16.27 5.28v-12zm-14.27 4l10.03-3.27-10.03-3.26z" fill="#999"/><g><use xlink:href="#aG" transform="matrix(1,0,0,1,1052.9583333333333,374.3999999999999) translate(0.0049999999999954525 14.4)"/><use xlink:href="#aH" transform="matrix(1,0,0,1,1052.9583333333333,374.3999999999999) translate(65.85499999999999 14.4)"/><use xlink:href="#aI" transform="matrix(1,0,0,1,1052.9583333333333,374.3999999999999) translate(75.85499999999999 14.4)"/></g><path d="M1462 453.33h-421" stroke="#999" stroke-width="2" fill="none"/><path d="M1463 454.33h-1v-2h1zM1055.27 457.97l-14.27-4.64 14.27-4.63z" fill="#999"/><path d="M1056.27 459.35l-16.27-5.3v-1.44l16.27-5.28zm-12.03-6.02l10.03 3.26v-6.53z" fill="#999"/><g><use xlink:href="#aF" transform="matrix(1,0,0,1,1386.6916666666668,427.73333333333323) translate(0.004999999999999005 14.4)"/></g><defs><path fill="#333" d="M199 0l-22-63H83L61 0H9l90-248h61L250 0h-51zm-33-102l-36-108c-10 38-24 72-36 108h72" id="aJ"/><path fill="#333" d="M238-95c0 69-44 99-111 99C63 4 22-25 22-93v-155h51v151c-1 38 19 59 55 60 90 1 49-130 58-211h52v153" id="aK"/><path fill="#333" d="M136-208V0H84v-208H4v-40h212v40h-80" id="aL"/><path fill="#333" d="M186 0v-106H76V0H24v-248h52v99h110v-99h50V0h-50" id="aM"/><path fill="#333" d="M24 0v-248h195v40H76v63h132v40H76v65h150V0H24" id="aN"/><path fill="#333" d="M175 0L67-191c6 58 2 128 3 191H24v-248h59L193-55c-6-58-2-129-3-193h46V0h-61" id="aO"/><path fill="#333" d="M24 0v-248h52V0H24" id="aP"/><path fill="#333" d="M67-125c0 53 21 87 73 88 37 1 54-22 65-47l45 17C233-25 199 4 140 4 58 4 20-42 15-125 8-235 124-281 211-232c18 10 29 29 36 50l-46 12c-8-25-30-41-62-41-52 0-71 34-72 86" id="aQ"/><path fill="#333" d="M140-251c80 0 125 45 125 126S219 4 139 4C58 4 15-44 15-125s44-126 125-126zm-1 214c52 0 73-35 73-88 0-50-21-86-72-86-52 0-73 35-73 86s22 88 72 88" id="aR"/><g id="a"><use transform="matrix(0.04938271604938272,0,0,0.04938271604938272,0,0)" xlink:href="#aJ"/><use transform="matrix(0.04938271604938272,0,0,0.04938271604938272,12.790123456790125,0)" xlink:href="#aK"/><use transform="matrix(0.04938271604938272,0,0,0.04938271604938272,25.58024691358025,0)" xlink:href="#aL"/><use transform="matrix(0.04938271604938272,0,0,0.04938271604938272,36.39506172839506,0)" xlink:href="#aM"/><use transform="matrix(0.04938271604938272,0,0,0.04938271604938272,49.18518518518519,0)" xlink:href="#aN"/><use transform="matrix(0.04938271604938272,0,0,0.04938271604938272,61.037037037037045,0)" xlink:href="#aO"/><use transform="matrix(0.04938271604938272,0,0,0.04938271604938272,73.82716049382717,0)" xlink:href="#aL"/><use transform="matrix(0.04938271604938272,0,0,0.04938271604938272,84.64197530864197,0)" xlink:href="#aP"/><use transform="matrix(0.04938271604938272,0,0,0.04938271604938272,89.58024691358025,0)" xlink:href="#aQ"/><use transform="matrix(0.04938271604938272,0,0,0.04938271604938272,102.37037037037038,0)" xlink:href="#aJ"/><use transform="matrix(0.04938271604938272,0,0,0.04938271604938272,113.82716049382717,0)" xlink:href="#aL"/><use transform="matrix(0.04938271604938272,0,0,0.04938271604938272,124.64197530864199,0)" xlink:href="#aP"/><use transform="matrix(0.04938271604938272,0,0,0.04938271604938272,129.58024691358025,0)" xlink:href="#aR"/><use transform="matrix(0.04938271604938272,0,0,0.04938271604938272,143.40740740740742,0)" xlink:href="#aO"/></g><path fill="#333" d="M240-174c0 40-23 61-54 70L253 0h-59l-57-94H76V0H24v-248c93 4 217-23 216 74zM76-134c48-2 112 12 112-38 0-48-66-32-112-35v73" id="aS"/><path fill="#333" d="M24 0v-248h52v208h133V0H24" id="aT"/><g id="b"><use transform="matrix(0.04938271604938272,0,0,0.04938271604938272,0,0)" xlink:href="#aQ"/><use transform="matrix(0.04938271604938272,0,0,0.04938271604938272,12.790123456790125,0)" xlink:href="#aR"/><use transform="matrix(0.04938271604938272,0,0,0.04938271604938272,26.617283950617285,0)" xlink:href="#aO"/><use transform="matrix(0.04938271604938272,0,0,0.04938271604938272,39.40740740740741,0)" xlink:href="#aL"/><use transform="matrix(0.04938271604938272,0,0,0.04938271604938272,50.22222222222223,0)" xlink:href="#aS"/><use transform="matrix(0.04938271604938272,0,0,0.04938271604938272,63.01234567901235,0)" xlink:href="#aR"/><use transform="matrix(0.04938271604938272,0,0,0.04938271604938272,76.83950617283952,0)" xlink:href="#aT"/><use transform="matrix(0.04938271604938272,0,0,0.04938271604938272,87.65432098765433,0)" xlink:href="#aT"/><use transform="matrix(0.04938271604938272,0,0,0.04938271604938272,98.46913580246914,0)" xlink:href="#aN"/><use transform="matrix(0.04938271604938272,0,0,0.04938271604938272,110.320987654321,0)" xlink:href="#aS"/></g><g id="c"><use transform="matrix(0.04938271604938272,0,0,0.04938271604938272,0,0)" xlink:href="#aK"/><use transform="matrix(0.04938271604938272,0,0,0.04938271604938272,12.790123456790125,0)" xlink:href="#aO"/><use transform="matrix(0.04938271604938272,0,0,0.04938271604938272,25.58024691358025,0)" xlink:href="#aP"/><use transform="matrix(0.04938271604938272,0,0,0.04938271604938272,30.518518518518523,0)" xlink:href="#aL"/></g><g id="d"><use transform="matrix(0.04938271604938272,0,0,0.04938271604938272,0,0)" xlink:href="#aQ"/><use transform="matrix(0.04938271604938272,0,0,0.04938271604938272,12.790123456790125,0)" xlink:href="#aR"/><use transform="matrix(0.04938271604938272,0,0,0.04938271604938272,26.617283950617285,0)" xlink:href="#aO"/><use transform="matrix(0.04938271604938272,0,0,0.04938271604938272,39.40740740740741,0)" xlink:href="#aL"/><use transform="matrix(0.04938271604938272,0,0,0.04938271604938272,50.22222222222223,0)" xlink:href="#aS"/><use transform="matrix(0.04938271604938272,0,0,0.04938271604938272,63.01234567901235,0)" xlink:href="#aR"/><use transform="matrix(0.04938271604938272,0,0,0.04938271604938272,76.83950617283952,0)" xlink:href="#aT"/><use transform="matrix(0.04938271604938272,0,0,0.04938271604938272,87.65432098765433,0)" xlink:href="#aT"/><use transform="matrix(0.04938271604938272,0,0,0.04938271604938272,98.46913580246914,0)" xlink:href="#aN"/><use transform="matrix(0.04938271604938272,0,0,0.04938271604938272,110.320987654321,0)" xlink:href="#aS"/></g><path fill="#333" d="M182-130c37 4 62 22 62 59C244 23 116-4 24 0v-248c84 5 203-23 205 63 0 31-19 50-47 55zM76-148c40-3 101 13 101-30 0-44-60-28-101-31v61zm0 110c48-3 116 14 116-37 0-48-69-32-116-35v72" id="aU"/><path fill="#333" d="M210 0H11v-37l134-170H24v-41h178v36L68-41h142V0" id="aV"/><path fill="#333" d="M146-102V0H94v-102L6-248h54l60 105 60-105h54" id="aW"/><g id="e"><use transform="matrix(0.04938271604938272,0,0,0.04938271604938272,0,0)" xlink:href="#aU"/><use transform="matrix(0.04938271604938272,0,0,0.04938271604938272,12.790123456790125,0)" xlink:href="#aQ"/><use transform="matrix(0.04938271604938272,0,0,0.04938271604938272,25.58024691358025,0)" xlink:href="#aR"/><use transform="matrix(0.04938271604938272,0,0,0.04938271604938272,39.40740740740741,0)" xlink:href="#aV"/><use transform="matrix(0.04938271604938272,0,0,0.04938271604938272,50.22222222222223,0)" xlink:href="#aW"/></g><path fill="#333" d="M230 0l2-204L168 0h-37L68-204 70 0H24v-248h70l56 185 57-185h69V0h-46" id="aX"/><g id="f"><use transform="matrix(0.04938271604938272,0,0,0.04938271604938272,0,0)" xlink:href="#aS"/><use transform="matrix(0.04938271604938272,0,0,0.04938271604938272,12.790123456790125,0)" xlink:href="#aN"/><use transform="matrix(0.04938271604938272,0,0,0.04938271604938272,24.641975308641978,0)" xlink:href="#aX"/><use transform="matrix(0.04938271604938272,0,0,0.04938271604938272,39.40740740740741,0)" xlink:href="#aR"/><use transform="matrix(0.04938271604938272,0,0,0.04938271604938272,53.23456790123457,0)" xlink:href="#aL"/><use transform="matrix(0.04938271604938272,0,0,0.04938271604938272,64.04938271604938,0)" xlink:href="#aN"/></g><path fill="#333" d="M232-93c-1 65-40 97-104 97C67 4 28-28 28-90v-158h33c8 89-33 224 67 224 102 0 64-133 71-224h33v155" id="aY"/><path fill="#333" d="M117-194c89-4 53 116 60 194h-32v-121c0-31-8-49-39-48C34-167 62-67 57 0H25l-1-190h30c1 10-1 24 2 32 11-22 29-35 61-36" id="aZ"/><path fill="#333" d="M24-231v-30h32v30H24zM24 0v-190h32V0H24" id="ba"/><path fill="#333" d="M59-47c-2 24 18 29 38 22v24C64 9 27 4 27-40v-127H5v-23h24l9-43h21v43h35v23H59v120" id="bb"/><path fill="#333" d="M233-177c-1 41-23 64-60 70L243 0h-38l-65-103H63V0H30v-248c88 3 205-21 203 71zM63-129c60-2 137 13 137-47 0-61-80-42-137-45v92" id="bc"/><path fill="#333" d="M100-194c63 0 86 42 84 106H49c0 40 14 67 53 68 26 1 43-12 49-29l28 8c-11 28-37 45-77 45C44 4 14-33 15-96c1-61 26-98 85-98zm52 81c6-60-76-77-97-28-3 7-6 17-6 28h103" id="bd"/><path fill="#333" d="M210-169c-67 3-38 105-44 169h-31v-121c0-29-5-50-35-48C34-165 62-65 56 0H25l-1-190h30c1 10-1 24 2 32 10-44 99-50 107 0 11-21 27-35 58-36 85-2 47 119 55 194h-31v-121c0-29-5-49-35-48" id="be"/><path fill="#333" d="M100-194c62-1 85 37 85 99 1 63-27 99-86 99S16-35 15-95c0-66 28-99 85-99zM99-20c44 1 53-31 53-75 0-43-8-75-51-75s-53 32-53 75 10 74 51 75" id="bf"/><g id="g"><use transform="matrix(0.05,0,0,0.05,0,0)" xlink:href="#aY"/><use transform="matrix(0.05,0,0,0.05,12.950000000000001,0)" xlink:href="#aZ"/><use transform="matrix(0.05,0,0,0.05,22.950000000000003,0)" xlink:href="#ba"/><use transform="matrix(0.05,0,0,0.05,26.900000000000002,0)" xlink:href="#bb"/><use transform="matrix(0.05,0,0,0.05,31.900000000000002,0)" xlink:href="#bc"/><use transform="matrix(0.05,0,0,0.05,44.85,0)" xlink:href="#bd"/><use transform="matrix(0.05,0,0,0.05,54.85,0)" xlink:href="#be"/><use transform="matrix(0.05,0,0,0.05,69.8,0)" xlink:href="#bf"/><use transform="matrix(0.05,0,0,0.05,79.8,0)" xlink:href="#bb"/><use transform="matrix(0.05,0,0,0.05,84.8,0)" xlink:href="#bd"/></g><path fill="#333" d="M141-36C126-15 110 5 73 4 37 3 15-17 15-53c-1-64 63-63 125-63 3-35-9-54-41-54-24 1-41 7-42 31l-33-3c5-37 33-52 76-52 45 0 72 20 72 64v82c-1 20 7 32 28 27v20c-31 9-61-2-59-35zM48-53c0 20 12 33 32 33 41-3 63-29 60-74-43 2-92-5-92 41" id="bg"/><path fill="#333" d="M115-194c53 0 69 39 70 98 0 66-23 100-70 100C84 3 66-7 56-30L54 0H23l1-261h32v101c10-23 28-34 59-34zm-8 174c40 0 45-34 45-75 0-40-5-75-45-74-42 0-51 32-51 76 0 43 10 73 51 73" id="bh"/><path fill="#333" d="M101-234c-31-9-42 10-38 44h38v23H63V0H32v-167H5v-23h27c-7-52 17-82 69-68v24" id="bi"/><path fill="#333" d="M114-163C36-179 61-72 57 0H25l-1-190h30c1 12-1 29 2 39 6-27 23-49 58-41v29" id="bj"/><path fill="#333" d="M177-190C167-65 218 103 67 71c-23-6-38-20-44-43l32-5c15 47 100 32 89-28v-30C133-14 115 1 83 1 29 1 15-40 15-95c0-56 16-97 71-98 29-1 48 16 59 35 1-10 0-23 2-32h30zM94-22c36 0 50-32 50-73 0-42-14-75-50-75-39 0-46 34-46 75s6 73 46 73" id="bk"/><g id="h"><use transform="matrix(0.05,0,0,0.05,0,0)" xlink:href="#bg"/><use transform="matrix(0.05,0,0,0.05,10,0)" xlink:href="#bh"/><use transform="matrix(0.05,0,0,0.05,20,0)" xlink:href="#bi"/><use transform="matrix(0.05,0,0,0.05,25,0)" xlink:href="#bj"/><use transform="matrix(0.05,0,0,0.05,30.950000000000003,0)" xlink:href="#bg"/><use transform="matrix(0.05,0,0,0.05,40.95,0)" xlink:href="#bk"/><use transform="matrix(0.05,0,0,0.05,50.95,0)" xlink:href="#bd"/><use transform="matrix(0.05,0,0,0.05,60.95,0)" xlink:href="#aZ"/></g><path fill="#333" d="M205 0l-28-72H64L36 0H1l101-248h38L239 0h-34zm-38-99l-47-123c-12 45-31 82-46 123h93" id="bl"/><path fill="#333" d="M143 0L79-87 56-68V0H24v-261h32v163l83-92h37l-77 82L181 0h-38" id="bm"/><g id="i"><use transform="matrix(0.05,0,0,0.05,0,0)" xlink:href="#bl"/><use transform="matrix(0.05,0,0,0.05,12,0)" xlink:href="#bm"/><use transform="matrix(0.05,0,0,0.05,21,0)" xlink:href="#bb"/><use transform="matrix(0.05,0,0,0.05,26,0)" xlink:href="#ba"/><use transform="matrix(0.05,0,0,0.05,29.950000000000003,0)" xlink:href="#bf"/><use transform="matrix(0.05,0,0,0.05,39.95,0)" xlink:href="#aZ"/></g><path fill="#333" d="M84 4C-5 8 30-112 23-190h32v120c0 31 7 50 39 49 72-2 45-101 50-169h31l1 190h-30c-1-10 1-25-2-33-11 22-28 36-60 37" id="bn"/><path fill="#333" d="M135-143c-3-34-86-38-87 0 15 53 115 12 119 90S17 21 10-45l28-5c4 36 97 45 98 0-10-56-113-15-118-90-4-57 82-63 122-42 12 7 21 19 24 35" id="bo"/><path fill="#333" d="M85 4C-4 8 31-112 24-190h32v120c0 31 7 50 39 49 72-2 45-101 50-169h31l1 190h-30c-1-10 1-25-2-33-11 22-28 36-60 37zm34-218v-33h29v33h-29zm-69 0v-33h29v33H50" id="bp"/><path fill="#333" d="M106-169C34-169 62-67 57 0H25v-261h32l-1 103c12-21 28-36 61-36 89 0 53 116 60 194h-32v-121c2-32-8-49-39-48" id="bq"/><g id="j"><use transform="matrix(0.05,0,0,0.05,0,0)" xlink:href="#bg"/><use transform="matrix(0.05,0,0,0.05,10,0)" xlink:href="#bn"/><use transform="matrix(0.05,0,0,0.05,20,0)" xlink:href="#bo"/><use transform="matrix(0.05,0,0,0.05,29,0)" xlink:href="#bi"/><use transform="matrix(0.05,0,0,0.05,34,0)" xlink:href="#bp"/><use transform="matrix(0.05,0,0,0.05,44,0)" xlink:href="#bq"/><use transform="matrix(0.05,0,0,0.05,54,0)" xlink:href="#bj"/><use transform="matrix(0.05,0,0,0.05,59.95,0)" xlink:href="#bd"/><use transform="matrix(0.05,0,0,0.05,69.95,0)" xlink:href="#aZ"/></g><path fill="#333" d="M96-169c-40 0-48 33-48 73s9 75 48 75c24 0 41-14 43-38l32 2c-6 37-31 61-74 61-59 0-76-41-82-99-10-93 101-131 147-64 4 7 5 14 7 22l-32 3c-4-21-16-35-41-35" id="br"/><g id="k"><use transform="matrix(0.05,0,0,0.05,0,0)" xlink:href="#bl"/><use transform="matrix(0.05,0,0,0.05,12,0)" xlink:href="#br"/><use transform="matrix(0.05,0,0,0.05,21,0)" xlink:href="#bb"/><use transform="matrix(0.05,0,0,0.05,26,0)" xlink:href="#ba"/><use transform="matrix(0.05,0,0,0.05,29.950000000000003,0)" xlink:href="#bf"/><use transform="matrix(0.05,0,0,0.05,39.95,0)" xlink:href="#aZ"/></g><path fill="#333" d="M30-248c118-7 216 8 213 122C240-48 200 0 122 0H30v-248zM63-27c89 8 146-16 146-99s-60-101-146-95v194" id="bs"/><path fill="#333" d="M115-194c55 1 70 41 70 98S169 2 115 4C84 4 66-9 55-30l1 105H24l-1-265h31l2 30c10-21 28-34 59-34zm-8 174c40 0 45-34 45-75s-6-73-45-74c-42 0-51 32-51 76 0 43 10 73 51 73" id="bt"/><g id="l"><use transform="matrix(0.05,0,0,0.05,0,0)" xlink:href="#bs"/><use transform="matrix(0.05,0,0,0.05,12.950000000000001,0)" xlink:href="#bd"/><use transform="matrix(0.05,0,0,0.05,22.950000000000003,0)" xlink:href="#bo"/><use transform="matrix(0.05,0,0,0.05,31.950000000000003,0)" xlink:href="#br"/><use transform="matrix(0.05,0,0,0.05,40.95,0)" xlink:href="#bj"/><use transform="matrix(0.05,0,0,0.05,46.900000000000006,0)" xlink:href="#ba"/><use transform="matrix(0.05,0,0,0.05,50.85000000000001,0)" xlink:href="#bt"/><use transform="matrix(0.05,0,0,0.05,60.85,0)" xlink:href="#bb"/><use transform="matrix(0.05,0,0,0.05,65.85000000000001,0)" xlink:href="#ba"/><use transform="matrix(0.05,0,0,0.05,69.80000000000001,0)" xlink:href="#bf"/><use transform="matrix(0.05,0,0,0.05,79.80000000000001,0)" xlink:href="#aZ"/></g><path fill="#333" d="M24 0v-261h32V0H24" id="bu"/><g id="m"><use transform="matrix(0.05,0,0,0.05,0,0)" xlink:href="#ba"/><use transform="matrix(0.05,0,0,0.05,3.95,0)" xlink:href="#aZ"/><use transform="matrix(0.05,0,0,0.05,13.949999999999998,0)" xlink:href="#ba"/><use transform="matrix(0.05,0,0,0.05,17.9,0)" xlink:href="#bb"/><use transform="matrix(0.05,0,0,0.05,22.9,0)" xlink:href="#ba"/><use transform="matrix(0.05,0,0,0.05,26.849999999999994,0)" xlink:href="#bg"/><use transform="matrix(0.05,0,0,0.05,36.849999999999994,0)" xlink:href="#bu"/><use transform="matrix(0.05,0,0,0.05,40.8,0)" xlink:href="#ba"/><use transform="matrix(0.05,0,0,0.05,44.75,0)" xlink:href="#bo"/><use transform="matrix(0.05,0,0,0.05,53.75,0)" xlink:href="#ba"/><use transform="matrix(0.05,0,0,0.05,57.7,0)" xlink:href="#bd"/><use transform="matrix(0.05,0,0,0.05,67.7,0)" xlink:href="#bj"/><use transform="matrix(0.05,0,0,0.05,73.65,0)" xlink:href="#bd"/><use transform="matrix(0.05,0,0,0.05,83.65,0)" xlink:href="#aZ"/></g><path fill="#333" d="M110-194c64 0 96 36 96 99 0 64-35 99-97 99-61 0-95-36-95-99 0-62 34-99 96-99zm-1 164c35 0 45-28 45-65 0-40-10-65-43-65-34 0-45 26-45 65 0 36 10 65 43 65" id="bv"/><path fill="#333" d="M115-3C79 11 28 4 28-45v-112H4v-33h27l15-45h31v45h36v33H77v99c-1 23 16 31 38 25v30" id="bw"/><path fill="#333" d="M25-224v-37h50v37H25zM25 0v-190h50V0H25" id="bx"/><path fill="#333" d="M12 0v-35l95-120H19v-35h142v35L67-36h103V0H12" id="by"/><g id="n"><use transform="matrix(0.04938271604938272,0,0,0.04938271604938272,0,0)" xlink:href="#aO"/><use transform="matrix(0.04938271604938272,0,0,0.04938271604938272,12.790123456790125,0)" xlink:href="#bv"/><use transform="matrix(0.04938271604938272,0,0,0.04938271604938272,23.60493827160494,0)" xlink:href="#bw"/><use transform="matrix(0.04938271604938272,0,0,0.04938271604938272,29.481481481481485,0)" xlink:href="#bx"/><use transform="matrix(0.04938271604938272,0,0,0.04938271604938272,34.41975308641976,0)" xlink:href="#by"/></g><path fill="#333" d="M63-220v92h138v28H63V0H30v-248h175v28H63" id="bz"/><g id="o"><use transform="matrix(0.04938271604938272,0,0,0.04938271604938272,0,0)" xlink:href="#bz"/><use transform="matrix(0.04938271604938272,0,0,0.04938271604938272,10.814814814814815,0)" xlink:href="#bp"/><use transform="matrix(0.04938271604938272,0,0,0.04938271604938272,20.69135802469136,0)" xlink:href="#bk"/><use transform="matrix(0.04938271604938272,0,0,0.04938271604938272,30.567901234567906,0)" xlink:href="#bd"/></g><g id="p"><use transform="matrix(0.04938271604938272,0,0,0.04938271604938272,0,0)" xlink:href="#bl"/><use transform="matrix(0.04938271604938272,0,0,0.04938271604938272,11.851851851851853,0)" xlink:href="#br"/><use transform="matrix(0.04938271604938272,0,0,0.04938271604938272,20.74074074074074,0)" xlink:href="#bb"/><use transform="matrix(0.04938271604938272,0,0,0.04938271604938272,25.679012345679016,0)" xlink:href="#ba"/><use transform="matrix(0.04938271604938272,0,0,0.04938271604938272,29.58024691358025,0)" xlink:href="#bf"/><use transform="matrix(0.04938271604938272,0,0,0.04938271604938272,39.45679012345679,0)" xlink:href="#aZ"/><use transform="matrix(0.04938271604938272,0,0,0.04938271604938272,49.333333333333336,0)" xlink:href="#bs"/><use transform="matrix(0.04938271604938272,0,0,0.04938271604938272,62.12345679012346,0)" xlink:href="#bd"/><use transform="matrix(0.04938271604938272,0,0,0.04938271604938272,72,0)" xlink:href="#bo"/><use transform="matrix(0.04938271604938272,0,0,0.04938271604938272,80.88888888888889,0)" xlink:href="#br"/><use transform="matrix(0.04938271604938272,0,0,0.04938271604938272,89.77777777777777,0)" xlink:href="#bj"/><use transform="matrix(0.04938271604938272,0,0,0.04938271604938272,95.65432098765432,0)" xlink:href="#ba"/><use transform="matrix(0.04938271604938272,0,0,0.04938271604938272,99.55555555555556,0)" xlink:href="#bt"/><use transform="matrix(0.04938271604938272,0,0,0.04938271604938272,109.4320987654321,0)" xlink:href="#bb"/><use transform="matrix(0.04938271604938272,0,0,0.04938271604938272,114.37037037037038,0)" xlink:href="#ba"/><use transform="matrix(0.04938271604938272,0,0,0.04938271604938272,118.27160493827161,0)" xlink:href="#bf"/><use transform="matrix(0.04938271604938272,0,0,0.04938271604938272,128.14814814814815,0)" xlink:href="#aZ"/></g><path fill="#333" d="M127-220V0H93v-220H8v-28h204v28h-85" id="bA"/><path fill="#333" d="M266 0h-40l-56-210L115 0H75L2-248h35L96-30l15-64 43-154h32l59 218 59-218h35" id="bB"/><g id="q"><use transform="matrix(0.04938271604938272,0,0,0.04938271604938272,0,0)" xlink:href="#bA"/><use transform="matrix(0.04938271604938272,0,0,0.04938271604938272,10.17283950617284,0)" xlink:href="#ba"/><use transform="matrix(0.04938271604938272,0,0,0.04938271604938272,14.074074074074074,0)" xlink:href="#br"/><use transform="matrix(0.04938271604938272,0,0,0.04938271604938272,22.962962962962965,0)" xlink:href="#bm"/><use transform="matrix(0.04938271604938272,0,0,0.04938271604938272,31.851851851851855,0)" xlink:href="#bd"/><use transform="matrix(0.04938271604938272,0,0,0.04938271604938272,41.7283950617284,0)" xlink:href="#bb"/><use transform="matrix(0.04938271604938272,0,0,0.04938271604938272,46.66666666666667,0)" xlink:href="#bl"/><use transform="matrix(0.04938271604938272,0,0,0.04938271604938272,58.518518518518526,0)" xlink:href="#bn"/><use transform="matrix(0.04938271604938272,0,0,0.04938271604938272,68.39506172839506,0)" xlink:href="#bb"/><use transform="matrix(0.04938271604938272,0,0,0.04938271604938272,73.33333333333334,0)" xlink:href="#bq"/><use transform="matrix(0.04938271604938272,0,0,0.04938271604938272,83.20987654320989,0)" xlink:href="#bd"/><use transform="matrix(0.04938271604938272,0,0,0.04938271604938272,93.08641975308643,0)" xlink:href="#aZ"/><use transform="matrix(0.04938271604938272,0,0,0.04938271604938272,102.96296296296298,0)" xlink:href="#bb"/><use transform="matrix(0.04938271604938272,0,0,0.04938271604938272,107.90123456790124,0)" xlink:href="#ba"/><use transform="matrix(0.04938271604938272,0,0,0.04938271604938272,111.80246913580248,0)" xlink:href="#br"/><use transform="matrix(0.04938271604938272,0,0,0.04938271604938272,120.69135802469137,0)" xlink:href="#bg"/><use transform="matrix(0.04938271604938272,0,0,0.04938271604938272,130.5679012345679,0)" xlink:href="#bb"/><use transform="matrix(0.04938271604938272,0,0,0.04938271604938272,135.50617283950618,0)" xlink:href="#bf"/><use transform="matrix(0.04938271604938272,0,0,0.04938271604938272,145.38271604938274,0)" xlink:href="#bj"/><use transform="matrix(0.04938271604938272,0,0,0.04938271604938272,151.25925925925927,0)" xlink:href="#bB"/><use transform="matrix(0.04938271604938272,0,0,0.04938271604938272,167.65432098765433,0)" xlink:href="#bj"/><use transform="matrix(0.04938271604938272,0,0,0.04938271604938272,173.53086419753086,0)" xlink:href="#bg"/><use transform="matrix(0.04938271604938272,0,0,0.04938271604938272,183.4074074074074,0)" xlink:href="#bt"/><use transform="matrix(0.04938271604938272,0,0,0.04938271604938272,193.28395061728395,0)" xlink:href="#bt"/><use transform="matrix(0.04938271604938272,0,0,0.04938271604938272,203.1604938271605,0)" xlink:href="#bd"/><use transform="matrix(0.04938271604938272,0,0,0.04938271604938272,213.03703703703707,0)" xlink:href="#bj"/></g><path fill="#333" d="M9 0v-24l116-142H16v-24h144v24L44-24h123V0H9" id="bC"/><path fill="#333" d="M68-38c1 34 0 65-14 84H32c9-13 17-26 17-46H33v-38h35" id="bD"/><g id="r"><use transform="matrix(0.04938271604938272,0,0,0.04938271604938272,0,0)" xlink:href="#bq"/><use transform="matrix(0.04938271604938272,0,0,0.04938271604938272,9.876543209876544,0)" xlink:href="#ba"/><use transform="matrix(0.04938271604938272,0,0,0.04938271604938272,13.777777777777779,0)" xlink:href="#aZ"/><use transform="matrix(0.04938271604938272,0,0,0.04938271604938272,23.654320987654323,0)" xlink:href="#bC"/><use transform="matrix(0.04938271604938272,0,0,0.04938271604938272,32.543209876543216,0)" xlink:href="#bn"/><use transform="matrix(0.04938271604938272,0,0,0.04938271604938272,42.41975308641976,0)" xlink:href="#bD"/></g><path fill="#333" d="M206 0h-36l-40-164L89 0H53L-1-190h32L70-26l43-164h34l41 164 42-164h31" id="bE"/><g id="s"><use transform="matrix(0.04938271604938272,0,0,0.04938271604938272,0,0)" xlink:href="#bE"/><use transform="matrix(0.04938271604938272,0,0,0.04938271604938272,12.790123456790125,0)" xlink:href="#bd"/><use transform="matrix(0.04938271604938272,0,0,0.04938271604938272,22.66666666666667,0)" xlink:href="#bu"/><use transform="matrix(0.04938271604938272,0,0,0.04938271604938272,26.567901234567902,0)" xlink:href="#br"/><use transform="matrix(0.04938271604938272,0,0,0.04938271604938272,35.4567901234568,0)" xlink:href="#bq"/><use transform="matrix(0.04938271604938272,0,0,0.04938271604938272,45.33333333333334,0)" xlink:href="#bd"/><use transform="matrix(0.04938271604938272,0,0,0.04938271604938272,55.209876543209894,0)" xlink:href="#bj"/></g><path fill="#333" d="M27 0v-27h64v-190l-56 39v-29l58-41h29v221h61V0H27" id="bF"/><path fill="#333" d="M33 0v-38h34V0H33" id="bG"/><g id="t"><use transform="matrix(0.04938271604938272,0,0,0.04938271604938272,0,0)" xlink:href="#bF"/><use transform="matrix(0.04938271604938272,0,0,0.04938271604938272,9.876543209876544,0)" xlink:href="#bG"/></g><path fill="#333" d="M212-179c-10-28-35-45-73-45-59 0-87 40-87 99 0 60 29 101 89 101 43 0 62-24 78-52l27 14C228-24 195 4 139 4 59 4 22-46 18-125c-6-104 99-153 187-111 19 9 31 26 39 46" id="bH"/><path fill="#333" d="M185-189c-5-48-123-54-124 2 14 75 158 14 163 119 3 78-121 87-175 55-17-10-28-26-33-46l33-7c5 56 141 63 141-1 0-78-155-14-162-118-5-82 145-84 179-34 5 7 8 16 11 25" id="bI"/><path fill="#333" d="M108 0H70L1-190h34L89-25l56-165h34" id="bJ"/><g id="u"><use transform="matrix(0.04938271604938272,0,0,0.04938271604938272,0,0)" xlink:href="#bH"/><use transform="matrix(0.04938271604938272,0,0,0.04938271604938272,12.790123456790125,0)" xlink:href="#bu"/><use transform="matrix(0.04938271604938272,0,0,0.04938271604938272,16.69135802469136,0)" xlink:href="#ba"/><use transform="matrix(0.04938271604938272,0,0,0.04938271604938272,20.592592592592595,0)" xlink:href="#bd"/><use transform="matrix(0.04938271604938272,0,0,0.04938271604938272,30.46913580246914,0)" xlink:href="#aZ"/><use transform="matrix(0.04938271604938272,0,0,0.04938271604938272,40.345679012345684,0)" xlink:href="#bb"/><use transform="matrix(0.04938271604938272,0,0,0.04938271604938272,45.283950617283956,0)" xlink:href="#bI"/><use transform="matrix(0.04938271604938272,0,0,0.04938271604938272,57.135802469135804,0)" xlink:href="#bd"/><use transform="matrix(0.04938271604938272,0,0,0.04938271604938272,67.01234567901236,0)" xlink:href="#bj"/><use transform="matrix(0.04938271604938272,0,0,0.04938271604938272,72.8888888888889,0)" xlink:href="#bJ"/><use transform="matrix(0.04938271604938272,0,0,0.04938271604938272,81.77777777777779,0)" xlink:href="#bd"/><use transform="matrix(0.04938271604938272,0,0,0.04938271604938272,91.65432098765433,0)" xlink:href="#bj"/><use transform="matrix(0.04938271604938272,0,0,0.04938271604938272,97.53086419753087,0)" xlink:href="#bA"/><use transform="matrix(0.04938271604938272,0,0,0.04938271604938272,107.70370370370371,0)" xlink:href="#ba"/><use transform="matrix(0.04938271604938272,0,0,0.04938271604938272,111.60493827160495,0)" xlink:href="#br"/><use transform="matrix(0.04938271604938272,0,0,0.04938271604938272,120.49382716049384,0)" xlink:href="#bm"/><use transform="matrix(0.04938271604938272,0,0,0.04938271604938272,129.38271604938274,0)" xlink:href="#bd"/><use transform="matrix(0.04938271604938272,0,0,0.04938271604938272,139.2592592592593,0)" xlink:href="#bb"/></g><path fill="#333" d="M101-251c82-7 93 87 43 132L82-64C71-53 59-42 53-27h129V0H18c2-99 128-94 128-182 0-28-16-43-45-43s-46 15-49 41l-32-3c6-41 34-60 81-64" id="bK"/><g id="v"><use transform="matrix(0.04938271604938272,0,0,0.04938271604938272,0,0)" xlink:href="#bK"/><use transform="matrix(0.04938271604938272,0,0,0.04938271604938272,9.876543209876544,0)" xlink:href="#bG"/></g><g id="w"><use transform="matrix(0.04938271604938272,0,0,0.04938271604938272,0,0)" xlink:href="#bl"/><use transform="matrix(0.04938271604938272,0,0,0.04938271604938272,11.851851851851853,0)" xlink:href="#bn"/><use transform="matrix(0.04938271604938272,0,0,0.04938271604938272,21.7283950617284,0)" xlink:href="#bb"/><use transform="matrix(0.04938271604938272,0,0,0.04938271604938272,26.666666666666668,0)" xlink:href="#bq"/><use transform="matrix(0.04938271604938272,0,0,0.04938271604938272,36.543209876543216,0)" xlink:href="#bd"/><use transform="matrix(0.04938271604938272,0,0,0.04938271604938272,46.41975308641976,0)" xlink:href="#aZ"/><use transform="matrix(0.04938271604938272,0,0,0.04938271604938272,56.2962962962963,0)" xlink:href="#bb"/><use transform="matrix(0.04938271604938272,0,0,0.04938271604938272,61.23456790123457,0)" xlink:href="#ba"/><use transform="matrix(0.04938271604938272,0,0,0.04938271604938272,65.13580246913581,0)" xlink:href="#br"/><use transform="matrix(0.04938271604938272,0,0,0.04938271604938272,74.0246913580247,0)" xlink:href="#bg"/><use transform="matrix(0.04938271604938272,0,0,0.04938271604938272,83.90123456790124,0)" xlink:href="#bb"/><use transform="matrix(0.04938271604938272,0,0,0.04938271604938272,88.83950617283952,0)" xlink:href="#bf"/><use transform="matrix(0.04938271604938272,0,0,0.04938271604938272,98.71604938271606,0)" xlink:href="#bj"/></g><g id="x"><use transform="matrix(0.04938271604938272,0,0,0.04938271604938272,0,0)" xlink:href="#bm"/><use transform="matrix(0.04938271604938272,0,0,0.04938271604938272,8.88888888888889,0)" xlink:href="#bg"/><use transform="matrix(0.04938271604938272,0,0,0.04938271604938272,18.765432098765434,0)" xlink:href="#bt"/><use transform="matrix(0.04938271604938272,0,0,0.04938271604938272,28.641975308641978,0)" xlink:href="#bo"/><use transform="matrix(0.04938271604938272,0,0,0.04938271604938272,37.53086419753087,0)" xlink:href="#bd"/><use transform="matrix(0.04938271604938272,0,0,0.04938271604938272,47.40740740740741,0)" xlink:href="#bu"/><use transform="matrix(0.04938271604938272,0,0,0.04938271604938272,51.308641975308646,0)" xlink:href="#bb"/></g><g id="y"><use transform="matrix(0.05,0,0,0.05,0,0)" xlink:href="#bl"/><use transform="matrix(0.05,0,0,0.05,12,0)" xlink:href="#bn"/><use transform="matrix(0.05,0,0,0.05,22,0)" xlink:href="#bb"/><use transform="matrix(0.05,0,0,0.05,27,0)" xlink:href="#bq"/><use transform="matrix(0.05,0,0,0.05,37,0)" xlink:href="#bd"/><use transform="matrix(0.05,0,0,0.05,47,0)" xlink:href="#aZ"/><use transform="matrix(0.05,0,0,0.05,57,0)" xlink:href="#bb"/><use transform="matrix(0.05,0,0,0.05,62,0)" xlink:href="#ba"/><use transform="matrix(0.05,0,0,0.05,65.95,0)" xlink:href="#bi"/><use transform="matrix(0.05,0,0,0.05,70.95,0)" xlink:href="#ba"/><use transform="matrix(0.05,0,0,0.05,74.9,0)" xlink:href="#bC"/><use transform="matrix(0.05,0,0,0.05,83.9,0)" xlink:href="#ba"/><use transform="matrix(0.05,0,0,0.05,87.85000000000001,0)" xlink:href="#bd"/><use transform="matrix(0.05,0,0,0.05,97.85000000000001,0)" xlink:href="#bj"/><use transform="matrix(0.05,0,0,0.05,103.80000000000001,0)" xlink:href="#bd"/></g><g id="z"><use transform="matrix(0.05,0,0,0.05,0,0)" xlink:href="#bA"/><use transform="matrix(0.05,0,0,0.05,10.3,0)" xlink:href="#ba"/><use transform="matrix(0.05,0,0,0.05,14.25,0)" xlink:href="#br"/><use transform="matrix(0.05,0,0,0.05,23.25,0)" xlink:href="#bm"/><use transform="matrix(0.05,0,0,0.05,32.25,0)" xlink:href="#bd"/><use transform="matrix(0.05,0,0,0.05,42.25,0)" xlink:href="#bb"/></g><g id="A"><use transform="matrix(0.05,0,0,0.05,0,0)" xlink:href="#bl"/><use transform="matrix(0.05,0,0,0.05,12,0)" xlink:href="#bn"/><use transform="matrix(0.05,0,0,0.05,22,0)" xlink:href="#bb"/><use transform="matrix(0.05,0,0,0.05,27,0)" xlink:href="#bq"/><use transform="matrix(0.05,0,0,0.05,37,0)" xlink:href="#bd"/><use transform="matrix(0.05,0,0,0.05,47,0)" xlink:href="#aZ"/><use transform="matrix(0.05,0,0,0.05,57,0)" xlink:href="#bb"/><use transform="matrix(0.05,0,0,0.05,62,0)" xlink:href="#ba"/><use transform="matrix(0.05,0,0,0.05,65.95,0)" xlink:href="#br"/><use transform="matrix(0.05,0,0,0.05,74.95,0)" xlink:href="#bg"/><use transform="matrix(0.05,0,0,0.05,84.95,0)" xlink:href="#bb"/><use transform="matrix(0.05,0,0,0.05,89.95,0)" xlink:href="#bf"/><use transform="matrix(0.05,0,0,0.05,99.95,0)" xlink:href="#bj"/></g><g id="B"><use transform="matrix(0.05,0,0,0.05,0,0)" xlink:href="#bB"/><use transform="matrix(0.05,0,0,0.05,16.599999999999998,0)" xlink:href="#bj"/><use transform="matrix(0.05,0,0,0.05,22.549999999999997,0)" xlink:href="#bg"/><use transform="matrix(0.05,0,0,0.05,32.55,0)" xlink:href="#bt"/><use transform="matrix(0.05,0,0,0.05,42.55,0)" xlink:href="#bt"/><use transform="matrix(0.05,0,0,0.05,52.54999999999999,0)" xlink:href="#bd"/><use transform="matrix(0.05,0,0,0.05,62.54999999999999,0)" xlink:href="#bj"/></g><g id="C"><use transform="matrix(0.05,0,0,0.05,0,0)" xlink:href="#bl"/><use transform="matrix(0.05,0,0,0.05,12,0)" xlink:href="#bn"/><use transform="matrix(0.05,0,0,0.05,22,0)" xlink:href="#bb"/><use transform="matrix(0.05,0,0,0.05,27,0)" xlink:href="#bq"/><use transform="matrix(0.05,0,0,0.05,37,0)" xlink:href="#bf"/><use transform="matrix(0.05,0,0,0.05,47,0)" xlink:href="#bj"/><use transform="matrix(0.05,0,0,0.05,52.95,0)" xlink:href="#ba"/><use transform="matrix(0.05,0,0,0.05,56.900000000000006,0)" xlink:href="#bo"/><use transform="matrix(0.05,0,0,0.05,65.9,0)" xlink:href="#ba"/><use transform="matrix(0.05,0,0,0.05,69.85000000000001,0)" xlink:href="#bd"/><use transform="matrix(0.05,0,0,0.05,79.85000000000001,0)" xlink:href="#bj"/><use transform="matrix(0.05,0,0,0.05,85.80000000000001,0)" xlink:href="#bd"/></g><path fill="#333" d="M103-251c84 0 111 97 45 133-19 10-37 24-39 52H78c0-63 77-55 77-114 0-30-21-42-52-43-32 0-53 17-56 46l-32-2c7-45 34-72 88-72zM77 0v-35h34V0H77" id="bL"/><use transform="matrix(0.05,0,0,0.05,0,0)" xlink:href="#bL" id="D"/><g id="E"><use transform="matrix(0.05,0,0,0.05,0,0)" xlink:href="#bz"/><use transform="matrix(0.05,0,0,0.05,10.950000000000001,0)" xlink:href="#bn"/><use transform="matrix(0.05,0,0,0.05,20.950000000000003,0)" xlink:href="#bb"/><use transform="matrix(0.05,0,0,0.05,25.950000000000003,0)" xlink:href="#bn"/><use transform="matrix(0.05,0,0,0.05,35.95,0)" xlink:href="#bj"/><use transform="matrix(0.05,0,0,0.05,41.900000000000006,0)" xlink:href="#bd"/></g><path fill="#333" d="M150-269v-32h29v32h-29zm-69 0v-32h29v32H81zM232-93c-1 65-40 97-104 97C67 4 28-28 28-90v-158h33c8 89-33 224 67 224 102 0 64-133 71-224h33v155" id="bM"/><g id="F"><use transform="matrix(0.05,0,0,0.05,0,0)" xlink:href="#bM"/><use transform="matrix(0.05,0,0,0.05,12.950000000000001,0)" xlink:href="#bh"/><use transform="matrix(0.05,0,0,0.05,22.950000000000003,0)" xlink:href="#bd"/><use transform="matrix(0.05,0,0,0.05,32.95,0)" xlink:href="#bj"/><use transform="matrix(0.05,0,0,0.05,38.900000000000006,0)" xlink:href="#bt"/><use transform="matrix(0.05,0,0,0.05,48.900000000000006,0)" xlink:href="#bj"/><use transform="matrix(0.05,0,0,0.05,54.85,0)" xlink:href="#bp"/><use transform="matrix(0.05,0,0,0.05,64.85000000000001,0)" xlink:href="#bi"/><use transform="matrix(0.05,0,0,0.05,69.85000000000001,0)" xlink:href="#bd"/></g><path fill="#333" d="M33 0v-248h34V0H33" id="bN"/><path fill="#333" d="M141-36C126-15 110 5 73 4 37 3 15-17 15-53c-1-64 63-63 125-63 3-35-9-54-41-54-24 1-41 7-42 31l-33-3c5-37 33-52 76-52 45 0 72 20 72 64v82c-1 20 7 32 28 27v20c-31 9-61-2-59-35zM48-53c0 20 12 33 32 33 41-3 63-29 60-74-43 2-92-5-92 41zm70-161v-33h29v33h-29zm-69 0v-33h29v33H49" id="bO"/><g id="G"><use transform="matrix(0.05,0,0,0.05,0,0)" xlink:href="#bN"/><use transform="matrix(0.05,0,0,0.05,5,0)" xlink:href="#aZ"/><use transform="matrix(0.05,0,0,0.05,15,0)" xlink:href="#bb"/><use transform="matrix(0.05,0,0,0.05,20,0)" xlink:href="#bd"/><use transform="matrix(0.05,0,0,0.05,30,0)" xlink:href="#bk"/><use transform="matrix(0.05,0,0,0.05,40,0)" xlink:href="#bj"/><use transform="matrix(0.05,0,0,0.05,45.95,0)" xlink:href="#ba"/><use transform="matrix(0.05,0,0,0.05,49.900000000000006,0)" xlink:href="#bb"/><use transform="matrix(0.05,0,0,0.05,54.900000000000006,0)" xlink:href="#bO"/><use transform="matrix(0.05,0,0,0.05,64.9,0)" xlink:href="#bb"/></g><path fill="#333" d="M85-194c31 0 48 13 60 33l-1-100h32l1 261h-30c-2-10 0-23-3-31C134-8 116 4 85 4 32 4 16-35 15-94c0-66 23-100 70-100zm9 24c-40 0-46 34-46 75 0 40 6 74 45 74 42 0 51-32 51-76 0-42-9-74-50-73" id="bP"/><g id="H"><use transform="matrix(0.05,0,0,0.05,0,0)" xlink:href="#bP"/><use transform="matrix(0.05,0,0,0.05,10,0)" xlink:href="#bd"/><use transform="matrix(0.05,0,0,0.05,20,0)" xlink:href="#bo"/></g><g id="I"><use transform="matrix(0.05,0,0,0.05,0,0)" xlink:href="#bI"/><use transform="matrix(0.05,0,0,0.05,12,0)" xlink:href="#bd"/><use transform="matrix(0.05,0,0,0.05,22,0)" xlink:href="#aZ"/><use transform="matrix(0.05,0,0,0.05,32,0)" xlink:href="#bP"/><use transform="matrix(0.05,0,0,0.05,42,0)" xlink:href="#bd"/><use transform="matrix(0.05,0,0,0.05,52,0)" xlink:href="#bj"/><use transform="matrix(0.05,0,0,0.05,57.95,0)" xlink:href="#bo"/></g><path fill="#333" d="M137 0h-34L2-248h35l83 218 83-218h36" id="bQ"/><g id="J"><use transform="matrix(0.04938271604938272,0,0,0.04938271604938272,0,0)" xlink:href="#bQ"/><use transform="matrix(0.04938271604938272,0,0,0.04938271604938272,10.864197530864198,0)" xlink:href="#bd"/><use transform="matrix(0.04938271604938272,0,0,0.04938271604938272,20.74074074074074,0)" xlink:href="#bj"/><use transform="matrix(0.04938271604938272,0,0,0.04938271604938272,26.617283950617285,0)" xlink:href="#bk"/><use transform="matrix(0.04938271604938272,0,0,0.04938271604938272,36.49382716049383,0)" xlink:href="#bu"/><use transform="matrix(0.04938271604938272,0,0,0.04938271604938272,40.39506172839506,0)" xlink:href="#bd"/><use transform="matrix(0.04938271604938272,0,0,0.04938271604938272,50.27160493827161,0)" xlink:href="#ba"/><use transform="matrix(0.04938271604938272,0,0,0.04938271604938272,54.17283950617284,0)" xlink:href="#br"/><use transform="matrix(0.04938271604938272,0,0,0.04938271604938272,63.061728395061735,0)" xlink:href="#bq"/><use transform="matrix(0.04938271604938272,0,0,0.04938271604938272,72.93827160493828,0)" xlink:href="#bd"/></g><g id="K"><use transform="matrix(0.04938271604938272,0,0,0.04938271604938272,0,0)" xlink:href="#bA"/><use transform="matrix(0.04938271604938272,0,0,0.04938271604938272,10.17283950617284,0)" xlink:href="#ba"/><use transform="matrix(0.04938271604938272,0,0,0.04938271604938272,14.074074074074074,0)" xlink:href="#be"/><use transform="matrix(0.04938271604938272,0,0,0.04938271604938272,28.83950617283951,0)" xlink:href="#bd"/><use transform="matrix(0.04938271604938272,0,0,0.04938271604938272,38.71604938271605,0)" xlink:href="#bo"/><use transform="matrix(0.04938271604938272,0,0,0.04938271604938272,47.60493827160494,0)" xlink:href="#bb"/><use transform="matrix(0.04938271604938272,0,0,0.04938271604938272,52.543209876543216,0)" xlink:href="#bg"/><use transform="matrix(0.04938271604938272,0,0,0.04938271604938272,62.41975308641976,0)" xlink:href="#be"/><use transform="matrix(0.04938271604938272,0,0,0.04938271604938272,77.18518518518519,0)" xlink:href="#bt"/></g><g id="L"><use transform="matrix(0.04938271604938272,0,0,0.04938271604938272,0,0)" xlink:href="#bP"/><use transform="matrix(0.04938271604938272,0,0,0.04938271604938272,9.876543209876544,0)" xlink:href="#bd"/><use transform="matrix(0.04938271604938272,0,0,0.04938271604938272,19.75308641975309,0)" xlink:href="#bo"/></g><g id="M"><use transform="matrix(0.04938271604938272,0,0,0.04938271604938272,0,0)" xlink:href="#bk"/><use transform="matrix(0.04938271604938272,0,0,0.04938271604938272,9.876543209876544,0)" xlink:href="#bd"/><use transform="matrix(0.04938271604938272,0,0,0.04938271604938272,19.75308641975309,0)" xlink:href="#bo"/><use transform="matrix(0.04938271604938272,0,0,0.04938271604938272,28.641975308641978,0)" xlink:href="#bd"/><use transform="matrix(0.04938271604938272,0,0,0.04938271604938272,38.51851851851852,0)" xlink:href="#aZ"/><use transform="matrix(0.04938271604938272,0,0,0.04938271604938272,48.39506172839506,0)" xlink:href="#bP"/><use transform="matrix(0.04938271604938272,0,0,0.04938271604938272,58.27160493827161,0)" xlink:href="#bd"/><use transform="matrix(0.04938271604938272,0,0,0.04938271604938272,68.14814814814815,0)" xlink:href="#bb"/><use transform="matrix(0.04938271604938272,0,0,0.04938271604938272,73.08641975308643,0)" xlink:href="#bd"/><use transform="matrix(0.04938271604938272,0,0,0.04938271604938272,82.96296296296298,0)" xlink:href="#aZ"/></g><g id="N"><use transform="matrix(0.04938271604938272,0,0,0.04938271604938272,0,0)" xlink:href="#bl"/><use transform="matrix(0.04938271604938272,0,0,0.04938271604938272,11.851851851851853,0)" xlink:href="#bn"/><use transform="matrix(0.04938271604938272,0,0,0.04938271604938272,21.7283950617284,0)" xlink:href="#bb"/><use transform="matrix(0.04938271604938272,0,0,0.04938271604938272,26.666666666666668,0)" xlink:href="#bq"/><use transform="matrix(0.04938271604938272,0,0,0.04938271604938272,36.543209876543216,0)" xlink:href="#bd"/><use transform="matrix(0.04938271604938272,0,0,0.04938271604938272,46.41975308641976,0)" xlink:href="#aZ"/><use transform="matrix(0.04938271604938272,0,0,0.04938271604938272,56.2962962962963,0)" xlink:href="#bb"/><use transform="matrix(0.04938271604938272,0,0,0.04938271604938272,61.23456790123457,0)" xlink:href="#ba"/><use transform="matrix(0.04938271604938272,0,0,0.04938271604938272,65.13580246913581,0)" xlink:href="#br"/><use transform="matrix(0.04938271604938272,0,0,0.04938271604938272,74.0246913580247,0)" xlink:href="#bg"/><use transform="matrix(0.04938271604938272,0,0,0.04938271604938272,83.90123456790124,0)" xlink:href="#bb"/><use transform="matrix(0.04938271604938272,0,0,0.04938271604938272,88.83950617283952,0)" xlink:href="#bf"/><use transform="matrix(0.04938271604938272,0,0,0.04938271604938272,98.71604938271606,0)" xlink:href="#bj"/><use transform="matrix(0.04938271604938272,0,0,0.04938271604938272,104.5925925925926,0)" xlink:href="#bo"/></g><g id="O"><use transform="matrix(0.04938271604938272,0,0,0.04938271604938272,0,0)" xlink:href="#be"/><use transform="matrix(0.04938271604938272,0,0,0.04938271604938272,14.765432098765434,0)" xlink:href="#ba"/><use transform="matrix(0.04938271604938272,0,0,0.04938271604938272,18.666666666666668,0)" xlink:href="#bb"/></g><g id="P"><use transform="matrix(0.04938271604938272,0,0,0.04938271604938272,0,0)" xlink:href="#bP"/><use transform="matrix(0.04938271604938272,0,0,0.04938271604938272,9.876543209876544,0)" xlink:href="#bd"/><use transform="matrix(0.04938271604938272,0,0,0.04938271604938272,19.75308641975309,0)" xlink:href="#be"/></g><g id="Q"><use transform="matrix(0.04938271604938272,0,0,0.04938271604938272,0,0)" xlink:href="#bP"/><use transform="matrix(0.04938271604938272,0,0,0.04938271604938272,9.876543209876544,0)" xlink:href="#bd"/><use transform="matrix(0.04938271604938272,0,0,0.04938271604938272,19.75308641975309,0)" xlink:href="#bo"/></g><g id="R"><use transform="matrix(0.04938271604938272,0,0,0.04938271604938272,0,0)" xlink:href="#bd"/><use transform="matrix(0.04938271604938272,0,0,0.04938271604938272,9.876543209876544,0)" xlink:href="#be"/><use transform="matrix(0.04938271604938272,0,0,0.04938271604938272,24.641975308641978,0)" xlink:href="#bt"/><use transform="matrix(0.04938271604938272,0,0,0.04938271604938272,34.51851851851852,0)" xlink:href="#bi"/><use transform="matrix(0.04938271604938272,0,0,0.04938271604938272,39.45679012345679,0)" xlink:href="#bg"/><use transform="matrix(0.04938271604938272,0,0,0.04938271604938272,49.333333333333336,0)" xlink:href="#aZ"/><use transform="matrix(0.04938271604938272,0,0,0.04938271604938272,59.20987654320988,0)" xlink:href="#bk"/><use transform="matrix(0.04938271604938272,0,0,0.04938271604938272,69.08641975308643,0)" xlink:href="#bd"/><use transform="matrix(0.04938271604938272,0,0,0.04938271604938272,78.96296296296298,0)" xlink:href="#aZ"/><use transform="matrix(0.04938271604938272,0,0,0.04938271604938272,88.83950617283952,0)" xlink:href="#bd"/><use transform="matrix(0.04938271604938272,0,0,0.04938271604938272,98.71604938271606,0)" xlink:href="#aZ"/></g><g id="S"><use transform="matrix(0.04938271604938272,0,0,0.04938271604938272,0,0)" xlink:href="#bl"/><use transform="matrix(0.04938271604938272,0,0,0.04938271604938272,11.851851851851853,0)" xlink:href="#bn"/><use transform="matrix(0.04938271604938272,0,0,0.04938271604938272,21.7283950617284,0)" xlink:href="#bb"/><use transform="matrix(0.04938271604938272,0,0,0.04938271604938272,26.666666666666668,0)" xlink:href="#bq"/><use transform="matrix(0.04938271604938272,0,0,0.04938271604938272,36.543209876543216,0)" xlink:href="#bd"/><use transform="matrix(0.04938271604938272,0,0,0.04938271604938272,46.41975308641976,0)" xlink:href="#aZ"/><use transform="matrix(0.04938271604938272,0,0,0.04938271604938272,56.2962962962963,0)" xlink:href="#bb"/><use transform="matrix(0.04938271604938272,0,0,0.04938271604938272,61.23456790123457,0)" xlink:href="#ba"/><use transform="matrix(0.04938271604938272,0,0,0.04938271604938272,65.13580246913581,0)" xlink:href="#br"/><use transform="matrix(0.04938271604938272,0,0,0.04938271604938272,74.0246913580247,0)" xlink:href="#bg"/><use transform="matrix(0.04938271604938272,0,0,0.04938271604938272,83.90123456790124,0)" xlink:href="#bb"/><use transform="matrix(0.04938271604938272,0,0,0.04938271604938272,88.83950617283952,0)" xlink:href="#bf"/><use transform="matrix(0.04938271604938272,0,0,0.04938271604938272,98.71604938271606,0)" xlink:href="#bj"/><use transform="matrix(0.04938271604938272,0,0,0.04938271604938272,104.5925925925926,0)" xlink:href="#bo"/></g><g id="T"><use transform="matrix(0.04938271604938272,0,0,0.04938271604938272,0,0)" xlink:href="#bl"/><use transform="matrix(0.04938271604938272,0,0,0.04938271604938272,11.851851851851853,0)" xlink:href="#br"/><use transform="matrix(0.04938271604938272,0,0,0.04938271604938272,20.74074074074074,0)" xlink:href="#bb"/><use transform="matrix(0.04938271604938272,0,0,0.04938271604938272,25.679012345679016,0)" xlink:href="#ba"/><use transform="matrix(0.04938271604938272,0,0,0.04938271604938272,29.58024691358025,0)" xlink:href="#bf"/><use transform="matrix(0.04938271604938272,0,0,0.04938271604938272,39.45679012345679,0)" xlink:href="#aZ"/><use transform="matrix(0.04938271604938272,0,0,0.04938271604938272,49.333333333333336,0)" xlink:href="#bz"/><use transform="matrix(0.04938271604938272,0,0,0.04938271604938272,60.14814814814815,0)" xlink:href="#bn"/><use transform="matrix(0.04938271604938272,0,0,0.04938271604938272,70.0246913580247,0)" xlink:href="#bb"/><use transform="matrix(0.04938271604938272,0,0,0.04938271604938272,74.96296296296296,0)" xlink:href="#bn"/><use transform="matrix(0.04938271604938272,0,0,0.04938271604938272,84.8395061728395,0)" xlink:href="#bj"/><use transform="matrix(0.04938271604938272,0,0,0.04938271604938272,90.71604938271605,0)" xlink:href="#bd"/></g><g id="U"><use transform="matrix(0.04938271604938272,0,0,0.04938271604938272,0,0)" xlink:href="#bd"/><use transform="matrix(0.04938271604938272,0,0,0.04938271604938272,9.876543209876544,0)" xlink:href="#ba"/><use transform="matrix(0.04938271604938272,0,0,0.04938271604938272,13.777777777777779,0)" xlink:href="#aZ"/><use transform="matrix(0.04938271604938272,0,0,0.04938271604938272,23.654320987654323,0)" xlink:href="#bd"/><use transform="matrix(0.04938271604938272,0,0,0.04938271604938272,33.53086419753087,0)" xlink:href="#aZ"/></g><g id="V"><use transform="matrix(0.04938271604938272,0,0,0.04938271604938272,0,0)" xlink:href="#bA"/><use transform="matrix(0.04938271604938272,0,0,0.04938271604938272,10.17283950617284,0)" xlink:href="#ba"/><use transform="matrix(0.04938271604938272,0,0,0.04938271604938272,14.074074074074074,0)" xlink:href="#br"/><use transform="matrix(0.04938271604938272,0,0,0.04938271604938272,22.962962962962965,0)" xlink:href="#bm"/><use transform="matrix(0.04938271604938272,0,0,0.04938271604938272,31.851851851851855,0)" xlink:href="#bd"/><use transform="matrix(0.04938271604938272,0,0,0.04938271604938272,41.7283950617284,0)" xlink:href="#bb"/><use transform="matrix(0.04938271604938272,0,0,0.04938271604938272,46.66666666666667,0)" xlink:href="#bl"/><use transform="matrix(0.04938271604938272,0,0,0.04938271604938272,58.518518518518526,0)" xlink:href="#bn"/><use transform="matrix(0.04938271604938272,0,0,0.04938271604938272,68.39506172839506,0)" xlink:href="#bb"/><use transform="matrix(0.04938271604938272,0,0,0.04938271604938272,73.33333333333334,0)" xlink:href="#bq"/><use transform="matrix(0.04938271604938272,0,0,0.04938271604938272,83.20987654320989,0)" xlink:href="#bd"/><use transform="matrix(0.04938271604938272,0,0,0.04938271604938272,93.08641975308643,0)" xlink:href="#aZ"/><use transform="matrix(0.04938271604938272,0,0,0.04938271604938272,102.96296296296298,0)" xlink:href="#bb"/><use transform="matrix(0.04938271604938272,0,0,0.04938271604938272,107.90123456790124,0)" xlink:href="#ba"/><use transform="matrix(0.04938271604938272,0,0,0.04938271604938272,111.80246913580248,0)" xlink:href="#br"/><use transform="matrix(0.04938271604938272,0,0,0.04938271604938272,120.69135802469137,0)" xlink:href="#bg"/><use transform="matrix(0.04938271604938272,0,0,0.04938271604938272,130.5679012345679,0)" xlink:href="#bb"/><use transform="matrix(0.04938271604938272,0,0,0.04938271604938272,135.50617283950618,0)" xlink:href="#bf"/><use transform="matrix(0.04938271604938272,0,0,0.04938271604938272,145.38271604938274,0)" xlink:href="#bj"/><use transform="matrix(0.04938271604938272,0,0,0.04938271604938272,151.25925925925927,0)" xlink:href="#bB"/><use transform="matrix(0.04938271604938272,0,0,0.04938271604938272,167.65432098765433,0)" xlink:href="#bj"/><use transform="matrix(0.04938271604938272,0,0,0.04938271604938272,173.53086419753086,0)" xlink:href="#bg"/><use transform="matrix(0.04938271604938272,0,0,0.04938271604938272,183.4074074074074,0)" xlink:href="#bt"/><use transform="matrix(0.04938271604938272,0,0,0.04938271604938272,193.28395061728395,0)" xlink:href="#bt"/><use transform="matrix(0.04938271604938272,0,0,0.04938271604938272,203.1604938271605,0)" xlink:href="#bd"/><use transform="matrix(0.04938271604938272,0,0,0.04938271604938272,213.03703703703707,0)" xlink:href="#bj"/></g><g id="W"><use transform="matrix(0.04938271604938272,0,0,0.04938271604938272,0,0)" xlink:href="#bq"/><use transform="matrix(0.04938271604938272,0,0,0.04938271604938272,9.876543209876544,0)" xlink:href="#ba"/><use transform="matrix(0.04938271604938272,0,0,0.04938271604938272,13.777777777777779,0)" xlink:href="#aZ"/><use transform="matrix(0.04938271604938272,0,0,0.04938271604938272,23.654320987654323,0)" xlink:href="#bC"/><use transform="matrix(0.04938271604938272,0,0,0.04938271604938272,32.543209876543216,0)" xlink:href="#bn"/></g><g id="X"><use transform="matrix(0.04938271604938272,0,0,0.04938271604938272,0,0)" xlink:href="#aJ"/><use transform="matrix(0.04938271604938272,0,0,0.04938271604938272,12.790123456790125,0)" xlink:href="#aK"/><use transform="matrix(0.04938271604938272,0,0,0.04938271604938272,25.58024691358025,0)" xlink:href="#aL"/><use transform="matrix(0.04938271604938272,0,0,0.04938271604938272,36.39506172839506,0)" xlink:href="#aM"/><use transform="matrix(0.04938271604938272,0,0,0.04938271604938272,49.18518518518519,0)" xlink:href="#aN"/><use transform="matrix(0.04938271604938272,0,0,0.04938271604938272,61.037037037037045,0)" xlink:href="#aO"/><use transform="matrix(0.04938271604938272,0,0,0.04938271604938272,73.82716049382717,0)" xlink:href="#aL"/><use transform="matrix(0.04938271604938272,0,0,0.04938271604938272,84.64197530864197,0)" xlink:href="#aP"/><use transform="matrix(0.04938271604938272,0,0,0.04938271604938272,89.58024691358025,0)" xlink:href="#aQ"/><use transform="matrix(0.04938271604938272,0,0,0.04938271604938272,102.37037037037038,0)" xlink:href="#aJ"/><use transform="matrix(0.04938271604938272,0,0,0.04938271604938272,113.82716049382717,0)" xlink:href="#aL"/><use transform="matrix(0.04938271604938272,0,0,0.04938271604938272,124.64197530864199,0)" xlink:href="#aP"/><use transform="matrix(0.04938271604938272,0,0,0.04938271604938272,129.58024691358025,0)" xlink:href="#aR"/><use transform="matrix(0.04938271604938272,0,0,0.04938271604938272,143.40740740740742,0)" xlink:href="#aO"/></g><g id="Y"><use transform="matrix(0.04938271604938272,0,0,0.04938271604938272,0,0)" xlink:href="#aQ"/><use transform="matrix(0.04938271604938272,0,0,0.04938271604938272,12.790123456790125,0)" xlink:href="#aT"/><use transform="matrix(0.04938271604938272,0,0,0.04938271604938272,23.60493827160494,0)" xlink:href="#aP"/><use transform="matrix(0.04938271604938272,0,0,0.04938271604938272,28.543209876543212,0)" xlink:href="#aN"/><use transform="matrix(0.04938271604938272,0,0,0.04938271604938272,40.39506172839506,0)" xlink:href="#aO"/><use transform="matrix(0.04938271604938272,0,0,0.04938271604938272,53.18518518518519,0)" xlink:href="#aL"/></g><path fill="#333" d="M24-248c120-7 223 5 221 122C244-46 201 0 124 0H24v-248zM76-40c74 7 117-18 117-86 0-67-45-88-117-82v168" id="bR"/><g id="Z"><use transform="matrix(0.04938271604938272,0,0,0.04938271604938272,0,0)" xlink:href="#aM"/><use transform="matrix(0.04938271604938272,0,0,0.04938271604938272,12.790123456790125,0)" xlink:href="#aJ"/><use transform="matrix(0.04938271604938272,0,0,0.04938271604938272,25.58024691358025,0)" xlink:href="#aO"/><use transform="matrix(0.04938271604938272,0,0,0.04938271604938272,38.370370370370374,0)" xlink:href="#bR"/><use transform="matrix(0.04938271604938272,0,0,0.04938271604938272,51.1604938271605,0)" xlink:href="#aT"/><use transform="matrix(0.04938271604938272,0,0,0.04938271604938272,61.97530864197532,0)" xlink:href="#aN"/><use transform="matrix(0.04938271604938272,0,0,0.04938271604938272,73.82716049382717,0)" xlink:href="#aS"/></g><g id="aa"><use transform="matrix(0.04938271604938272,0,0,0.04938271604938272,0,0)" xlink:href="#bl"/><use transform="matrix(0.04938271604938272,0,0,0.04938271604938272,11.851851851851853,0)" xlink:href="#bm"/><use transform="matrix(0.04938271604938272,0,0,0.04938271604938272,20.74074074074074,0)" xlink:href="#bb"/><use transform="matrix(0.04938271604938272,0,0,0.04938271604938272,25.679012345679016,0)" xlink:href="#bn"/><use transform="matrix(0.04938271604938272,0,0,0.04938271604938272,35.55555555555556,0)" xlink:href="#bg"/><use transform="matrix(0.04938271604938272,0,0,0.04938271604938272,45.4320987654321,0)" xlink:href="#bu"/><use transform="matrix(0.04938271604938272,0,0,0.04938271604938272,49.333333333333336,0)" xlink:href="#ba"/><use transform="matrix(0.04938271604938272,0,0,0.04938271604938272,53.23456790123457,0)" xlink:href="#bo"/><use transform="matrix(0.04938271604938272,0,0,0.04938271604938272,62.12345679012345,0)" xlink:href="#ba"/><use transform="matrix(0.04938271604938272,0,0,0.04938271604938272,66.0246913580247,0)" xlink:href="#bd"/><use transform="matrix(0.04938271604938272,0,0,0.04938271604938272,75.90123456790124,0)" xlink:href="#bj"/><use transform="matrix(0.04938271604938272,0,0,0.04938271604938272,81.77777777777779,0)" xlink:href="#bb"/></g><g id="ab"><use transform="matrix(0.04938271604938272,0,0,0.04938271604938272,0,0)" xlink:href="#bP"/><use transform="matrix(0.04938271604938272,0,0,0.04938271604938272,9.876543209876544,0)" xlink:href="#bd"/><use transform="matrix(0.04938271604938272,0,0,0.04938271604938272,19.75308641975309,0)" xlink:href="#aZ"/></g><g id="ac"><use transform="matrix(0.04938271604938272,0,0,0.04938271604938272,0,0)" xlink:href="#bA"/><use transform="matrix(0.04938271604938272,0,0,0.04938271604938272,10.17283950617284,0)" xlink:href="#ba"/><use transform="matrix(0.04938271604938272,0,0,0.04938271604938272,14.074074074074074,0)" xlink:href="#be"/><use transform="matrix(0.04938271604938272,0,0,0.04938271604938272,28.83950617283951,0)" xlink:href="#bd"/><use transform="matrix(0.04938271604938272,0,0,0.04938271604938272,38.71604938271605,0)" xlink:href="#bo"/><use transform="matrix(0.04938271604938272,0,0,0.04938271604938272,47.60493827160494,0)" xlink:href="#bb"/><use transform="matrix(0.04938271604938272,0,0,0.04938271604938272,52.543209876543216,0)" xlink:href="#bg"/><use transform="matrix(0.04938271604938272,0,0,0.04938271604938272,62.41975308641976,0)" xlink:href="#be"/><use transform="matrix(0.04938271604938272,0,0,0.04938271604938272,77.18518518518519,0)" xlink:href="#bt"/></g><g id="ad"><use transform="matrix(0.04938271604938272,0,0,0.04938271604938272,0,0)" xlink:href="#bl"/><use transform="matrix(0.04938271604938272,0,0,0.04938271604938272,11.851851851851853,0)" xlink:href="#bn"/><use transform="matrix(0.04938271604938272,0,0,0.04938271604938272,21.7283950617284,0)" xlink:href="#bb"/><use transform="matrix(0.04938271604938272,0,0,0.04938271604938272,26.666666666666668,0)" xlink:href="#bq"/><use transform="matrix(0.04938271604938272,0,0,0.04938271604938272,36.543209876543216,0)" xlink:href="#bd"/><use transform="matrix(0.04938271604938272,0,0,0.04938271604938272,46.41975308641976,0)" xlink:href="#aZ"/><use transform="matrix(0.04938271604938272,0,0,0.04938271604938272,56.2962962962963,0)" xlink:href="#bb"/><use transform="matrix(0.04938271604938272,0,0,0.04938271604938272,61.23456790123457,0)" xlink:href="#ba"/><use transform="matrix(0.04938271604938272,0,0,0.04938271604938272,65.13580246913581,0)" xlink:href="#br"/><use transform="matrix(0.04938271604938272,0,0,0.04938271604938272,74.0246913580247,0)" xlink:href="#bg"/><use transform="matrix(0.04938271604938272,0,0,0.04938271604938272,83.90123456790124,0)" xlink:href="#bb"/><use transform="matrix(0.04938271604938272,0,0,0.04938271604938272,88.83950617283952,0)" xlink:href="#bf"/><use transform="matrix(0.04938271604938272,0,0,0.04938271604938272,98.71604938271606,0)" xlink:href="#bj"/><use transform="matrix(0.04938271604938272,0,0,0.04938271604938272,104.5925925925926,0)" xlink:href="#bo"/></g><path fill="#333" d="M140-139c13 36 65 36 65 87 0 58-68 64-113 47v-29c22 14 87 23 83-17-4-47-80-39-61-102 7-22 36-25 36-53 0-21-19-30-43-30-36 0-51 20-50 57V0H25v-181c0-54 29-79 82-80 41 0 71 15 73 52 3 39-32 43-40 70" id="bS"/><g id="ae"><use transform="matrix(0.05,0,0,0.05,0,0)" xlink:href="#bg"/><use transform="matrix(0.05,0,0,0.05,10,0)" xlink:href="#bh"/><use transform="matrix(0.05,0,0,0.05,20,0)" xlink:href="#bo"/><use transform="matrix(0.05,0,0,0.05,29,0)" xlink:href="#br"/><use transform="matrix(0.05,0,0,0.05,38,0)" xlink:href="#bq"/><use transform="matrix(0.05,0,0,0.05,48,0)" xlink:href="#bu"/><use transform="matrix(0.05,0,0,0.05,51.95,0)" xlink:href="#ba"/><use transform="matrix(0.05,0,0,0.05,55.900000000000006,0)" xlink:href="#bd"/><use transform="matrix(0.05,0,0,0.05,65.9,0)" xlink:href="#bS"/><use transform="matrix(0.05,0,0,0.05,76.85000000000001,0)" xlink:href="#bd"/><use transform="matrix(0.05,0,0,0.05,86.85000000000001,0)" xlink:href="#aZ"/></g><path fill="#333" d="M169-182c-1-43-94-46-97-3 18 66 151 10 154 114 3 95-165 93-204 36-6-8-10-19-12-30l50-8c3 46 112 56 116 5-17-69-150-10-154-114-4-87 153-88 188-35 5 8 8 18 10 28" id="bT"/><g id="af"><use transform="matrix(0.04938271604938272,0,0,0.04938271604938272,0,0)" xlink:href="#bT"/><use transform="matrix(0.04938271604938272,0,0,0.04938271604938272,11.851851851851853,0)" xlink:href="#aN"/><use transform="matrix(0.04938271604938272,0,0,0.04938271604938272,23.703703703703706,0)" xlink:href="#bT"/><use transform="matrix(0.04938271604938272,0,0,0.04938271604938272,35.55555555555556,0)" xlink:href="#bT"/><use transform="matrix(0.04938271604938272,0,0,0.04938271604938272,47.40740740740741,0)" xlink:href="#aP"/><use transform="matrix(0.04938271604938272,0,0,0.04938271604938272,52.345679012345684,0)" xlink:href="#aR"/><use transform="matrix(0.04938271604938272,0,0,0.04938271604938272,66.17283950617285,0)" xlink:href="#aO"/></g><path fill="#333" d="M67-125c0 54 23 88 75 88 28 0 53-7 68-21v-34h-60v-39h108v91C232-14 192 4 140 4 58 4 20-42 15-125 8-236 126-280 215-234c19 10 29 26 37 47l-47 15c-11-23-29-39-63-39-53 1-75 33-75 86" id="bU"/><g id="ag"><use transform="matrix(0.04938271604938272,0,0,0.04938271604938272,0,0)" xlink:href="#aX"/><use transform="matrix(0.04938271604938272,0,0,0.04938271604938272,14.765432098765434,0)" xlink:href="#aJ"/><use transform="matrix(0.04938271604938272,0,0,0.04938271604938272,27.555555555555557,0)" xlink:href="#aO"/><use transform="matrix(0.04938271604938272,0,0,0.04938271604938272,40.345679012345684,0)" xlink:href="#aJ"/><use transform="matrix(0.04938271604938272,0,0,0.04938271604938272,53.135802469135804,0)" xlink:href="#bU"/><use transform="matrix(0.04938271604938272,0,0,0.04938271604938272,66.96296296296298,0)" xlink:href="#aN"/><use transform="matrix(0.04938271604938272,0,0,0.04938271604938272,78.81481481481482,0)" xlink:href="#aS"/></g><path fill="#333" d="M30 0v-248h33v221h125V0H30" id="bV"/><g id="ah"><use transform="matrix(0.05,0,0,0.05,0,0)" xlink:href="#bV"/><use transform="matrix(0.05,0,0,0.05,10,0)" xlink:href="#bf"/><use transform="matrix(0.05,0,0,0.05,20,0)" xlink:href="#bk"/><use transform="matrix(0.05,0,0,0.05,30,0)" xlink:href="#ba"/><use transform="matrix(0.05,0,0,0.05,33.95,0)" xlink:href="#aZ"/><use transform="matrix(0.05,0,0,0.05,43.95,0)" xlink:href="#bo"/><use transform="matrix(0.05,0,0,0.05,52.95,0)" xlink:href="#bb"/><use transform="matrix(0.05,0,0,0.05,57.95,0)" xlink:href="#bg"/><use transform="matrix(0.05,0,0,0.05,67.95,0)" xlink:href="#bb"/><use transform="matrix(0.05,0,0,0.05,72.95,0)" xlink:href="#bn"/><use transform="matrix(0.05,0,0,0.05,82.95,0)" xlink:href="#bo"/></g><g id="ai"><use transform="matrix(0.05,0,0,0.05,0,0)" xlink:href="#bV"/><use transform="matrix(0.05,0,0,0.05,10,0)" xlink:href="#bf"/><use transform="matrix(0.05,0,0,0.05,20,0)" xlink:href="#bk"/><use transform="matrix(0.05,0,0,0.05,30,0)" xlink:href="#bk"/><use transform="matrix(0.05,0,0,0.05,40,0)" xlink:href="#bd"/></g><g id="aj"><use transform="matrix(0.05,0,0,0.05,0,0)" xlink:href="#bH"/><use transform="matrix(0.05,0,0,0.05,12.950000000000001,0)" xlink:href="#bu"/><use transform="matrix(0.05,0,0,0.05,16.900000000000002,0)" xlink:href="#ba"/><use transform="matrix(0.05,0,0,0.05,20.85,0)" xlink:href="#bd"/><use transform="matrix(0.05,0,0,0.05,30.85,0)" xlink:href="#aZ"/><use transform="matrix(0.05,0,0,0.05,40.85,0)" xlink:href="#bb"/></g><g id="ak"><use transform="matrix(0.05,0,0,0.05,0,0)" xlink:href="#bf"/><use transform="matrix(0.05,0,0,0.05,10,0)" xlink:href="#bP"/><use transform="matrix(0.05,0,0,0.05,20,0)" xlink:href="#bd"/><use transform="matrix(0.05,0,0,0.05,30,0)" xlink:href="#bj"/></g><path fill="#333" d="M190 0L58-211 59 0H30v-248h39L202-35l-2-213h31V0h-41" id="bW"/><g id="al"><use transform="matrix(0.05,0,0,0.05,0,0)" xlink:href="#bW"/><use transform="matrix(0.05,0,0,0.05,12.950000000000001,0)" xlink:href="#bn"/><use transform="matrix(0.05,0,0,0.05,22.950000000000003,0)" xlink:href="#bb"/><use transform="matrix(0.05,0,0,0.05,27.950000000000003,0)" xlink:href="#bC"/><use transform="matrix(0.05,0,0,0.05,36.95,0)" xlink:href="#bd"/><use transform="matrix(0.05,0,0,0.05,46.95,0)" xlink:href="#bj"/></g><g id="am"><use transform="matrix(0.05,0,0,0.05,0,0)" xlink:href="#bd"/><use transform="matrix(0.05,0,0,0.05,10,0)" xlink:href="#bj"/><use transform="matrix(0.05,0,0,0.05,15.949999999999998,0)" xlink:href="#aZ"/><use transform="matrix(0.05,0,0,0.05,25.950000000000003,0)" xlink:href="#bd"/><use transform="matrix(0.05,0,0,0.05,35.95,0)" xlink:href="#bn"/><use transform="matrix(0.05,0,0,0.05,45.95,0)" xlink:href="#bb"/></g><g id="an"><use transform="matrix(0.05,0,0,0.05,0,0)" xlink:href="#bd"/><use transform="matrix(0.05,0,0,0.05,10,0)" xlink:href="#ba"/><use transform="matrix(0.05,0,0,0.05,13.949999999999998,0)" xlink:href="#aZ"/></g><g id="ao"><use transform="matrix(0.04938271604938272,0,0,0.04938271604938272,0,0)" xlink:href="#bN"/><use transform="matrix(0.04938271604938272,0,0,0.04938271604938272,4.938271604938272,0)" xlink:href="#bo"/><use transform="matrix(0.04938271604938272,0,0,0.04938271604938272,13.827160493827162,0)" xlink:href="#bb"/></g><g id="ap"><use transform="matrix(0.04938271604938272,0,0,0.04938271604938272,0,0)" xlink:href="#bP"/><use transform="matrix(0.04938271604938272,0,0,0.04938271604938272,9.876543209876544,0)" xlink:href="#ba"/><use transform="matrix(0.04938271604938272,0,0,0.04938271604938272,13.777777777777779,0)" xlink:href="#bd"/></g><g id="aq"><use transform="matrix(0.04938271604938272,0,0,0.04938271604938272,0,0)" xlink:href="#bI"/><use transform="matrix(0.04938271604938272,0,0,0.04938271604938272,11.851851851851853,0)" xlink:href="#bd"/><use transform="matrix(0.04938271604938272,0,0,0.04938271604938272,21.7283950617284,0)" xlink:href="#bo"/><use transform="matrix(0.04938271604938272,0,0,0.04938271604938272,30.617283950617285,0)" xlink:href="#bo"/><use transform="matrix(0.04938271604938272,0,0,0.04938271604938272,39.50617283950618,0)" xlink:href="#ba"/><use transform="matrix(0.04938271604938272,0,0,0.04938271604938272,43.40740740740741,0)" xlink:href="#bf"/><use transform="matrix(0.04938271604938272,0,0,0.04938271604938272,53.283950617283956,0)" xlink:href="#aZ"/></g><g id="ar"><use transform="matrix(0.04938271604938272,0,0,0.04938271604938272,0,0)" xlink:href="#bn"/><use transform="matrix(0.04938271604938272,0,0,0.04938271604938272,9.876543209876544,0)" xlink:href="#aZ"/><use transform="matrix(0.04938271604938272,0,0,0.04938271604938272,19.75308641975309,0)" xlink:href="#bk"/><use transform="matrix(0.04938271604938272,0,0,0.04938271604938272,29.629629629629633,0)" xlink:href="#bp"/><use transform="matrix(0.04938271604938272,0,0,0.04938271604938272,39.50617283950618,0)" xlink:href="#bu"/><use transform="matrix(0.04938271604938272,0,0,0.04938271604938272,43.40740740740741,0)" xlink:href="#bb"/><use transform="matrix(0.04938271604938272,0,0,0.04938271604938272,48.345679012345684,0)" xlink:href="#ba"/><use transform="matrix(0.04938271604938272,0,0,0.04938271604938272,52.24691358024692,0)" xlink:href="#bk"/><use transform="matrix(0.04938271604938272,0,0,0.04938271604938272,62.12345679012346,0)" xlink:href="#bD"/></g><g id="as"><use transform="matrix(0.04938271604938272,0,0,0.04938271604938272,0,0)" xlink:href="#bu"/><use transform="matrix(0.04938271604938272,0,0,0.04938271604938272,3.901234567901235,0)" xlink:href="#bf"/><use transform="matrix(0.04938271604938272,0,0,0.04938271604938272,13.777777777777779,0)" xlink:href="#bk"/><use transform="matrix(0.04938271604938272,0,0,0.04938271604938272,23.654320987654323,0)" xlink:href="#bk"/><use transform="matrix(0.04938271604938272,0,0,0.04938271604938272,33.53086419753087,0)" xlink:href="#bd"/></g><g id="at"><use transform="matrix(0.04938271604938272,0,0,0.04938271604938272,0,0)" xlink:href="#bH"/><use transform="matrix(0.04938271604938272,0,0,0.04938271604938272,12.790123456790125,0)" xlink:href="#bu"/><use transform="matrix(0.04938271604938272,0,0,0.04938271604938272,16.69135802469136,0)" xlink:href="#ba"/><use transform="matrix(0.04938271604938272,0,0,0.04938271604938272,20.592592592592595,0)" xlink:href="#bd"/><use transform="matrix(0.04938271604938272,0,0,0.04938271604938272,30.46913580246914,0)" xlink:href="#aZ"/><use transform="matrix(0.04938271604938272,0,0,0.04938271604938272,40.345679012345684,0)" xlink:href="#bb"/></g><g id="au"><use transform="matrix(0.04938271604938272,0,0,0.04938271604938272,0,0)" xlink:href="#bo"/><use transform="matrix(0.04938271604938272,0,0,0.04938271604938272,8.88888888888889,0)" xlink:href="#bb"/><use transform="matrix(0.04938271604938272,0,0,0.04938271604938272,13.827160493827162,0)" xlink:href="#bd"/><use transform="matrix(0.04938271604938272,0,0,0.04938271604938272,23.703703703703706,0)" xlink:href="#bb"/><use transform="matrix(0.04938271604938272,0,0,0.04938271604938272,28.641975308641978,0)" xlink:href="#bo"/></g><g id="av"><use transform="matrix(0.04938271604938272,0,0,0.04938271604938272,0,0)" xlink:href="#bd"/><use transform="matrix(0.04938271604938272,0,0,0.04938271604938272,9.876543209876544,0)" xlink:href="#bj"/><use transform="matrix(0.04938271604938272,0,0,0.04938271604938272,15.753086419753087,0)" xlink:href="#aZ"/><use transform="matrix(0.04938271604938272,0,0,0.04938271604938272,25.629629629629633,0)" xlink:href="#bd"/><use transform="matrix(0.04938271604938272,0,0,0.04938271604938272,35.50617283950618,0)" xlink:href="#bn"/><use transform="matrix(0.04938271604938272,0,0,0.04938271604938272,45.38271604938272,0)" xlink:href="#bb"/></g><g id="aw"><use transform="matrix(0.04938271604938272,0,0,0.04938271604938272,0,0)" xlink:href="#bd"/><use transform="matrix(0.04938271604938272,0,0,0.04938271604938272,9.876543209876544,0)" xlink:href="#ba"/><use transform="matrix(0.04938271604938272,0,0,0.04938271604938272,13.777777777777779,0)" xlink:href="#aZ"/><use transform="matrix(0.04938271604938272,0,0,0.04938271604938272,23.654320987654323,0)" xlink:href="#bG"/></g><g id="ax"><use transform="matrix(0.04938271604938272,0,0,0.04938271604938272,0,0)" xlink:href="#bV"/><use transform="matrix(0.04938271604938272,0,0,0.04938271604938272,9.876543209876544,0)" xlink:href="#bf"/><use transform="matrix(0.04938271604938272,0,0,0.04938271604938272,19.75308641975309,0)" xlink:href="#bk"/><use transform="matrix(0.04938271604938272,0,0,0.04938271604938272,29.629629629629633,0)" xlink:href="#bk"/><use transform="matrix(0.04938271604938272,0,0,0.04938271604938272,39.50617283950618,0)" xlink:href="#bd"/></g><g id="ay"><use transform="matrix(0.04938271604938272,0,0,0.04938271604938272,0,0)" xlink:href="#aY"/><use transform="matrix(0.04938271604938272,0,0,0.04938271604938272,12.790123456790125,0)" xlink:href="#bo"/><use transform="matrix(0.04938271604938272,0,0,0.04938271604938272,21.679012345679013,0)" xlink:href="#bd"/><use transform="matrix(0.04938271604938272,0,0,0.04938271604938272,31.555555555555557,0)" xlink:href="#bj"/></g><g id="az"><use transform="matrix(0.04938271604938272,0,0,0.04938271604938272,0,0)" xlink:href="#aZ"/><use transform="matrix(0.04938271604938272,0,0,0.04938271604938272,9.876543209876544,0)" xlink:href="#bn"/><use transform="matrix(0.04938271604938272,0,0,0.04938271604938272,19.75308641975309,0)" xlink:href="#bj"/></g><g id="aA"><use transform="matrix(0.04938271604938272,0,0,0.04938271604938272,0,0)" xlink:href="#bd"/><use transform="matrix(0.04938271604938272,0,0,0.04938271604938272,9.876543209876544,0)" xlink:href="#ba"/><use transform="matrix(0.04938271604938272,0,0,0.04938271604938272,13.777777777777779,0)" xlink:href="#aZ"/><use transform="matrix(0.04938271604938272,0,0,0.04938271604938272,23.654320987654323,0)" xlink:href="#bD"/></g><g id="aB"><use transform="matrix(0.04938271604938272,0,0,0.04938271604938272,0,0)" xlink:href="#bi"/><use transform="matrix(0.04938271604938272,0,0,0.04938271604938272,4.938271604938272,0)" xlink:href="#bg"/><use transform="matrix(0.04938271604938272,0,0,0.04938271604938272,14.814814814814817,0)" xlink:href="#bu"/><use transform="matrix(0.04938271604938272,0,0,0.04938271604938272,18.71604938271605,0)" xlink:href="#bu"/><use transform="matrix(0.04938271604938272,0,0,0.04938271604938272,22.617283950617285,0)" xlink:href="#bo"/></g><g id="aC"><use transform="matrix(0.04938271604938272,0,0,0.04938271604938272,0,0)" xlink:href="#bJ"/><use transform="matrix(0.04938271604938272,0,0,0.04938271604938272,8.88888888888889,0)" xlink:href="#bf"/><use transform="matrix(0.04938271604938272,0,0,0.04938271604938272,18.765432098765434,0)" xlink:href="#be"/></g><g id="aD"><use transform="matrix(0.04938271604938272,0,0,0.04938271604938272,0,0)" xlink:href="#bW"/><use transform="matrix(0.04938271604938272,0,0,0.04938271604938272,12.790123456790125,0)" xlink:href="#bn"/><use transform="matrix(0.04938271604938272,0,0,0.04938271604938272,22.66666666666667,0)" xlink:href="#bb"/><use transform="matrix(0.04938271604938272,0,0,0.04938271604938272,27.604938271604947,0)" xlink:href="#bC"/><use transform="matrix(0.04938271604938272,0,0,0.04938271604938272,36.49382716049384,0)" xlink:href="#bd"/><use transform="matrix(0.04938271604938272,0,0,0.04938271604938272,46.37037037037038,0)" xlink:href="#bj"/></g><g id="aE"><use transform="matrix(0.04938271604938272,0,0,0.04938271604938272,0,0)" xlink:href="#bk"/><use transform="matrix(0.04938271604938272,0,0,0.04938271604938272,9.876543209876544,0)" xlink:href="#bd"/><use transform="matrix(0.04938271604938272,0,0,0.04938271604938272,19.75308641975309,0)" xlink:href="#bE"/><use transform="matrix(0.04938271604938272,0,0,0.04938271604938272,32.543209876543216,0)" xlink:href="#bp"/><use transform="matrix(0.04938271604938272,0,0,0.04938271604938272,42.41975308641976,0)" xlink:href="#aZ"/><use transform="matrix(0.04938271604938272,0,0,0.04938271604938272,52.2962962962963,0)" xlink:href="#bo"/><use transform="matrix(0.04938271604938272,0,0,0.04938271604938272,61.18518518518519,0)" xlink:href="#br"/><use transform="matrix(0.04938271604938272,0,0,0.04938271604938272,70.07407407407408,0)" xlink:href="#bq"/><use transform="matrix(0.04938271604938272,0,0,0.04938271604938272,79.95061728395062,0)" xlink:href="#bb"/></g><g id="aF"><use transform="matrix(0.05,0,0,0.05,0,0)" xlink:href="#bh"/><use transform="matrix(0.05,0,0,0.05,10,0)" xlink:href="#bf"/><use transform="matrix(0.05,0,0,0.05,20,0)" xlink:href="#bf"/><use transform="matrix(0.05,0,0,0.05,30,0)" xlink:href="#bu"/><use transform="matrix(0.05,0,0,0.05,33.95,0)" xlink:href="#bd"/><use transform="matrix(0.05,0,0,0.05,43.95,0)" xlink:href="#bg"/><use transform="matrix(0.05,0,0,0.05,53.95,0)" xlink:href="#aZ"/></g><g id="aG"><use transform="matrix(0.05,0,0,0.05,0,0)" xlink:href="#bH"/><use transform="matrix(0.05,0,0,0.05,12.950000000000001,0)" xlink:href="#bu"/><use transform="matrix(0.05,0,0,0.05,16.900000000000002,0)" xlink:href="#ba"/><use transform="matrix(0.05,0,0,0.05,20.85,0)" xlink:href="#bd"/><use transform="matrix(0.05,0,0,0.05,30.85,0)" xlink:href="#aZ"/><use transform="matrix(0.05,0,0,0.05,40.85,0)" xlink:href="#bb"/><use transform="matrix(0.05,0,0,0.05,45.85,0)" xlink:href="#bN"/><use transform="matrix(0.05,0,0,0.05,50.85,0)" xlink:href="#bP"/></g><path fill="#333" d="M0 4l72-265h28L28 4H0" id="bX"/><use transform="matrix(0.05,0,0,0.05,0,0)" xlink:href="#bX" id="aH"/><g id="aI"><use transform="matrix(0.05,0,0,0.05,0,0)" xlink:href="#aY"/><use transform="matrix(0.05,0,0,0.05,12.950000000000001,0)" xlink:href="#bo"/><use transform="matrix(0.05,0,0,0.05,21.950000000000003,0)" xlink:href="#bd"/><use transform="matrix(0.05,0,0,0.05,31.950000000000003,0)" xlink:href="#bj"/><use transform="matrix(0.05,0,0,0.05,37.900000000000006,0)" xlink:href="#bN"/><use transform="matrix(0.05,0,0,0.05,42.900000000000006,0)" xlink:href="#bP"/></g></defs></g></svg>