<svg xmlns="http://www.w3.org/2000/svg" xmlns:xlink="http://www.w3.org/1999/xlink" width="1549.5" height="511"><g transform="translate(-108 -60)"><path d="M0 0h1760v1360H0z" fill="#fff"/><path d="M208 201v139" fill="none"/><path d="M208 201v9.27m0 9.26v18.54m0 9.26v18.54m0 9.26v18.54m0 9.26v18.54m0 9.26V340" stroke="#999" stroke-width="2" fill="none"/><path d="M209 201h-2v-1h2z" fill="#999"/><path d="M1527.5 200v354.67" fill="none"/><path d="M1527.5 200v9.85m0 9.85v19.7m0 9.86v19.7m0 9.85v19.72m0 9.85v19.7m0 9.86v19.7m0 9.85v19.7m0 9.86v19.7m0 9.85v19.7m0 9.85v19.7m0 9.85v19.7m0 9.86v19.7m0 9.85v9.87" stroke="#999" stroke-width="2" fill="none"/><path d="M1058 85c0-2.76 2.24-5 5-5h210c2.76 0 5 2.24 5 5v110c0 2.76-2.24 5-5 5h-210c-2.76 0-5-2.24-5-5z" stroke="#666" stroke-width="2" fill="#a3d977"/><use xlink:href="#a" transform="matrix(1,0,0,1,1058,80) translate(31.901234567901227 51.72222222222222)"/><use xlink:href="#b" transform="matrix(1,0,0,1,1058,80) translate(64.19753086419752 73.05555555555556)"/><path d="M1168 560V200" fill="none"/><path d="M1168 560v-10m0-10v-20m0-10v-20m0-10v-20m0-10v-20m0-10v-20m0-10v-20m0-10v-20m0-10v-20m0-10v-20m0-10v-20m0-10v-20m0-10v-10" stroke="#999" stroke-width="2" fill="none"/><path d="M128 85c0-2.76 2.24-5 5-5h150c2.76 0 5 2.24 5 5v110c0 2.76-2.24 5-5 5H133c-2.76 0-5-2.24-5-5z" stroke="#666" stroke-width="2" fill="#83bbe5"/><use xlink:href="#c" transform="matrix(1,0,0,1,128,80) translate(48.96296296296296 62.97222222222222)"/><path d="M440 85c0-2.76 2.24-5 5-5h150c2.76 0 5 2.24 5 5v110c0 2.76-2.24 5-5 5H445c-2.76 0-5-2.24-5-5z" stroke="#666" stroke-width="2" fill="#ffc374"/><use xlink:href="#d" transform="matrix(1,0,0,1,440,80) translate(40.029999999999994 51.9)"/><use xlink:href="#e" transform="matrix(1,0,0,1,440,80) translate(33.62999999999999 73.5)"/><path d="M739.5 85c0-2.76 2.24-5 5-5h169c2.76 0 5 2.24 5 5v110c0 2.76-2.24 5-5 5h-169c-2.76 0-5-2.24-5-5z" stroke="#666" stroke-width="2" fill="#ccc"/><use xlink:href="#a" transform="matrix(1,0,0,1,739.5,80) translate(11.401234567901227 51.72222222222222)"/><use xlink:href="#f" transform="matrix(1,0,0,1,739.5,80) translate(51.54938271604939 73.05555555555556)"/><path d="M829 200v357.33" fill="none"/><path d="M829 200v9.93m0 9.92v19.85m0 9.93v19.85m0 9.93v19.86m0 9.93v19.84m0 9.92v19.85m0 9.94v19.85m0 9.92v19.85m0 9.93v19.85m0 9.92v19.86m0 9.92v19.85m0 9.93v19.85m0 9.93v9.93" stroke="#999" stroke-width="2" fill="none"/><path d="M520 200v360" fill="none"/><path d="M520 200v10m0 10v20m0 10v20m0 10v20m0 10v20m0 10v20m0 10v20m0 10v20m0 10v20m0 10v20m0 10v20m0 10v20m0 10v10" stroke="#999" stroke-width="2" fill="none"/><path d="M1417.5 85c0-2.76 2.24-5 5-5h210c2.76 0 5 2.24 5 5v110c0 2.76-2.24 5-5 5h-210c-2.76 0-5-2.24-5-5z" stroke="#666" stroke-width="2" fill="#a3d977"/><use xlink:href="#a" transform="matrix(1,0,0,1,1417.5,80) translate(31.901234567901227 51.72222222222222)"/><use xlink:href="#g" transform="matrix(1,0,0,1,1417.5,80) translate(64.96296296296296 73.05555555555556)"/><path d="M188 245c0-2.76 2.24-5 5-5h30c2.76 0 5 2.24 5 5v70c0 2.76-2.24 5-5 5h-30c-2.76 0-5-2.24-5-5z" stroke="#666" stroke-width="2" fill="#f2f2f2"/><path d="M228 256h292" stroke="#999" stroke-width="2" fill="none"/><path d="M520 256l-14.27 4.64v-9.28z" stroke="#999" stroke-width="2" fill="#999"/><use xlink:href="#h" transform="matrix(1,0,0,1,294.7,230.39999999999995) translate(0 14.4)"/><path d="M520 257.33h308.67" stroke="#999" stroke-width="2" fill="none"/><path d="M828.67 257.33l-14.27 4.64v-9.27z" stroke="#999" stroke-width="2" fill="#999"/><path d="M829 257.33h339" stroke="#999" stroke-width="2" fill="none"/><path d="M1168 257.33l-14.27 4.64v-9.27z" stroke="#999" stroke-width="2" fill="#999"/><path d="M1168 259.55h339" stroke="#999" stroke-width="2" fill="none"/><path d="M1507 259.55l-14.27 4.63v-9.27z" fill="#999"/><path d="M1508 258.82v1.45l-16.27 5.3v-12.04zm-14.27 3.98l10.03-3.25-10.03-3.26z" fill="#999"/><path d="M234.5 300h291" stroke="#999" stroke-width="2" fill="none"/><path d="M234.5 300l14.27-4.64v9.28z" stroke="#999" stroke-width="2" fill="#999"/><use xlink:href="#i" transform="matrix(1,0,0,1,364.525,274.4) translate(0 14.4)"/><path d="M525.5 301.33h309" stroke="#999" stroke-width="2" fill="none"/><path d="M525.5 301.33l14.27-4.63v9.27z" stroke="#999" stroke-width="2" fill="#999"/><path d="M834.5 301.33h339" stroke="#999" stroke-width="2" fill="none"/><path d="M834.5 301.33l14.27-4.63v9.27z" stroke="#999" stroke-width="2" fill="#999"/><path d="M1173.5 301.33H1507" stroke="#999" stroke-width="2" fill="none"/><path d="M1173.5 301.33l14.27-4.63v9.27z" stroke="#999" stroke-width="2" fill="#999"/><path d="M1508 302.33h-1v-2h1z" fill="#999"/><path d="M128 345c0-2.76 2.24-5 5-5h150c2.76 0 5 2.24 5 5v110c0 2.76-2.24 5-5 5H133c-2.76 0-5-2.24-5-5z" stroke="#666" stroke-width="2" fill="#f2f2f2"/><use xlink:href="#j" transform="matrix(1,0,0,1,128,340) translate(10.130000000000004 51.9)"/><use xlink:href="#k" transform="matrix(1,0,0,1,128,340) translate(43.529999999999994 73.5)"/><path d="M289 380h211" stroke="#999" stroke-width="2" fill="none"/><path d="M289 381h-1v-2h1zM500 380l-14.27 4.64v-9.28z" fill="#999"/><path d="M500 378.95v2.1L484.73 386v-12zm-13.27 4.3l10.03-3.25-10.03-3.26z" fill="#999"/><path fill="#fff" d="M341.65 358.4h105.7v43.2h-105.7z"/><use xlink:href="#l" transform="matrix(1,0,0,1,341.65,358.4) translate(0.005000000000002558 14.4)"/><use xlink:href="#m" transform="matrix(1,0,0,1,341.65,358.4) translate(4.955000000000005 36)"/><use xlink:href="#n" transform="matrix(1,0,0,1,341.65,358.4) translate(65.855 36)"/><path d="M500 365c0-2.76 2.24-5 5-5h30c2.76 0 5 2.24 5 5v170c0 2.76-2.24 5-5 5h-30c-2.76 0-5-2.24-5-5zM1508 245c0-2.76 2.24-5 5-5h30c2.76 0 5 2.24 5 5v70c0 2.76-2.24 5-5 5h-30c-2.76 0-5-2.24-5-5z" stroke="#666" stroke-width="2" fill="#f2f2f2"/><path d="M540 393.33h287.33" stroke="#999" stroke-width="2" fill="none"/><path d="M827.33 393.33l-14.26 4.64v-9.27z" stroke="#999" stroke-width="2" fill="#999"/><use xlink:href="#o" transform="matrix(1,0,0,1,557.4916666666668,367.7333333333333) translate(0 14.4)"/><path d="M829 393.33h319" stroke="#999" stroke-width="2" fill="none"/><path d="M1148 393.33l-14.27 4.64v-9.27z" fill="#999"/><path d="M1148 392.28v2.1l-15.27 4.97v-12.03zm-13.27 4.3l10.03-3.25-10.03-3.26z" fill="#999"/><path d="M1148 385c0-2.76 2.24-5 5-5h30c2.76 0 5 2.24 5 5v150c0 2.76-2.24 5-5 5h-30c-2.76 0-5-2.24-5-5zM1508 385c0-2.76 2.24-5 5-5h30c2.76 0 5 2.24 5 5v50c0 2.76-2.24 5-5 5h-30c-2.76 0-5-2.24-5-5z" stroke="#666" stroke-width="2" fill="#f2f2f2"/><path d="M1188 389.33h319" stroke="#999" stroke-width="2" fill="none"/><path d="M1507 389.33l-14.27 4.64v-9.27z" fill="#999"/><path d="M1508 388.6v1.46l-16.27 5.3V383.3zm-14.27 4l10.03-3.27-10.03-3.26z" fill="#999"/><use xlink:href="#p" transform="matrix(1,0,0,1,1263.2,363.7333333333333) translate(0 14.4)"/><path d="M1188 420h319" stroke="#999" stroke-width="2" fill="none"/><path d="M1202.27 424.64L1188 420l14.27-4.64z" fill="#999"/><path d="M1203.27 426l-15.27-4.95v-2.1l15.27-4.96zm-12.03-6l10.03 3.26v-6.52zM1508 421h-1v-2h1z" fill="#999"/><path d="M1188 466.67h319" stroke="#999" stroke-width="2" fill="none"/><path d="M1507 466.67l-14.27 4.63v-9.27z" fill="#999"/><path d="M1508 465.94v1.45l-16.27 5.28v-12.03zm-14.27 4l10.03-3.27-10.03-3.26z" fill="#999"/><g><use xlink:href="#q" transform="matrix(1,0,0,1,1239.2,441.06666666666666) translate(0 14.4)"/><use xlink:href="#r" transform="matrix(1,0,0,1,1239.2,441.06666666666666) translate(181.7 14.4)"/></g><path d="M1508 465c0-2.76 2.24-5 5-5h30c2.76 0 5 2.24 5 5v50c0 2.76-2.24 5-5 5h-30c-2.76 0-5-2.24-5-5z" stroke="#666" stroke-width="2" fill="#f2f2f2"/><path d="M208 460v98.67" fill="none"/><path d="M208 460v10.96m0 10.97v21.92m0 10.96v21.94m0 10.96v10.97" stroke="#999" stroke-width="2" fill="none"/><defs><path fill="#333" d="M199 0l-22-63H83L61 0H9l90-248h61L250 0h-51zm-33-102l-36-108c-10 38-24 72-36 108h72" id="s"/><path fill="#333" d="M238-95c0 69-44 99-111 99C63 4 22-25 22-93v-155h51v151c-1 38 19 59 55 60 90 1 49-130 58-211h52v153" id="t"/><path fill="#333" d="M136-208V0H84v-208H4v-40h212v40h-80" id="u"/><path fill="#333" d="M186 0v-106H76V0H24v-248h52v99h110v-99h50V0h-50" id="v"/><path fill="#333" d="M24 0v-248h195v40H76v63h132v40H76v65h150V0H24" id="w"/><path fill="#333" d="M175 0L67-191c6 58 2 128 3 191H24v-248h59L193-55c-6-58-2-129-3-193h46V0h-61" id="x"/><path fill="#333" d="M24 0v-248h52V0H24" id="y"/><path fill="#333" d="M67-125c0 53 21 87 73 88 37 1 54-22 65-47l45 17C233-25 199 4 140 4 58 4 20-42 15-125 8-235 124-281 211-232c18 10 29 29 36 50l-46 12c-8-25-30-41-62-41-52 0-71 34-72 86" id="z"/><path fill="#333" d="M140-251c80 0 125 45 125 126S219 4 139 4C58 4 15-44 15-125s44-126 125-126zm-1 214c52 0 73-35 73-88 0-50-21-86-72-86-52 0-73 35-73 86s22 88 72 88" id="A"/><g id="a"><use transform="matrix(0.04938271604938272,0,0,0.04938271604938272,0,0)" xlink:href="#s"/><use transform="matrix(0.04938271604938272,0,0,0.04938271604938272,12.790123456790125,0)" xlink:href="#t"/><use transform="matrix(0.04938271604938272,0,0,0.04938271604938272,25.58024691358025,0)" xlink:href="#u"/><use transform="matrix(0.04938271604938272,0,0,0.04938271604938272,36.39506172839506,0)" xlink:href="#v"/><use transform="matrix(0.04938271604938272,0,0,0.04938271604938272,49.18518518518519,0)" xlink:href="#w"/><use transform="matrix(0.04938271604938272,0,0,0.04938271604938272,61.037037037037045,0)" xlink:href="#x"/><use transform="matrix(0.04938271604938272,0,0,0.04938271604938272,73.82716049382717,0)" xlink:href="#u"/><use transform="matrix(0.04938271604938272,0,0,0.04938271604938272,84.64197530864197,0)" xlink:href="#y"/><use transform="matrix(0.04938271604938272,0,0,0.04938271604938272,89.58024691358025,0)" xlink:href="#z"/><use transform="matrix(0.04938271604938272,0,0,0.04938271604938272,102.37037037037038,0)" xlink:href="#s"/><use transform="matrix(0.04938271604938272,0,0,0.04938271604938272,113.82716049382717,0)" xlink:href="#u"/><use transform="matrix(0.04938271604938272,0,0,0.04938271604938272,124.64197530864199,0)" xlink:href="#y"/><use transform="matrix(0.04938271604938272,0,0,0.04938271604938272,129.58024691358025,0)" xlink:href="#A"/><use transform="matrix(0.04938271604938272,0,0,0.04938271604938272,143.40740740740742,0)" xlink:href="#x"/></g><path fill="#333" d="M230 0l2-204L168 0h-37L68-204 70 0H24v-248h70l56 185 57-185h69V0h-46" id="B"/><path fill="#333" d="M67-125c0 54 23 88 75 88 28 0 53-7 68-21v-34h-60v-39h108v91C232-14 192 4 140 4 58 4 20-42 15-125 8-236 126-280 215-234c19 10 29 26 37 47l-47 15c-11-23-29-39-63-39-53 1-75 33-75 86" id="C"/><path fill="#333" d="M240-174c0 40-23 61-54 70L253 0h-59l-57-94H76V0H24v-248c93 4 217-23 216 74zM76-134c48-2 112 12 112-38 0-48-66-32-112-35v73" id="D"/><g id="b"><use transform="matrix(0.04938271604938272,0,0,0.04938271604938272,0,0)" xlink:href="#B"/><use transform="matrix(0.04938271604938272,0,0,0.04938271604938272,14.765432098765434,0)" xlink:href="#s"/><use transform="matrix(0.04938271604938272,0,0,0.04938271604938272,27.555555555555557,0)" xlink:href="#x"/><use transform="matrix(0.04938271604938272,0,0,0.04938271604938272,40.345679012345684,0)" xlink:href="#s"/><use transform="matrix(0.04938271604938272,0,0,0.04938271604938272,53.135802469135804,0)" xlink:href="#C"/><use transform="matrix(0.04938271604938272,0,0,0.04938271604938272,66.96296296296298,0)" xlink:href="#w"/><use transform="matrix(0.04938271604938272,0,0,0.04938271604938272,78.81481481481482,0)" xlink:href="#D"/></g><path fill="#333" d="M182-130c37 4 62 22 62 59C244 23 116-4 24 0v-248c84 5 203-23 205 63 0 31-19 50-47 55zM76-148c40-3 101 13 101-30 0-44-60-28-101-31v61zm0 110c48-3 116 14 116-37 0-48-69-32-116-35v72" id="E"/><path fill="#333" d="M210 0H11v-37l134-170H24v-41h178v36L68-41h142V0" id="F"/><path fill="#333" d="M146-102V0H94v-102L6-248h54l60 105 60-105h54" id="G"/><g id="c"><use transform="matrix(0.04938271604938272,0,0,0.04938271604938272,0,0)" xlink:href="#E"/><use transform="matrix(0.04938271604938272,0,0,0.04938271604938272,12.790123456790125,0)" xlink:href="#z"/><use transform="matrix(0.04938271604938272,0,0,0.04938271604938272,25.58024691358025,0)" xlink:href="#A"/><use transform="matrix(0.04938271604938272,0,0,0.04938271604938272,39.40740740740741,0)" xlink:href="#F"/><use transform="matrix(0.04938271604938272,0,0,0.04938271604938272,50.22222222222223,0)" xlink:href="#G"/></g><path d="M169-182c-1-43-94-46-97-3 18 66 151 10 154 114 3 95-165 93-204 36-6-8-10-19-12-30l50-8c3 46 112 56 116 5-17-69-150-10-154-114-4-87 153-88 188-35 5 8 8 18 10 28" id="H"/><path d="M24 0v-248h195v40H76v63h132v40H76v65h150V0H24" id="I"/><path d="M24 0v-248h52V0H24" id="J"/><path d="M140-251c80 0 125 45 125 126S219 4 139 4C58 4 15-44 15-125s44-126 125-126zm-1 214c52 0 73-35 73-88 0-50-21-86-72-86-52 0-73 35-73 86s22 88 72 88" id="K"/><path d="M175 0L67-191c6 58 2 128 3 191H24v-248h59L193-55c-6-58-2-129-3-193h46V0h-61" id="L"/><g id="d"><use transform="matrix(0.05,0,0,0.05,0,0)" xlink:href="#H"/><use transform="matrix(0.05,0,0,0.05,12,0)" xlink:href="#I"/><use transform="matrix(0.05,0,0,0.05,24,0)" xlink:href="#H"/><use transform="matrix(0.05,0,0,0.05,36,0)" xlink:href="#H"/><use transform="matrix(0.05,0,0,0.05,48,0)" xlink:href="#J"/><use transform="matrix(0.05,0,0,0.05,53,0)" xlink:href="#K"/><use transform="matrix(0.05,0,0,0.05,67,0)" xlink:href="#L"/></g><path d="M230 0l2-204L168 0h-37L68-204 70 0H24v-248h70l56 185 57-185h69V0h-46" id="M"/><path d="M199 0l-22-63H83L61 0H9l90-248h61L250 0h-51zm-33-102l-36-108c-10 38-24 72-36 108h72" id="N"/><path d="M67-125c0 54 23 88 75 88 28 0 53-7 68-21v-34h-60v-39h108v91C232-14 192 4 140 4 58 4 20-42 15-125 8-236 126-280 215-234c19 10 29 26 37 47l-47 15c-11-23-29-39-63-39-53 1-75 33-75 86" id="O"/><path d="M240-174c0 40-23 61-54 70L253 0h-59l-57-94H76V0H24v-248c93 4 217-23 216 74zM76-134c48-2 112 12 112-38 0-48-66-32-112-35v73" id="P"/><g id="e"><use transform="matrix(0.05,0,0,0.05,0,0)" xlink:href="#M"/><use transform="matrix(0.05,0,0,0.05,14.950000000000001,0)" xlink:href="#N"/><use transform="matrix(0.05,0,0,0.05,27.900000000000002,0)" xlink:href="#L"/><use transform="matrix(0.05,0,0,0.05,40.85,0)" xlink:href="#N"/><use transform="matrix(0.05,0,0,0.05,53.800000000000004,0)" xlink:href="#O"/><use transform="matrix(0.05,0,0,0.05,67.80000000000001,0)" xlink:href="#I"/><use transform="matrix(0.05,0,0,0.05,79.80000000000001,0)" xlink:href="#P"/></g><g id="f"><use transform="matrix(0.04938271604938272,0,0,0.04938271604938272,0,0)" xlink:href="#D"/><use transform="matrix(0.04938271604938272,0,0,0.04938271604938272,12.790123456790125,0)" xlink:href="#w"/><use transform="matrix(0.04938271604938272,0,0,0.04938271604938272,24.641975308641978,0)" xlink:href="#B"/><use transform="matrix(0.04938271604938272,0,0,0.04938271604938272,39.40740740740741,0)" xlink:href="#A"/><use transform="matrix(0.04938271604938272,0,0,0.04938271604938272,53.23456790123457,0)" xlink:href="#u"/><use transform="matrix(0.04938271604938272,0,0,0.04938271604938272,64.04938271604938,0)" xlink:href="#w"/></g><path fill="#333" d="M169-182c-1-43-94-46-97-3 18 66 151 10 154 114 3 95-165 93-204 36-6-8-10-19-12-30l50-8c3 46 112 56 116 5-17-69-150-10-154-114-4-87 153-88 188-35 5 8 8 18 10 28" id="Q"/><g id="g"><use transform="matrix(0.04938271604938272,0,0,0.04938271604938272,0,0)" xlink:href="#D"/><use transform="matrix(0.04938271604938272,0,0,0.04938271604938272,12.790123456790125,0)" xlink:href="#w"/><use transform="matrix(0.04938271604938272,0,0,0.04938271604938272,24.641975308641978,0)" xlink:href="#C"/><use transform="matrix(0.04938271604938272,0,0,0.04938271604938272,38.46913580246914,0)" xlink:href="#y"/><use transform="matrix(0.04938271604938272,0,0,0.04938271604938272,43.40740740740741,0)" xlink:href="#Q"/><use transform="matrix(0.04938271604938272,0,0,0.04938271604938272,55.25925925925927,0)" xlink:href="#u"/><use transform="matrix(0.04938271604938272,0,0,0.04938271604938272,66.07407407407408,0)" xlink:href="#D"/><use transform="matrix(0.04938271604938272,0,0,0.04938271604938272,78.22222222222223,0)" xlink:href="#G"/></g><path d="M24-231v-30h32v30H24zM24 0v-190h32V0H24" id="R"/><path d="M135-143c-3-34-86-38-87 0 15 53 115 12 119 90S17 21 10-45l28-5c4 36 97 45 98 0-10-56-113-15-118-90-4-57 82-63 122-42 12 7 21 19 24 35" id="S"/><path d="M205 0l-28-72H64L36 0H1l101-248h38L239 0h-34zm-38-99l-47-123c-12 45-31 82-46 123h93" id="T"/><path d="M85-194c31 0 48 13 60 33l-1-100h32l1 261h-30c-2-10 0-23-3-31C134-8 116 4 85 4 32 4 16-35 15-94c0-66 23-100 70-100zm9 24c-40 0-46 34-46 75 0 40 6 74 45 74 42 0 51-32 51-76 0-42-9-74-50-73" id="U"/><path d="M210-169c-67 3-38 105-44 169h-31v-121c0-29-5-50-35-48C34-165 62-65 56 0H25l-1-190h30c1 10-1 24 2 32 10-44 99-50 107 0 11-21 27-35 58-36 85-2 47 119 55 194h-31v-121c0-29-5-49-35-48" id="V"/><path d="M117-194c89-4 53 116 60 194h-32v-121c0-31-8-49-39-48C34-167 62-67 57 0H25l-1-190h30c1 10-1 24 2 32 11-22 29-35 61-36" id="W"/><path d="M87 75C49 33 22-17 22-94c0-76 28-126 65-167h31c-38 41-64 92-64 168S80 34 118 75H87" id="X"/><path d="M84 4C-5 8 30-112 23-190h32v120c0 31 7 50 39 49 72-2 45-101 50-169h31l1 190h-30c-1-10 1-25-2-33-11 22-28 36-60 37" id="Y"/><path d="M100-194c63 0 86 42 84 106H49c0 40 14 67 53 68 26 1 43-12 49-29l28 8c-11 28-37 45-77 45C44 4 14-33 15-96c1-61 26-98 85-98zm52 81c6-60-76-77-97-28-3 7-6 17-6 28h103" id="Z"/><path d="M114-163C36-179 61-72 57 0H25l-1-190h30c1 12-1 29 2 39 6-27 23-49 58-41v29" id="aa"/><path d="M190 0L58-211 59 0H30v-248h39L202-35l-2-213h31V0h-41" id="ab"/><path d="M141-36C126-15 110 5 73 4 37 3 15-17 15-53c-1-64 63-63 125-63 3-35-9-54-41-54-24 1-41 7-42 31l-33-3c5-37 33-52 76-52 45 0 72 20 72 64v82c-1 20 7 32 28 27v20c-31 9-61-2-59-35zM48-53c0 20 12 33 32 33 41-3 63-29 60-74-43 2-92-5-92 41" id="ac"/><path d="M33-261c38 41 65 92 65 168S71 34 33 75H2C39 34 66-17 66-93S39-220 2-261h31" id="ad"/><g id="h"><use transform="matrix(0.05,0,0,0.05,0,0)" xlink:href="#R"/><use transform="matrix(0.05,0,0,0.05,3.95,0)" xlink:href="#S"/><use transform="matrix(0.05,0,0,0.05,12.949999999999998,0)" xlink:href="#T"/><use transform="matrix(0.05,0,0,0.05,24.95,0)" xlink:href="#U"/><use transform="matrix(0.05,0,0,0.05,34.95,0)" xlink:href="#V"/><use transform="matrix(0.05,0,0,0.05,49.900000000000006,0)" xlink:href="#R"/><use transform="matrix(0.05,0,0,0.05,53.85,0)" xlink:href="#W"/><use transform="matrix(0.05,0,0,0.05,63.85,0)" xlink:href="#X"/><use transform="matrix(0.05,0,0,0.05,69.80000000000001,0)" xlink:href="#Y"/><use transform="matrix(0.05,0,0,0.05,79.80000000000001,0)" xlink:href="#S"/><use transform="matrix(0.05,0,0,0.05,88.80000000000001,0)" xlink:href="#Z"/><use transform="matrix(0.05,0,0,0.05,98.80000000000001,0)" xlink:href="#aa"/><use transform="matrix(0.05,0,0,0.05,104.75,0)" xlink:href="#ab"/><use transform="matrix(0.05,0,0,0.05,117.7,0)" xlink:href="#ac"/><use transform="matrix(0.05,0,0,0.05,127.7,0)" xlink:href="#V"/><use transform="matrix(0.05,0,0,0.05,142.65,0)" xlink:href="#Z"/><use transform="matrix(0.05,0,0,0.05,152.65,0)" xlink:href="#ad"/></g><path d="M59-47c-2 24 18 29 38 22v24C64 9 27 4 27-40v-127H5v-23h24l9-43h21v43h35v23H59v120" id="ae"/><g id="i"><use transform="matrix(0.05,0,0,0.05,0,0)" xlink:href="#ae"/><use transform="matrix(0.05,0,0,0.05,5,0)" xlink:href="#aa"/><use transform="matrix(0.05,0,0,0.05,10.95,0)" xlink:href="#Y"/><use transform="matrix(0.05,0,0,0.05,20.95,0)" xlink:href="#Z"/></g><path d="M9 0v-24l116-142H16v-24h144v24L44-24h123V0H9" id="af"/><path d="M108 0H70L1-190h34L89-25l56-165h34" id="ag"/><path d="M206 0h-36l-40-164L89 0H53L-1-190h32L70-26l43-164h34l41 164 42-164h31" id="ah"/><path d="M24 0v-261h32V0H24" id="ai"/><path d="M177-190C167-65 218 103 67 71c-23-6-38-20-44-43l32-5c15 47 100 32 89-28v-30C133-14 115 1 83 1 29 1 15-40 15-95c0-56 16-97 71-98 29-1 48 16 59 35 1-10 0-23 2-32h30zM94-22c36 0 50-32 50-73 0-42-14-75-50-75-39 0-46 34-46 75s6 73 46 73" id="aj"/><g id="j"><use transform="matrix(0.05,0,0,0.05,0,0)" xlink:href="#ab"/><use transform="matrix(0.05,0,0,0.05,12.950000000000001,0)" xlink:href="#Y"/><use transform="matrix(0.05,0,0,0.05,22.950000000000003,0)" xlink:href="#ae"/><use transform="matrix(0.05,0,0,0.05,27.950000000000003,0)" xlink:href="#af"/><use transform="matrix(0.05,0,0,0.05,36.95,0)" xlink:href="#Z"/><use transform="matrix(0.05,0,0,0.05,46.95,0)" xlink:href="#aa"/><use transform="matrix(0.05,0,0,0.05,52.900000000000006,0)" xlink:href="#ag"/><use transform="matrix(0.05,0,0,0.05,61.900000000000006,0)" xlink:href="#Z"/><use transform="matrix(0.05,0,0,0.05,71.9,0)" xlink:href="#aa"/><use transform="matrix(0.05,0,0,0.05,77.85000000000001,0)" xlink:href="#ah"/><use transform="matrix(0.05,0,0,0.05,90.80000000000001,0)" xlink:href="#ac"/><use transform="matrix(0.05,0,0,0.05,100.80000000000001,0)" xlink:href="#ai"/><use transform="matrix(0.05,0,0,0.05,104.75,0)" xlink:href="#ae"/><use transform="matrix(0.05,0,0,0.05,109.75,0)" xlink:href="#Y"/><use transform="matrix(0.05,0,0,0.05,119.75,0)" xlink:href="#W"/><use transform="matrix(0.05,0,0,0.05,129.75,0)" xlink:href="#aj"/></g><g id="k"><use transform="matrix(0.05,0,0,0.05,0,0)" xlink:href="#ac"/><use transform="matrix(0.05,0,0,0.05,10,0)" xlink:href="#W"/><use transform="matrix(0.05,0,0,0.05,20,0)" xlink:href="#af"/><use transform="matrix(0.05,0,0,0.05,29,0)" xlink:href="#Z"/><use transform="matrix(0.05,0,0,0.05,39,0)" xlink:href="#R"/><use transform="matrix(0.05,0,0,0.05,42.95,0)" xlink:href="#aj"/><use transform="matrix(0.05,0,0,0.05,52.95,0)" xlink:href="#Z"/><use transform="matrix(0.05,0,0,0.05,62.95,0)" xlink:href="#W"/></g><path fill="#333" d="M114-163C36-179 61-72 57 0H25l-1-190h30c1 12-1 29 2 39 6-27 23-49 58-41v29" id="ak"/><path fill="#333" d="M100-194c63 0 86 42 84 106H49c0 40 14 67 53 68 26 1 43-12 49-29l28 8c-11 28-37 45-77 45C44 4 14-33 15-96c1-61 26-98 85-98zm52 81c6-60-76-77-97-28-3 7-6 17-6 28h103" id="al"/><path fill="#333" d="M177-190C167-65 218 103 67 71c-23-6-38-20-44-43l32-5c15 47 100 32 89-28v-30C133-14 115 1 83 1 29 1 15-40 15-95c0-56 16-97 71-98 29-1 48 16 59 35 1-10 0-23 2-32h30zM94-22c36 0 50-32 50-73 0-42-14-75-50-75-39 0-46 34-46 75s6 73 46 73" id="am"/><path fill="#333" d="M24-231v-30h32v30H24zM24 0v-190h32V0H24" id="an"/><path fill="#333" d="M135-143c-3-34-86-38-87 0 15 53 115 12 119 90S17 21 10-45l28-5c4 36 97 45 98 0-10-56-113-15-118-90-4-57 82-63 122-42 12 7 21 19 24 35" id="ao"/><path fill="#333" d="M59-47c-2 24 18 29 38 22v24C64 9 27 4 27-40v-127H5v-23h24l9-43h21v43h35v23H59v120" id="ap"/><path fill="#333" d="M212-179c-10-28-35-45-73-45-59 0-87 40-87 99 0 60 29 101 89 101 43 0 62-24 78-52l27 14C228-24 195 4 139 4 59 4 22-46 18-125c-6-104 99-153 187-111 19 9 31 26 39 46" id="aq"/><path fill="#333" d="M24 0v-261h32V0H24" id="ar"/><path fill="#333" d="M117-194c89-4 53 116 60 194h-32v-121c0-31-8-49-39-48C34-167 62-67 57 0H25l-1-190h30c1 10-1 24 2 32 11-22 29-35 61-36" id="as"/><g id="l"><use transform="matrix(0.05,0,0,0.05,0,0)" xlink:href="#ak"/><use transform="matrix(0.05,0,0,0.05,5.95,0)" xlink:href="#al"/><use transform="matrix(0.05,0,0,0.05,15.949999999999998,0)" xlink:href="#am"/><use transform="matrix(0.05,0,0,0.05,25.950000000000003,0)" xlink:href="#an"/><use transform="matrix(0.05,0,0,0.05,29.899999999999995,0)" xlink:href="#ao"/><use transform="matrix(0.05,0,0,0.05,38.9,0)" xlink:href="#ap"/><use transform="matrix(0.05,0,0,0.05,43.9,0)" xlink:href="#al"/><use transform="matrix(0.05,0,0,0.05,53.900000000000006,0)" xlink:href="#ak"/><use transform="matrix(0.05,0,0,0.05,59.85,0)" xlink:href="#aq"/><use transform="matrix(0.05,0,0,0.05,72.8,0)" xlink:href="#ar"/><use transform="matrix(0.05,0,0,0.05,76.75,0)" xlink:href="#an"/><use transform="matrix(0.05,0,0,0.05,80.7,0)" xlink:href="#al"/><use transform="matrix(0.05,0,0,0.05,90.7,0)" xlink:href="#as"/><use transform="matrix(0.05,0,0,0.05,100.7,0)" xlink:href="#ap"/></g><path fill="#333" d="M87 75C49 33 22-17 22-94c0-76 28-126 65-167h31c-38 41-64 92-64 168S80 34 118 75H87" id="at"/><path fill="#333" d="M141-36C126-15 110 5 73 4 37 3 15-17 15-53c-1-64 63-63 125-63 3-35-9-54-41-54-24 1-41 7-42 31l-33-3c5-37 33-52 76-52 45 0 72 20 72 64v82c-1 20 7 32 28 27v20c-31 9-61-2-59-35zM48-53c0 20 12 33 32 33 41-3 63-29 60-74-43 2-92-5-92 41" id="au"/><path fill="#333" d="M210-169c-67 3-38 105-44 169h-31v-121c0-29-5-50-35-48C34-165 62-65 56 0H25l-1-190h30c1 10-1 24 2 32 10-44 99-50 107 0 11-21 27-35 58-36 85-2 47 119 55 194h-31v-121c0-29-5-49-35-48" id="av"/><path fill="#333" d="M68-38c1 34 0 65-14 84H32c9-13 17-26 17-46H33v-38h35" id="aw"/><g id="m"><use transform="matrix(0.05,0,0,0.05,0,0)" xlink:href="#at"/><use transform="matrix(0.05,0,0,0.05,5.95,0)" xlink:href="#as"/><use transform="matrix(0.05,0,0,0.05,15.949999999999998,0)" xlink:href="#au"/><use transform="matrix(0.05,0,0,0.05,25.950000000000003,0)" xlink:href="#av"/><use transform="matrix(0.05,0,0,0.05,40.9,0)" xlink:href="#al"/><use transform="matrix(0.05,0,0,0.05,50.9,0)" xlink:href="#aw"/></g><path fill="#333" d="M30-248c87 1 191-15 191 75 0 78-77 80-158 76V0H30v-248zm33 125c57 0 124 11 124-50 0-59-68-47-124-48v98" id="ax"/><path fill="#333" d="M266 0h-40l-56-210L115 0H75L2-248h35L96-30l15-64 43-154h32l59 218 59-218h35" id="ay"/><path fill="#333" d="M33-261c38 41 65 92 65 168S71 34 33 75H2C39 34 66-17 66-93S39-220 2-261h31" id="az"/><g id="n"><use transform="matrix(0.05,0,0,0.05,0,0)" xlink:href="#ax"/><use transform="matrix(0.05,0,0,0.05,12,0)" xlink:href="#ay"/><use transform="matrix(0.05,0,0,0.05,28.950000000000003,0)" xlink:href="#az"/></g><path d="M212-179c-10-28-35-45-73-45-59 0-87 40-87 99 0 60 29 101 89 101 43 0 62-24 78-52l27 14C228-24 195 4 139 4 59 4 22-46 18-125c-6-104 99-153 187-111 19 9 31 26 39 46" id="aA"/><path d="M30 0v-248h33v221h125V0H30" id="aB"/><path d="M100-194c62-1 85 37 85 99 1 63-27 99-86 99S16-35 15-95c0-66 28-99 85-99zM99-20c44 1 53-31 53-75 0-43-8-75-51-75s-53 32-53 75 10 74 51 75" id="aC"/><g id="o"><use transform="matrix(0.05,0,0,0.05,0,0)" xlink:href="#aa"/><use transform="matrix(0.05,0,0,0.05,5.95,0)" xlink:href="#Z"/><use transform="matrix(0.05,0,0,0.05,15.949999999999998,0)" xlink:href="#aj"/><use transform="matrix(0.05,0,0,0.05,25.950000000000003,0)" xlink:href="#R"/><use transform="matrix(0.05,0,0,0.05,29.899999999999995,0)" xlink:href="#S"/><use transform="matrix(0.05,0,0,0.05,38.9,0)" xlink:href="#ae"/><use transform="matrix(0.05,0,0,0.05,43.9,0)" xlink:href="#Z"/><use transform="matrix(0.05,0,0,0.05,53.900000000000006,0)" xlink:href="#aa"/><use transform="matrix(0.05,0,0,0.05,59.85,0)" xlink:href="#aA"/><use transform="matrix(0.05,0,0,0.05,72.8,0)" xlink:href="#ai"/><use transform="matrix(0.05,0,0,0.05,76.75,0)" xlink:href="#R"/><use transform="matrix(0.05,0,0,0.05,80.7,0)" xlink:href="#Z"/><use transform="matrix(0.05,0,0,0.05,90.7,0)" xlink:href="#W"/><use transform="matrix(0.05,0,0,0.05,100.7,0)" xlink:href="#ae"/><use transform="matrix(0.05,0,0,0.05,105.7,0)" xlink:href="#X"/><use transform="matrix(0.05,0,0,0.05,111.65,0)" xlink:href="#aB"/><use transform="matrix(0.05,0,0,0.05,121.65,0)" xlink:href="#aC"/><use transform="matrix(0.05,0,0,0.05,131.65,0)" xlink:href="#aj"/><use transform="matrix(0.05,0,0,0.05,141.65,0)" xlink:href="#R"/><use transform="matrix(0.05,0,0,0.05,145.6,0)" xlink:href="#W"/><use transform="matrix(0.05,0,0,0.05,155.6,0)" xlink:href="#aA"/><use transform="matrix(0.05,0,0,0.05,168.54999999999998,0)" xlink:href="#aa"/><use transform="matrix(0.05,0,0,0.05,174.49999999999997,0)" xlink:href="#Z"/><use transform="matrix(0.05,0,0,0.05,184.49999999999997,0)" xlink:href="#U"/><use transform="matrix(0.05,0,0,0.05,194.49999999999997,0)" xlink:href="#Z"/><use transform="matrix(0.05,0,0,0.05,204.49999999999997,0)" xlink:href="#W"/><use transform="matrix(0.05,0,0,0.05,214.49999999999997,0)" xlink:href="#ae"/><use transform="matrix(0.05,0,0,0.05,219.49999999999997,0)" xlink:href="#R"/><use transform="matrix(0.05,0,0,0.05,223.44999999999996,0)" xlink:href="#ac"/><use transform="matrix(0.05,0,0,0.05,233.44999999999996,0)" xlink:href="#ai"/><use transform="matrix(0.05,0,0,0.05,237.39999999999998,0)" xlink:href="#S"/><use transform="matrix(0.05,0,0,0.05,246.39999999999998,0)" xlink:href="#ad"/></g><path d="M103-251c84 0 111 97 45 133-19 10-37 24-39 52H78c0-63 77-55 77-114 0-30-21-42-52-43-32 0-53 17-56 46l-32-2c7-45 34-72 88-72zM77 0v-35h34V0H77" id="aD"/><g id="p"><use transform="matrix(0.05,0,0,0.05,0,0)" xlink:href="#R"/><use transform="matrix(0.05,0,0,0.05,3.95,0)" xlink:href="#S"/><use transform="matrix(0.05,0,0,0.05,12.949999999999998,0)" xlink:href="#T"/><use transform="matrix(0.05,0,0,0.05,24.95,0)" xlink:href="#U"/><use transform="matrix(0.05,0,0,0.05,34.95,0)" xlink:href="#V"/><use transform="matrix(0.05,0,0,0.05,49.900000000000006,0)" xlink:href="#R"/><use transform="matrix(0.05,0,0,0.05,53.85,0)" xlink:href="#W"/><use transform="matrix(0.05,0,0,0.05,63.85,0)" xlink:href="#X"/><use transform="matrix(0.05,0,0,0.05,69.80000000000001,0)" xlink:href="#Y"/><use transform="matrix(0.05,0,0,0.05,79.80000000000001,0)" xlink:href="#S"/><use transform="matrix(0.05,0,0,0.05,88.80000000000001,0)" xlink:href="#Z"/><use transform="matrix(0.05,0,0,0.05,98.80000000000001,0)" xlink:href="#aa"/><use transform="matrix(0.05,0,0,0.05,104.75,0)" xlink:href="#ab"/><use transform="matrix(0.05,0,0,0.05,117.7,0)" xlink:href="#ac"/><use transform="matrix(0.05,0,0,0.05,127.7,0)" xlink:href="#V"/><use transform="matrix(0.05,0,0,0.05,142.65,0)" xlink:href="#Z"/><use transform="matrix(0.05,0,0,0.05,152.65,0)" xlink:href="#ad"/><use transform="matrix(0.05,0,0,0.05,158.6,0)" xlink:href="#aD"/></g><path d="M68-38c1 34 0 65-14 84H32c9-13 17-26 17-46H33v-38h35" id="aE"/><g id="q"><use transform="matrix(0.05,0,0,0.05,0,0)" xlink:href="#ac"/><use transform="matrix(0.05,0,0,0.05,10,0)" xlink:href="#U"/><use transform="matrix(0.05,0,0,0.05,20,0)" xlink:href="#U"/><use transform="matrix(0.05,0,0,0.05,30,0)" xlink:href="#aA"/><use transform="matrix(0.05,0,0,0.05,42.95,0)" xlink:href="#aa"/><use transform="matrix(0.05,0,0,0.05,48.900000000000006,0)" xlink:href="#Z"/><use transform="matrix(0.05,0,0,0.05,58.900000000000006,0)" xlink:href="#U"/><use transform="matrix(0.05,0,0,0.05,68.9,0)" xlink:href="#Z"/><use transform="matrix(0.05,0,0,0.05,78.9,0)" xlink:href="#W"/><use transform="matrix(0.05,0,0,0.05,88.9,0)" xlink:href="#ae"/><use transform="matrix(0.05,0,0,0.05,93.9,0)" xlink:href="#R"/><use transform="matrix(0.05,0,0,0.05,97.85000000000001,0)" xlink:href="#ac"/><use transform="matrix(0.05,0,0,0.05,107.85000000000001,0)" xlink:href="#ai"/><use transform="matrix(0.05,0,0,0.05,111.80000000000001,0)" xlink:href="#S"/><use transform="matrix(0.05,0,0,0.05,120.80000000000001,0)" xlink:href="#X"/><use transform="matrix(0.05,0,0,0.05,126.75,0)" xlink:href="#W"/><use transform="matrix(0.05,0,0,0.05,136.75,0)" xlink:href="#ac"/><use transform="matrix(0.05,0,0,0.05,146.75,0)" xlink:href="#V"/><use transform="matrix(0.05,0,0,0.05,161.7,0)" xlink:href="#Z"/><use transform="matrix(0.05,0,0,0.05,171.7,0)" xlink:href="#aE"/></g><path d="M30-248c87 1 191-15 191 75 0 78-77 80-158 76V0H30v-248zm33 125c57 0 124 11 124-50 0-59-68-47-124-48v98" id="aF"/><path d="M266 0h-40l-56-210L115 0H75L2-248h35L96-30l15-64 43-154h32l59 218 59-218h35" id="aG"/><g id="r"><use transform="matrix(0.05,0,0,0.05,0,0)" xlink:href="#aF"/><use transform="matrix(0.05,0,0,0.05,12,0)" xlink:href="#aG"/><use transform="matrix(0.05,0,0,0.05,28.950000000000003,0)" xlink:href="#ad"/></g></defs></g></svg>