<svg xmlns="http://www.w3.org/2000/svg" xmlns:xlink="http://www.w3.org/1999/xlink" width="946" height="541"><g transform="translate(-145 -79)"><path d="M0 0h1360v1760H0z" fill="#fff"/><path d="M240 156h200v124H240z" stroke="#000" stroke-width="2" fill="#d3a7ff"/><use xlink:href="#a" transform="matrix(1,0,0,1,245,161) translate(95 49.8)"/><use xlink:href="#b" transform="matrix(1,0,0,1,245,161) translate(95 71.4)"/><path d="M220 156h240v50H220z" fill="none"/><use xlink:href="#c" transform="matrix(1,0,0,1,225,161) translate(79.07499999999999 23.6)"/><path d="M500 156h200v124H500z" stroke="#000" stroke-width="2" fill="#d3a7ff"/><use xlink:href="#a" transform="matrix(1,0,0,1,505,161) translate(95 49.8)"/><use xlink:href="#b" transform="matrix(1,0,0,1,505,161) translate(95 71.4)"/><path d="M477.5 156h240v50h-240z" fill="none"/><use xlink:href="#d" transform="matrix(1,0,0,1,482.5,161) translate(96.575 23.6)"/><path d="M520 206h160v60H520z" stroke="#000" stroke-width="2" fill="#5abaa7"/><use xlink:href="#e" transform="matrix(1,0,0,1,525,211) translate(20.174999999999997 28.6)"/><path d="M500 360h200v100H500z" stroke="#000" stroke-width="2" fill="#5abaa7"/><use xlink:href="#f" transform="matrix(1,0,0,1,505,365) translate(2.3148148148147953 35.22222222222222)"/><use xlink:href="#g" transform="matrix(1,0,0,1,505,365) translate(44.85493827160494 64.55555555555556)"/><path d="M785 156h180v124H785z" stroke="#000" stroke-width="2" fill="#d3a7ff"/><path d="M794 252.75H681" stroke="#000" stroke-width="2" fill="none"/><path d="M794 252.75l-14.27 4.64v-9.3z"/><path d="M795 252.02v1.46l-16.27 5.28v-12.02zm-14.27 4l10.03-3.27-10.03-3.26zM681 253.75h-1v-2h1z"/><path d="M577.33 267v92" stroke="#000" stroke-width="2" fill="none"/><path d="M578.33 267h-2v-1h2zM577.33 359l-4.63-14.27h9.27z"/><path d="M578.06 360h-1.45l-5.28-16.27h12.03zm-4-14.27l3.27 10.03 3.26-10.03z"/><path d="M623.33 359.38V267" stroke="#000" stroke-width="2" fill="none"/><path d="M624.33 360h-2v-.63h2zM627.97 281.27h-9.27l4.63-14.27z"/><path d="M629.35 282.27h-12.03l5.3-16.27h1.44zm-9.28-2h6.52l-3.27-10.03z"/><path d="M681 223.83h113" stroke="#000" stroke-width="2" fill="none"/><path d="M695.27 228.47L681 223.83l14.27-4.63z"/><path d="M696.27 229.85l-16.27-5.3v-1.44l16.27-5.28zm-12.03-6.02l10.03 3.26v-6.53zM795 224.83h-1v-2h1z"/><path d="M320 281v141.67h179" stroke="#000" stroke-width="2" fill="none"/><path d="M321 281h-2v-1h2zM499 422.67l-14.27 4.63v-9.27z"/><path d="M500 421.94v1.45l-16.27 5.28v-12.03zm-14.27 4l10.03-3.27-10.03-3.26z"/><path d="M200 520h840" fill="none"/><path d="M205 520c0 2.76-2.24 5-5 5s-5-2.24-5-5 2.24-5 5-5 5 2.24 5 5zm40 0c0 2.76-2.24 5-5 5s-5-2.24-5-5 2.24-5 5-5 5 2.24 5 5zm40 0c0 2.76-2.24 5-5 5s-5-2.24-5-5 2.24-5 5-5 5 2.24 5 5zm40 0c0 2.76-2.24 5-5 5s-5-2.24-5-5 2.24-5 5-5 5 2.24 5 5zm40 0c0 2.76-2.24 5-5 5s-5-2.24-5-5 2.24-5 5-5 5 2.24 5 5zm40 0c0 2.76-2.24 5-5 5s-5-2.24-5-5 2.24-5 5-5 5 2.24 5 5zm40 0c0 2.76-2.24 5-5 5s-5-2.24-5-5 2.24-5 5-5 5 2.24 5 5zm40 0c0 2.76-2.24 5-5 5s-5-2.24-5-5 2.24-5 5-5 5 2.24 5 5zm40 0c0 2.76-2.24 5-5 5s-5-2.24-5-5 2.24-5 5-5 5 2.24 5 5zm40 0c0 2.76-2.24 5-5 5s-5-2.24-5-5 2.24-5 5-5 5 2.24 5 5zm40 0c0 2.76-2.24 5-5 5s-5-2.24-5-5 2.24-5 5-5 5 2.24 5 5zm40 0c0 2.76-2.24 5-5 5s-5-2.24-5-5 2.24-5 5-5 5 2.24 5 5zm40 0c0 2.76-2.24 5-5 5s-5-2.24-5-5 2.24-5 5-5 5 2.24 5 5zm40 0c0 2.76-2.24 5-5 5s-5-2.24-5-5 2.24-5 5-5 5 2.24 5 5zm40 0c0 2.76-2.24 5-5 5s-5-2.24-5-5 2.24-5 5-5 5 2.24 5 5zm40 0c0 2.76-2.24 5-5 5s-5-2.24-5-5 2.24-5 5-5 5 2.24 5 5zm40 0c0 2.76-2.24 5-5 5s-5-2.24-5-5 2.24-5 5-5 5 2.24 5 5zm40 0c0 2.76-2.24 5-5 5s-5-2.24-5-5 2.24-5 5-5 5 2.24 5 5zm40 0c0 2.76-2.24 5-5 5s-5-2.24-5-5 2.24-5 5-5 5 2.24 5 5zm40 0c0 2.76-2.24 5-5 5s-5-2.24-5-5 2.24-5 5-5 5 2.24 5 5zm40 0c0 2.76-2.24 5-5 5s-5-2.24-5-5 2.24-5 5-5 5 2.24 5 5z" fill="#1a4982"/><path d="M200 520V325h-4V130" fill="none"/><path d="M205 520c0 2.76-2.24 5-5 5s-5-2.24-5-5 2.24-5 5-5 5 2.24 5 5zm0-39.4c0 2.76-2.24 5-5 5s-5-2.24-5-5 2.24-5 5-5 5 2.24 5 5zm0-39.4c0 2.76-2.24 5-5 5s-5-2.24-5-5 2.24-5 5-5 5 2.24 5 5zm0-39.4c0 2.76-2.24 5-5 5s-5-2.24-5-5 2.24-5 5-5 5 2.24 5 5zm0-39.4c0 2.76-2.24 5-5 5s-5-2.24-5-5 2.24-5 5-5 5 2.24 5 5zm-2-37.4c0 2.76-2.24 5-5 5s-5-2.24-5-5 2.24-5 5-5 5 2.24 5 5zm-2-37.4c0 2.76-2.24 5-5 5s-5-2.24-5-5 2.24-5 5-5 5 2.24 5 5zm0-39.4c0 2.76-2.24 5-5 5s-5-2.24-5-5 2.24-5 5-5 5 2.24 5 5zm0-39.4c0 2.76-2.24 5-5 5s-5-2.24-5-5 2.24-5 5-5 5 2.24 5 5zm0-39.4c0 2.76-2.24 5-5 5s-5-2.24-5-5 2.24-5 5-5 5 2.24 5 5z" fill="#1a4982"/><path d="M760 520V130" fill="none"/><path d="M765 520c0 2.76-2.24 5-5 5s-5-2.24-5-5 2.24-5 5-5 5 2.24 5 5zm0-39c0 2.76-2.24 5-5 5s-5-2.24-5-5 2.24-5 5-5 5 2.24 5 5zm0-39c0 2.76-2.24 5-5 5s-5-2.24-5-5 2.24-5 5-5 5 2.24 5 5zm0-39c0 2.76-2.24 5-5 5s-5-2.24-5-5 2.24-5 5-5 5 2.24 5 5zm0-39c0 2.76-2.24 5-5 5s-5-2.24-5-5 2.24-5 5-5 5 2.24 5 5zm0-39c0 2.76-2.24 5-5 5s-5-2.24-5-5 2.24-5 5-5 5 2.24 5 5zm0-39c0 2.76-2.24 5-5 5s-5-2.24-5-5 2.24-5 5-5 5 2.24 5 5zm0-39c0 2.76-2.24 5-5 5s-5-2.24-5-5 2.24-5 5-5 5 2.24 5 5zm0-39c0 2.76-2.24 5-5 5s-5-2.24-5-5 2.24-5 5-5 5 2.24 5 5zm0-39c0 2.76-2.24 5-5 5s-5-2.24-5-5 2.24-5 5-5 5 2.24 5 5z" fill="#1a4982"/><path d="M360 540h240v60H360z" fill="none"/><use xlink:href="#h" transform="matrix(1,0,0,1,365,545) translate(73.5185185185185 30.333333333333336)"/><path d="M760 540h240v60H760z" fill="none"/><use xlink:href="#i" transform="matrix(1,0,0,1,765,545) translate(78.07407407407408 30.333333333333336)"/><path d="M1001.33 520V130" fill="none"/><path d="M1006.33 520c0 2.76-2.24 5-5 5s-5-2.24-5-5 2.24-5 5-5 5 2.24 5 5zm0-39c0 2.76-2.24 5-5 5s-5-2.24-5-5 2.24-5 5-5 5 2.24 5 5zm0-39c0 2.76-2.24 5-5 5s-5-2.24-5-5 2.24-5 5-5 5 2.24 5 5zm0-39c0 2.76-2.24 5-5 5s-5-2.24-5-5 2.24-5 5-5 5 2.24 5 5zm0-39c0 2.76-2.24 5-5 5s-5-2.24-5-5 2.24-5 5-5 5 2.24 5 5zm0-39c0 2.76-2.24 5-5 5s-5-2.24-5-5 2.24-5 5-5 5 2.24 5 5zm0-39c0 2.76-2.24 5-5 5s-5-2.24-5-5 2.24-5 5-5 5 2.24 5 5zm0-39c0 2.76-2.24 5-5 5s-5-2.24-5-5 2.24-5 5-5 5 2.24 5 5zm0-39c0 2.76-2.24 5-5 5s-5-2.24-5-5 2.24-5 5-5 5 2.24 5 5zm0-39c0 2.76-2.24 5-5 5s-5-2.24-5-5 2.24-5 5-5 5 2.24 5 5z" fill="#1a4982"/><path d="M755 156h240v50H755z" fill="none"/><use xlink:href="#j" transform="matrix(1,0,0,1,760,161) translate(87.075 23.6)"/><path d="M795 206h160v60H795z" stroke="#000" stroke-width="2" fill="#5abaa7"/><use xlink:href="#k" transform="matrix(1,0,0,1,800,211) translate(43.55 28.6)"/><path d="M499 389.33H340V280" stroke="#000" stroke-width="2" fill="none"/><path d="M500 390.33h-1v-2h1zM344.64 294.27h-9.28L340 280z"/><path d="M346 295.27h-12l4.95-15.27h2.1zm-9.26-2h6.52L340 283.24z"/><path d="M845.33 281v111.67H701" stroke="#000" stroke-width="2" fill="none"/><path d="M846.33 281h-2v-1h2zM715.27 397.3L701 392.67l14.27-4.64z"/><path d="M716.27 398.68l-16.27-5.3v-1.44l16.27-5.3zm-12.03-6l10.03 3.25v-6.52z"/><path d="M701 428.67h174V280" stroke="#000" stroke-width="2" fill="none"/><path d="M701 429.67h-1v-2h1zM879.64 294.27h-9.28L875 280z"/><path d="M881 295.27h-12l4.95-15.27h2.1zm-9.26-2h6.52L875 283.24z"/><path d="M352 156v-36h510.67v36" stroke="#000" stroke-width="2" fill="none"/><path d="M862.67 156l-4.64-14.27h9.27z"/><path d="M863.72 156h-2.1l-4.97-15.27h12.03zm-4.3-13.27l3.25 10.03 3.26-10.03z"/><path d="M884 156v-46H322.67v46" stroke="#000" stroke-width="2" fill="none"/><path d="M322.67 156l-4.64-14.27h9.27z"/><path d="M323.72 156h-2.1l-4.97-15.27h12.03zm-4.3-13.27l3.25 10.03 3.26-10.03z"/><defs><path d="M240-174c0 40-23 61-54 70L253 0h-59l-57-94H76V0H24v-248c93 4 217-23 216 74zM76-134c48-2 112 12 112-38 0-48-66-32-112-35v73" id="l"/><path d="M185-48c-13 30-37 53-82 52C43 2 14-33 14-96s30-98 90-98c62 0 83 45 84 108H66c0 31 8 55 39 56 18 0 30-7 34-22zm-45-69c5-46-57-63-70-21-2 6-4 13-4 21h74" id="m"/><path d="M195-6C206 82 75 100 31 46c-4-6-6-13-8-21l49-6c3 16 16 24 34 25 40 0 42-37 40-79-11 22-30 35-61 35-53 0-70-43-70-97 0-56 18-96 73-97 30 0 46 14 59 34l2-30h47zm-90-29c32 0 41-27 41-63 0-35-9-62-40-62-32 0-39 29-40 63 0 36 9 62 39 62" id="n"/><path d="M25-224v-37h50v37H25zM25 0v-190h50V0H25" id="o"/><path d="M137-138c1-29-70-34-71-4 15 46 118 7 119 86 1 83-164 76-172 9l43-7c4 19 20 25 44 25 33 8 57-30 24-41C81-84 22-81 20-136c-2-80 154-74 161-7" id="p"/><path d="M115-3C79 11 28 4 28-45v-112H4v-33h27l15-45h31v45h36v33H77v99c-1 23 16 31 38 25v30" id="q"/><path d="M135-150c-39-12-60 13-60 57V0H25l-1-190h47c2 13-1 29 3 40 6-28 27-53 61-41v41" id="r"/><path d="M123 10C108 53 80 86 19 72V37c35 8 53-11 59-39L3-190h52l48 148c12-52 28-100 44-148h51" id="s"/><g id="c"><use transform="matrix(0.05,0,0,0.05,0,0)" xlink:href="#l"/><use transform="matrix(0.05,0,0,0.05,12.950000000000001,0)" xlink:href="#m"/><use transform="matrix(0.05,0,0,0.05,22.950000000000003,0)" xlink:href="#n"/><use transform="matrix(0.05,0,0,0.05,33.900000000000006,0)" xlink:href="#o"/><use transform="matrix(0.05,0,0,0.05,38.900000000000006,0)" xlink:href="#p"/><use transform="matrix(0.05,0,0,0.05,48.900000000000006,0)" xlink:href="#q"/><use transform="matrix(0.05,0,0,0.05,54.85,0)" xlink:href="#r"/><use transform="matrix(0.05,0,0,0.05,61.85,0)" xlink:href="#s"/></g><path d="M24-248c120-7 223 5 221 122C244-46 201 0 124 0H24v-248zM76-40c74 7 117-18 117-86 0-67-45-88-117-82v168" id="t"/><path d="M199 0l-22-63H83L61 0H9l90-248h61L250 0h-51zm-33-102l-36-108c-10 38-24 72-36 108h72" id="u"/><path d="M24 0v-248h52v208h133V0H24" id="v"/><g id="d"><use transform="matrix(0.05,0,0,0.05,0,0)" xlink:href="#t"/><use transform="matrix(0.05,0,0,0.05,12.950000000000001,0)" xlink:href="#u"/><use transform="matrix(0.05,0,0,0.05,25.900000000000002,0)" xlink:href="#v"/></g><path d="M232-93c-1 65-40 97-104 97C67 4 28-28 28-90v-158h33c8 89-33 224 67 224 102 0 64-133 71-224h33v155" id="w"/><path d="M117-194c89-4 53 116 60 194h-32v-121c0-31-8-49-39-48C34-167 62-67 57 0H25l-1-190h30c1 10-1 24 2 32 11-22 29-35 61-36" id="x"/><path d="M24-231v-30h32v30H24zM24 0v-190h32V0H24" id="y"/><path d="M59-47c-2 24 18 29 38 22v24C64 9 27 4 27-40v-127H5v-23h24l9-43h21v43h35v23H59v120" id="z"/><path d="M212-179c-10-28-35-45-73-45-59 0-87 40-87 99 0 60 29 101 89 101 43 0 62-24 78-52l27 14C228-24 195 4 139 4 59 4 22-46 18-125c-6-104 99-153 187-111 19 9 31 26 39 46" id="A"/><path d="M100-194c62-1 85 37 85 99 1 63-27 99-86 99S16-35 15-95c0-66 28-99 85-99zM99-20c44 1 53-31 53-75 0-43-8-75-51-75s-53 32-53 75 10 74 51 75" id="B"/><path d="M114-163C36-179 61-72 57 0H25l-1-190h30c1 12-1 29 2 39 6-27 23-49 58-41v29" id="C"/><path d="M24 0v-261h32V0H24" id="D"/><path d="M100-194c63 0 86 42 84 106H49c0 40 14 67 53 68 26 1 43-12 49-29l28 8c-11 28-37 45-77 45C44 4 14-33 15-96c1-61 26-98 85-98zm52 81c6-60-76-77-97-28-3 7-6 17-6 28h103" id="E"/><g id="e"><use transform="matrix(0.05,0,0,0.05,0,0)" xlink:href="#w"/><use transform="matrix(0.05,0,0,0.05,12.950000000000001,0)" xlink:href="#x"/><use transform="matrix(0.05,0,0,0.05,22.950000000000003,0)" xlink:href="#y"/><use transform="matrix(0.05,0,0,0.05,26.900000000000002,0)" xlink:href="#z"/><use transform="matrix(0.05,0,0,0.05,31.900000000000002,0)" xlink:href="#A"/><use transform="matrix(0.05,0,0,0.05,44.85,0)" xlink:href="#B"/><use transform="matrix(0.05,0,0,0.05,54.85,0)" xlink:href="#x"/><use transform="matrix(0.05,0,0,0.05,64.85,0)" xlink:href="#z"/><use transform="matrix(0.05,0,0,0.05,69.85,0)" xlink:href="#C"/><use transform="matrix(0.05,0,0,0.05,75.8,0)" xlink:href="#B"/><use transform="matrix(0.05,0,0,0.05,85.8,0)" xlink:href="#D"/><use transform="matrix(0.05,0,0,0.05,89.75,0)" xlink:href="#D"/><use transform="matrix(0.05,0,0,0.05,93.7,0)" xlink:href="#E"/><use transform="matrix(0.05,0,0,0.05,103.7,0)" xlink:href="#C"/></g><path d="M85 4C-2 5 27-109 22-190h50c7 57-23 150 33 157 60-5 35-97 40-157h50l1 190h-47c-2-12 1-28-3-38-12 25-28 42-61 42" id="F"/><path d="M114-157C55-157 80-60 75 0H25v-261h50l-1 109c12-26 28-41 61-42 86-1 58 113 63 194h-50c-7-57 23-157-34-157" id="G"/><path d="M135-194c87-1 58 113 63 194h-50c-7-57 23-157-34-157-59 0-34 97-39 157H25l-1-190h47c2 12-1 28 3 38 12-26 28-41 61-42" id="H"/><path d="M121-226c-27-7-43 5-38 36h38v33H83V0H34v-157H6v-33h28c-9-59 32-81 87-68v32" id="I"/><path d="M190-63c-7 42-38 67-86 67-59 0-84-38-90-98-12-110 154-137 174-36l-49 2c-2-19-15-32-35-32-30 0-35 28-38 64-6 74 65 87 74 30" id="J"/><path d="M133-34C117-15 103 5 69 4 32 3 11-16 11-54c-1-60 55-63 116-61 1-26-3-47-28-47-18 1-26 9-28 27l-52-2c7-38 36-58 82-57s74 22 75 68l1 82c-1 14 12 18 25 15v27c-30 8-71 5-69-32zm-48 3c29 0 43-24 42-57-32 0-66-3-65 30 0 17 8 27 23 27" id="K"/><path d="M110-194c64 0 96 36 96 99 0 64-35 99-97 99-61 0-95-36-95-99 0-62 34-99 96-99zm-1 164c35 0 45-28 45-65 0-40-10-65-43-65-34 0-45 26-45 65 0 36 10 65 43 65" id="L"/><g id="f"><use transform="matrix(0.06790123456790123,0,0,0.06790123456790123,0,0)" xlink:href="#u"/><use transform="matrix(0.06790123456790123,0,0,0.06790123456790123,17.586419753086417,0)" xlink:href="#F"/><use transform="matrix(0.06790123456790123,0,0,0.06790123456790123,32.456790123456784,0)" xlink:href="#q"/><use transform="matrix(0.06790123456790123,0,0,0.06790123456790123,40.53703703703704,0)" xlink:href="#G"/><use transform="matrix(0.06790123456790123,0,0,0.06790123456790123,55.407407407407405,0)" xlink:href="#m"/><use transform="matrix(0.06790123456790123,0,0,0.06790123456790123,68.98765432098764,0)" xlink:href="#H"/><use transform="matrix(0.06790123456790123,0,0,0.06790123456790123,83.85802469135801,0)" xlink:href="#q"/><use transform="matrix(0.06790123456790123,0,0,0.06790123456790123,91.93827160493825,0)" xlink:href="#o"/><use transform="matrix(0.06790123456790123,0,0,0.06790123456790123,98.72839506172838,0)" xlink:href="#I"/><use transform="matrix(0.06790123456790123,0,0,0.06790123456790123,106.80864197530863,0)" xlink:href="#o"/><use transform="matrix(0.06790123456790123,0,0,0.06790123456790123,113.59876543209876,0)" xlink:href="#J"/><use transform="matrix(0.06790123456790123,0,0,0.06790123456790123,127.179012345679,0)" xlink:href="#K"/><use transform="matrix(0.06790123456790123,0,0,0.06790123456790123,140.75925925925924,0)" xlink:href="#q"/><use transform="matrix(0.06790123456790123,0,0,0.06790123456790123,148.83950617283952,0)" xlink:href="#o"/><use transform="matrix(0.06790123456790123,0,0,0.06790123456790123,155.62962962962965,0)" xlink:href="#L"/><use transform="matrix(0.06790123456790123,0,0,0.06790123456790123,170.50000000000003,0)" xlink:href="#H"/></g><path d="M230 0l2-204L168 0h-37L68-204 70 0H24v-248h70l56 185 57-185h69V0h-46" id="M"/><g id="g"><use transform="matrix(0.06790123456790123,0,0,0.06790123456790123,0,0)" xlink:href="#M"/><use transform="matrix(0.06790123456790123,0,0,0.06790123456790123,20.30246913580247,0)" xlink:href="#K"/><use transform="matrix(0.06790123456790123,0,0,0.06790123456790123,33.882716049382715,0)" xlink:href="#H"/><use transform="matrix(0.06790123456790123,0,0,0.06790123456790123,48.75308641975309,0)" xlink:href="#K"/><use transform="matrix(0.06790123456790123,0,0,0.06790123456790123,62.333333333333336,0)" xlink:href="#n"/><use transform="matrix(0.06790123456790123,0,0,0.06790123456790123,77.20370370370371,0)" xlink:href="#m"/><use transform="matrix(0.06790123456790123,0,0,0.06790123456790123,90.78395061728395,0)" xlink:href="#r"/></g><path d="M169-182c-1-43-94-46-97-3 18 66 151 10 154 114 3 95-165 93-204 36-6-8-10-19-12-30l50-8c3 46 112 56 116 5-17-69-150-10-154-114-4-87 153-88 188-35 5 8 8 18 10 28" id="N"/><path d="M128 0H69L1-190h53L99-40l48-150h52" id="O"/><g id="h"><use transform="matrix(0.07407407407407408,0,0,0.07407407407407408,0,0)" xlink:href="#N"/><use transform="matrix(0.07407407407407408,0,0,0.07407407407407408,17.77777777777778,0)" xlink:href="#m"/><use transform="matrix(0.07407407407407408,0,0,0.07407407407407408,32.592592592592595,0)" xlink:href="#r"/><use transform="matrix(0.07407407407407408,0,0,0.07407407407407408,42.96296296296297,0)" xlink:href="#O"/><use transform="matrix(0.07407407407407408,0,0,0.07407407407407408,57.777777777777786,0)" xlink:href="#m"/><use transform="matrix(0.07407407407407408,0,0,0.07407407407407408,72.59259259259261,0)" xlink:href="#r"/></g><path d="M67-125c0 53 21 87 73 88 37 1 54-22 65-47l45 17C233-25 199 4 140 4 58 4 20-42 15-125 8-235 124-281 211-232c18 10 29 29 36 50l-46 12c-8-25-30-41-62-41-52 0-71 34-72 86" id="P"/><path d="M25 0v-261h50V0H25" id="Q"/><g id="i"><use transform="matrix(0.07407407407407408,0,0,0.07407407407407408,0,0)" xlink:href="#P"/><use transform="matrix(0.07407407407407408,0,0,0.07407407407407408,19.185185185185187,0)" xlink:href="#Q"/><use transform="matrix(0.07407407407407408,0,0,0.07407407407407408,26.592592592592595,0)" xlink:href="#o"/><use transform="matrix(0.07407407407407408,0,0,0.07407407407407408,34,0)" xlink:href="#m"/><use transform="matrix(0.07407407407407408,0,0,0.07407407407407408,48.81481481481481,0)" xlink:href="#H"/><use transform="matrix(0.07407407407407408,0,0,0.07407407407407408,65.03703703703704,0)" xlink:href="#q"/></g><path d="M182-130c37 4 62 22 62 59C244 23 116-4 24 0v-248c84 5 203-23 205 63 0 31-19 50-47 55zM76-148c40-3 101 13 101-30 0-44-60-28-101-31v61zm0 110c48-3 116 14 116-37 0-48-69-32-116-35v72" id="R"/><path d="M12 0v-35l95-120H19v-35h142v35L67-36h103V0H12" id="S"/><g id="j"><use transform="matrix(0.05,0,0,0.05,0,0)" xlink:href="#R"/><use transform="matrix(0.05,0,0,0.05,12.950000000000001,0)" xlink:href="#P"/><use transform="matrix(0.05,0,0,0.05,25.900000000000002,0)" xlink:href="#L"/><use transform="matrix(0.05,0,0,0.05,36.85,0)" xlink:href="#S"/><use transform="matrix(0.05,0,0,0.05,45.85,0)" xlink:href="#s"/></g><path d="M233-177c-1 41-23 64-60 70L243 0h-38l-65-103H63V0H30v-248c88 3 205-21 203 71zM63-129c60-2 137 13 137-47 0-61-80-42-137-45v92" id="T"/><path d="M210-169c-67 3-38 105-44 169h-31v-121c0-29-5-50-35-48C34-165 62-65 56 0H25l-1-190h30c1 10-1 24 2 32 10-44 99-50 107 0 11-21 27-35 58-36 85-2 47 119 55 194h-31v-121c0-29-5-49-35-48" id="U"/><g id="k"><use transform="matrix(0.05,0,0,0.05,0,0)" xlink:href="#T"/><use transform="matrix(0.05,0,0,0.05,12.950000000000001,0)" xlink:href="#E"/><use transform="matrix(0.05,0,0,0.05,22.950000000000003,0)" xlink:href="#U"/><use transform="matrix(0.05,0,0,0.05,37.900000000000006,0)" xlink:href="#B"/><use transform="matrix(0.05,0,0,0.05,47.900000000000006,0)" xlink:href="#z"/><use transform="matrix(0.05,0,0,0.05,52.900000000000006,0)" xlink:href="#E"/></g></defs></g></svg>