<svg xmlns="http://www.w3.org/2000/svg" xmlns:xlink="http://www.w3.org/1999/xlink" width="1549.5" height="431"><g transform="translate(-108 -60)"><path d="M0 0h1760v1360H0z" fill="#fff"/><path d="M208 340v140" fill="none"/><path d="M208 340v9.33m0 9.34v18.66m0 9.34v18.66m0 9.34v18.66m0 9.34v18.66m0 9.34V480" stroke="#999" stroke-width="2" fill="none"/><path d="M208 201v79" fill="none"/><path d="M208 201v8.78m0 8.78v17.55m0 8.8v17.54m0 8.78V280" stroke="#999" stroke-width="2" fill="none"/><path d="M209 201h-2v-1h2z" fill="#999"/><path d="M1527.5 200v280" fill="none"/><path d="M1527.5 200v10.37m0 10.37v20.74m0 10.37v20.74m0 10.36v20.74m0 10.37v20.74m0 10.4v20.73m0 10.37v20.74m0 10.37v20.75m0 10.37v20.74m0 10.37V480" stroke="#999" stroke-width="2" fill="none"/><path d="M1058 85c0-2.76 2.24-5 5-5h210c2.76 0 5 2.24 5 5v110c0 2.76-2.24 5-5 5h-210c-2.76 0-5-2.24-5-5z" stroke="#666" stroke-width="2" fill="#a3d977"/><use xlink:href="#a" transform="matrix(1,0,0,1,1058,80) translate(31.901234567901227 51.72222222222222)"/><use xlink:href="#b" transform="matrix(1,0,0,1,1058,80) translate(64.19753086419752 73.05555555555556)"/><path d="M1170 400v80" fill="none"/><path d="M1170 400v8.9m0 8.88v17.78m0 8.88v17.78m0 8.9V480" stroke="#999" stroke-width="2" fill="none"/><path d="M1170 260v-29c0-.55-.45-1-1-1s-1-.45-1-1v-29" fill="none"/><path d="M1170 260v-9.67m0-9.66V231l-.3-.7-.7-.3-.7-.3-.3-.7v-9.67m0-9.66V200" stroke="#999" stroke-width="2" fill="none"/><path d="M1168 340l2 60" fill="none"/><path d="M1168 340l.33 10m.34 10l.66 20m.34 10l.33 10" stroke="#999" stroke-width="2" fill="none"/><path d="M1171.1 402.97l-2 .06-.1-3 1-.03h1z" fill="#999"/><path d="M500 265c0-2.76 2.24-5 5-5h30c2.76 0 5 2.24 5 5v90c0 2.76-2.24 5-5 5h-30c-2.76 0-5-2.24-5-5z" stroke="#666" stroke-width="2" fill="#f2f2f2"/><path d="M128 85c0-2.76 2.24-5 5-5h150c2.76 0 5 2.24 5 5v110c0 2.76-2.24 5-5 5H133c-2.76 0-5-2.24-5-5z" stroke="#666" stroke-width="2" fill="#83bbe5"/><use xlink:href="#c" transform="matrix(1,0,0,1,128,80) translate(48.96296296296296 62.97222222222222)"/><path d="M188 265c0-2.76 2.24-5 5-5h30c2.76 0 5 2.24 5 5v90c0 2.76-2.24 5-5 5h-30c-2.76 0-5-2.24-5-5z" stroke="#666" stroke-width="2" fill="#f2f2f2"/><path d="M229 282.67h270" stroke="#999" stroke-width="2" fill="none"/><path d="M229 283.67h-1v-2h1zM499 282.67l-14.27 4.63v-9.27z" fill="#999"/><path d="M500 281.94v1.45l-16.27 5.28v-12.03zm-14.27 4l10.03-3.27-10.03-3.26z" fill="#999"/><use xlink:href="#d" transform="matrix(1,0,0,1,289.7,257.066666666667) translate(0 14.4)"/><use xlink:href="#e" transform="matrix(1,0,0,1,289.7,257.066666666667) translate(113.7 14.4)"/><path d="M499 338.7H229" stroke="#999" stroke-width="2" fill="none"/><path d="M500 339.7h-1v-2h1zM243.27 343.34L229 338.7l14.27-4.63z" fill="#999"/><path d="M244.27 344.72l-16.27-5.3V338l16.27-5.3zm-12.03-6l10.03 3.24v-6.5z" fill="#999"/><use xlink:href="#f" transform="matrix(1,0,0,1,295.075,313.1054788441582) translate(0 14.4)"/><use xlink:href="#g" transform="matrix(1,0,0,1,295.075,313.1054788441582) translate(43.900000000000006 14.4)"/><use xlink:href="#h" transform="matrix(1,0,0,1,295.075,313.1054788441582) translate(109.85000000000001 14.4)"/><path d="M440 85c0-2.76 2.24-5 5-5h150c2.76 0 5 2.24 5 5v110c0 2.76-2.24 5-5 5H445c-2.76 0-5-2.24-5-5z" stroke="#666" stroke-width="2" fill="#ffc374"/><use xlink:href="#i" transform="matrix(1,0,0,1,440,80) translate(40.029999999999994 51.9)"/><use xlink:href="#j" transform="matrix(1,0,0,1,440,80) translate(33.62999999999999 73.5)"/><path d="M739.5 85c0-2.76 2.24-5 5-5h169c2.76 0 5 2.24 5 5v110c0 2.76-2.24 5-5 5h-169c-2.76 0-5-2.24-5-5z" stroke="#666" stroke-width="2" fill="#ccc"/><use xlink:href="#a" transform="matrix(1,0,0,1,739.5,80) translate(11.401234567901227 51.72222222222222)"/><use xlink:href="#k" transform="matrix(1,0,0,1,739.5,80) translate(51.54938271604939 73.05555555555556)"/><path d="M829 200v139.5c0 .28.22.5.5.5s.5.22.5.5V480" fill="none"/><path d="M829 200v9.3m0 9.3v18.6m0 9.3v18.6m0 9.3V293m0 9.3v18.6m0 9.3v9.3l.15.35.35.15.35.15.15.35v9.3m0 9.3v18.6m0 9.3v18.6m0 9.3v18.6m0 9.3v18.6m0 9.3v9.3" stroke="#999" stroke-width="2" fill="none"/><path d="M520 200v280" fill="none"/><path d="M520 200v10.37m0 10.37v20.74m0 10.37v20.74m0 10.36v20.74m0 10.37v20.74m0 10.4v20.73m0 10.37v20.74m0 10.37v20.75m0 10.37v20.74m0 10.37V480" stroke="#999" stroke-width="2" fill="none"/><path d="M1417.5 85c0-2.76 2.24-5 5-5h210c2.76 0 5 2.24 5 5v110c0 2.76-2.24 5-5 5h-210c-2.76 0-5-2.24-5-5z" stroke="#666" stroke-width="2" fill="#a3d977"/><use xlink:href="#a" transform="matrix(1,0,0,1,1417.5,80) translate(31.901234567901227 51.72222222222222)"/><use xlink:href="#l" transform="matrix(1,0,0,1,1417.5,80) translate(64.96296296296296 73.05555555555556)"/><path d="M541 290.67h288" stroke="#999" stroke-width="2" fill="none"/><path d="M541 291.67h-1v-2h1z" fill="#999"/><path d="M829 290.67l-14.27 4.63v-9.27z" stroke="#999" stroke-width="2" fill="#999"/><use xlink:href="#m" transform="matrix(1,0,0,1,585.15,265.06666666666666) translate(0 14.4)"/><use xlink:href="#n" transform="matrix(1,0,0,1,585.15,265.06666666666666) translate(103.85000000000001 14.4)"/><path d="M829 289.03h233" stroke="#999" stroke-width="2" fill="none"/><path d="M1062 289.03l-14.27 4.63v-9.27z" stroke="#999" stroke-width="2" fill="#999"/><path d="M1057 339.06H829" stroke="#999" stroke-width="2" fill="none"/><path d="M1058 340.06h-1v-2h1z" fill="#999"/><path d="M829 339.06l14.27-4.63v9.27z" stroke="#999" stroke-width="2" fill="#999"/><path d="M541 338.3h143.98l.02.03h144" stroke="#999" stroke-width="2" fill="none"/><path d="M555.27 342.95L541 338.3l14.27-4.62z" fill="#999"/><path d="M556.27 344.32L540 339.04v-1.45l16.27-5.3zm-12.03-6l10.03 3.25v-6.52z" fill="#999"/><use xlink:href="#o" transform="matrix(1,0,0,1,645.1009701088452,312.71221509504505) translate(0 14.4)"/><use xlink:href="#p" transform="matrix(1,0,0,1,645.1009701088452,312.71221509504505) translate(43.900000000000006 14.4)"/><path d="M1058 265c0-2.76 2.24-5 5-5h214c2.76 0 5 2.24 5 5v130c0 2.76-2.24 5-5 5h-214c-2.76 0-5-2.24-5-5z" stroke="#666" stroke-width="2" fill="#f2f2f2"/><use xlink:href="#q" transform="matrix(1,0,0,1,1058,260) translate(7.01 19.41)"/><use xlink:href="#g" transform="matrix(1,0,0,1,1058,260) translate(56.96 19.41)"/><use xlink:href="#r" transform="matrix(1,0,0,1,1058,260) translate(122.91 19.41)"/><use xlink:href="#s" transform="matrix(1,0,0,1,1058,260) translate(155.91 19.41)"/><use xlink:href="#t" transform="matrix(1,0,0,1,1058,260) translate(184.81 19.41)"/><use xlink:href="#u" transform="matrix(1,0,0,1,1058,260) translate(5.01 41.01)"/><use xlink:href="#v" transform="matrix(1,0,0,1,1058,260) translate(5.01 62.61)"/><use xlink:href="#w" transform="matrix(1,0,0,1,1058,260) translate(5.01 84.21000000000001)"/><use xlink:href="#g" transform="matrix(1,0,0,1,1058,260) translate(61.96 84.21000000000001)"/><use xlink:href="#r" transform="matrix(1,0,0,1,1058,260) translate(127.91 84.21000000000001)"/><use xlink:href="#x" transform="matrix(1,0,0,1,1058,260) translate(160.91 84.21000000000001)"/><use xlink:href="#y" transform="matrix(1,0,0,1,1058,260) translate(5.01 105.81)"/><use xlink:href="#z" transform="matrix(1,0,0,1,1058,260) translate(58.910000000000004 105.81)"/><use xlink:href="#A" transform="matrix(1,0,0,1,1058,260) translate(94.91 105.81)"/><use xlink:href="#B" transform="matrix(1,0,0,1,1058,260) translate(7.01 127.41)"/><path d="M1283 280h224" stroke="#999" stroke-width="2" fill="none"/><path d="M1283 281h-1v-2h1zM1507 280l-14.27 4.64v-9.28z" fill="#999"/><path d="M1508 279.27v1.46l-16.27 5.28v-12zm-14.27 4l10.03-3.27-10.03-3.26z" fill="#999"/><path fill="#fff" d="M1304.02 269.2h115.8v21.6h-115.8z"/><g><use xlink:href="#C" transform="matrix(1,0,0,1,1304.0202196971657,269.2) translate(0.005000000000002558 14.4)"/></g><path d="M1508 275c0-2.76 2.24-5 5-5h30c2.76 0 5 2.24 5 5v60c0 2.76-2.24 5-5 5h-30c-2.76 0-5-2.24-5-5z" stroke="#666" stroke-width="2" fill="#f2f2f2"/><path d="M1507 320h-224" stroke="#999" stroke-width="2" fill="none"/><path d="M1508 321h-1v-2h1zM1297.27 324.64L1283 320l14.27-4.64z" fill="#999"/><path d="M1298.27 326l-16.27-5.27v-1.46l16.27-5.28zm-12.03-6l10.03 3.26v-6.52z" fill="#999"/><path d="M678.5 365c0-2.76 2.24-5 5-5h275c2.76 0 6.58 1.58 8.54 3.54l8.92 8.92c1.96 1.96 3.54 5.78 3.54 8.54v54c0 2.76-2.24 5-5 5h-291c-2.76 0-5-2.24-5-5z" stroke="#666" stroke-width="2" fill="#fff"/><path d="M964.7 364.85c-.66-2.68.38-3.27 2.34-1.3l8.92 8.9c1.96 1.97 1.37 3-1.3 2.34l-3.1-.8c-2.7-.66-5.4-3.37-6.07-6.05z" stroke="#666" stroke-width="2" fill="#b3b3b3"/><g><use xlink:href="#D" transform="matrix(1,0,0,1,678.5,360) translate(63.554999999999986 21.9)"/><use xlink:href="#E" transform="matrix(1,0,0,1,678.5,360) translate(138.505 21.9)"/><use xlink:href="#F" transform="matrix(1,0,0,1,678.5,360) translate(194.455 21.9)"/><use xlink:href="#G" transform="matrix(1,0,0,1,678.5,360) translate(69.43000000000002 43.5)"/><use xlink:href="#H" transform="matrix(1,0,0,1,678.5,360) translate(57.705000000000005 65.10000000000001)"/><use xlink:href="#I" transform="matrix(1,0,0,1,678.5,360) translate(76.70500000000001 65.10000000000001)"/></g><defs><path fill="#333" d="M199 0l-22-63H83L61 0H9l90-248h61L250 0h-51zm-33-102l-36-108c-10 38-24 72-36 108h72" id="J"/><path fill="#333" d="M238-95c0 69-44 99-111 99C63 4 22-25 22-93v-155h51v151c-1 38 19 59 55 60 90 1 49-130 58-211h52v153" id="K"/><path fill="#333" d="M136-208V0H84v-208H4v-40h212v40h-80" id="L"/><path fill="#333" d="M186 0v-106H76V0H24v-248h52v99h110v-99h50V0h-50" id="M"/><path fill="#333" d="M24 0v-248h195v40H76v63h132v40H76v65h150V0H24" id="N"/><path fill="#333" d="M175 0L67-191c6 58 2 128 3 191H24v-248h59L193-55c-6-58-2-129-3-193h46V0h-61" id="O"/><path fill="#333" d="M24 0v-248h52V0H24" id="P"/><path fill="#333" d="M67-125c0 53 21 87 73 88 37 1 54-22 65-47l45 17C233-25 199 4 140 4 58 4 20-42 15-125 8-235 124-281 211-232c18 10 29 29 36 50l-46 12c-8-25-30-41-62-41-52 0-71 34-72 86" id="Q"/><path fill="#333" d="M140-251c80 0 125 45 125 126S219 4 139 4C58 4 15-44 15-125s44-126 125-126zm-1 214c52 0 73-35 73-88 0-50-21-86-72-86-52 0-73 35-73 86s22 88 72 88" id="R"/><g id="a"><use transform="matrix(0.04938271604938272,0,0,0.04938271604938272,0,0)" xlink:href="#J"/><use transform="matrix(0.04938271604938272,0,0,0.04938271604938272,12.790123456790125,0)" xlink:href="#K"/><use transform="matrix(0.04938271604938272,0,0,0.04938271604938272,25.58024691358025,0)" xlink:href="#L"/><use transform="matrix(0.04938271604938272,0,0,0.04938271604938272,36.39506172839506,0)" xlink:href="#M"/><use transform="matrix(0.04938271604938272,0,0,0.04938271604938272,49.18518518518519,0)" xlink:href="#N"/><use transform="matrix(0.04938271604938272,0,0,0.04938271604938272,61.037037037037045,0)" xlink:href="#O"/><use transform="matrix(0.04938271604938272,0,0,0.04938271604938272,73.82716049382717,0)" xlink:href="#L"/><use transform="matrix(0.04938271604938272,0,0,0.04938271604938272,84.64197530864197,0)" xlink:href="#P"/><use transform="matrix(0.04938271604938272,0,0,0.04938271604938272,89.58024691358025,0)" xlink:href="#Q"/><use transform="matrix(0.04938271604938272,0,0,0.04938271604938272,102.37037037037038,0)" xlink:href="#J"/><use transform="matrix(0.04938271604938272,0,0,0.04938271604938272,113.82716049382717,0)" xlink:href="#L"/><use transform="matrix(0.04938271604938272,0,0,0.04938271604938272,124.64197530864199,0)" xlink:href="#P"/><use transform="matrix(0.04938271604938272,0,0,0.04938271604938272,129.58024691358025,0)" xlink:href="#R"/><use transform="matrix(0.04938271604938272,0,0,0.04938271604938272,143.40740740740742,0)" xlink:href="#O"/></g><path fill="#333" d="M230 0l2-204L168 0h-37L68-204 70 0H24v-248h70l56 185 57-185h69V0h-46" id="S"/><path fill="#333" d="M67-125c0 54 23 88 75 88 28 0 53-7 68-21v-34h-60v-39h108v91C232-14 192 4 140 4 58 4 20-42 15-125 8-236 126-280 215-234c19 10 29 26 37 47l-47 15c-11-23-29-39-63-39-53 1-75 33-75 86" id="T"/><path fill="#333" d="M240-174c0 40-23 61-54 70L253 0h-59l-57-94H76V0H24v-248c93 4 217-23 216 74zM76-134c48-2 112 12 112-38 0-48-66-32-112-35v73" id="U"/><g id="b"><use transform="matrix(0.04938271604938272,0,0,0.04938271604938272,0,0)" xlink:href="#S"/><use transform="matrix(0.04938271604938272,0,0,0.04938271604938272,14.765432098765434,0)" xlink:href="#J"/><use transform="matrix(0.04938271604938272,0,0,0.04938271604938272,27.555555555555557,0)" xlink:href="#O"/><use transform="matrix(0.04938271604938272,0,0,0.04938271604938272,40.345679012345684,0)" xlink:href="#J"/><use transform="matrix(0.04938271604938272,0,0,0.04938271604938272,53.135802469135804,0)" xlink:href="#T"/><use transform="matrix(0.04938271604938272,0,0,0.04938271604938272,66.96296296296298,0)" xlink:href="#N"/><use transform="matrix(0.04938271604938272,0,0,0.04938271604938272,78.81481481481482,0)" xlink:href="#U"/></g><path fill="#333" d="M182-130c37 4 62 22 62 59C244 23 116-4 24 0v-248c84 5 203-23 205 63 0 31-19 50-47 55zM76-148c40-3 101 13 101-30 0-44-60-28-101-31v61zm0 110c48-3 116 14 116-37 0-48-69-32-116-35v72" id="V"/><path fill="#333" d="M210 0H11v-37l134-170H24v-41h178v36L68-41h142V0" id="W"/><path fill="#333" d="M146-102V0H94v-102L6-248h54l60 105 60-105h54" id="X"/><g id="c"><use transform="matrix(0.04938271604938272,0,0,0.04938271604938272,0,0)" xlink:href="#V"/><use transform="matrix(0.04938271604938272,0,0,0.04938271604938272,12.790123456790125,0)" xlink:href="#Q"/><use transform="matrix(0.04938271604938272,0,0,0.04938271604938272,25.58024691358025,0)" xlink:href="#R"/><use transform="matrix(0.04938271604938272,0,0,0.04938271604938272,39.40740740740741,0)" xlink:href="#W"/><use transform="matrix(0.04938271604938272,0,0,0.04938271604938272,50.22222222222223,0)" xlink:href="#X"/></g><path d="M24 0v-261h32V0H24" id="Y"/><path d="M100-194c62-1 85 37 85 99 1 63-27 99-86 99S16-35 15-95c0-66 28-99 85-99zM99-20c44 1 53-31 53-75 0-43-8-75-51-75s-53 32-53 75 10 74 51 75" id="Z"/><path d="M177-190C167-65 218 103 67 71c-23-6-38-20-44-43l32-5c15 47 100 32 89-28v-30C133-14 115 1 83 1 29 1 15-40 15-95c0-56 16-97 71-98 29-1 48 16 59 35 1-10 0-23 2-32h30zM94-22c36 0 50-32 50-73 0-42-14-75-50-75-39 0-46 34-46 75s6 73 46 73" id="aa"/><path d="M24-231v-30h32v30H24zM24 0v-190h32V0H24" id="ab"/><path d="M117-194c89-4 53 116 60 194h-32v-121c0-31-8-49-39-48C34-167 62-67 57 0H25l-1-190h30c1 10-1 24 2 32 11-22 29-35 61-36" id="ac"/><path d="M87 75C49 33 22-17 22-94c0-76 28-126 65-167h31c-38 41-64 92-64 168S80 34 118 75H87" id="ad"/><path d="M96-169c-40 0-48 33-48 73s9 75 48 75c24 0 41-14 43-38l32 2c-6 37-31 61-74 61-59 0-76-41-82-99-10-93 101-131 147-64 4 7 5 14 7 22l-32 3c-4-21-16-35-41-35" id="ae"/><path d="M100-194c63 0 86 42 84 106H49c0 40 14 67 53 68 26 1 43-12 49-29l28 8c-11 28-37 45-77 45C44 4 14-33 15-96c1-61 26-98 85-98zm52 81c6-60-76-77-97-28-3 7-6 17-6 28h103" id="af"/><path d="M59-47c-2 24 18 29 38 22v24C64 9 27 4 27-40v-127H5v-23h24l9-43h21v43h35v23H59v120" id="ag"/><path d="M33 0v-248h34V0H33" id="ah"/><path d="M30-248c118-7 216 8 213 122C240-48 200 0 122 0H30v-248zM63-27c89 8 146-16 146-99s-60-101-146-95v194" id="ai"/><path d="M68-38c1 34 0 65-14 84H32c9-13 17-26 17-46H33v-38h35" id="aj"/><g id="d"><use transform="matrix(0.05,0,0,0.05,0,0)" xlink:href="#Y"/><use transform="matrix(0.05,0,0,0.05,3.95,0)" xlink:href="#Z"/><use transform="matrix(0.05,0,0,0.05,13.949999999999998,0)" xlink:href="#aa"/><use transform="matrix(0.05,0,0,0.05,23.95,0)" xlink:href="#ab"/><use transform="matrix(0.05,0,0,0.05,27.899999999999995,0)" xlink:href="#ac"/><use transform="matrix(0.05,0,0,0.05,37.9,0)" xlink:href="#ad"/><use transform="matrix(0.05,0,0,0.05,43.85,0)" xlink:href="#ae"/><use transform="matrix(0.05,0,0,0.05,52.85,0)" xlink:href="#Y"/><use transform="matrix(0.05,0,0,0.05,56.800000000000004,0)" xlink:href="#ab"/><use transform="matrix(0.05,0,0,0.05,60.75,0)" xlink:href="#af"/><use transform="matrix(0.05,0,0,0.05,70.75,0)" xlink:href="#ac"/><use transform="matrix(0.05,0,0,0.05,80.75,0)" xlink:href="#ag"/><use transform="matrix(0.05,0,0,0.05,85.75,0)" xlink:href="#ah"/><use transform="matrix(0.05,0,0,0.05,90.75,0)" xlink:href="#ai"/><use transform="matrix(0.05,0,0,0.05,103.7,0)" xlink:href="#aj"/></g><path d="M30-248c87 1 191-15 191 75 0 78-77 80-158 76V0H30v-248zm33 125c57 0 124 11 124-50 0-59-68-47-124-48v98" id="ak"/><path d="M266 0h-40l-56-210L115 0H75L2-248h35L96-30l15-64 43-154h32l59 218 59-218h35" id="al"/><path d="M33-261c38 41 65 92 65 168S71 34 33 75H2C39 34 66-17 66-93S39-220 2-261h31" id="am"/><g id="e"><use transform="matrix(0.05,0,0,0.05,0,0)" xlink:href="#ak"/><use transform="matrix(0.05,0,0,0.05,12,0)" xlink:href="#al"/><use transform="matrix(0.05,0,0,0.05,28.950000000000003,0)" xlink:href="#am"/></g><path d="M212-179c-10-28-35-45-73-45-59 0-87 40-87 99 0 60 29 101 89 101 43 0 62-24 78-52l27 14C228-24 195 4 139 4 59 4 22-46 18-125c-6-104 99-153 187-111 19 9 31 26 39 46" id="an"/><path d="M185-189c-5-48-123-54-124 2 14 75 158 14 163 119 3 78-121 87-175 55-17-10-28-26-33-46l33-7c5 56 141 63 141-1 0-78-155-14-162-118-5-82 145-84 179-34 5 7 8 16 11 25" id="ao"/><path d="M127-220V0H93v-220H8v-28h204v28h-85" id="ap"/><g id="f"><use transform="matrix(0.05,0,0,0.05,0,0)" xlink:href="#an"/><use transform="matrix(0.05,0,0,0.05,12.950000000000001,0)" xlink:href="#ao"/><use transform="matrix(0.05,0,0,0.05,24.950000000000003,0)" xlink:href="#ap"/><use transform="matrix(0.05,0,0,0.05,33.900000000000006,0)" xlink:href="#aj"/></g><path d="M135-143c-3-34-86-38-87 0 15 53 115 12 119 90S17 21 10-45l28-5c4 36 97 45 98 0-10-56-113-15-118-90-4-57 82-63 122-42 12 7 21 19 24 35" id="aq"/><g id="g"><use transform="matrix(0.05,0,0,0.05,0,0)" xlink:href="#aq"/><use transform="matrix(0.05,0,0,0.05,9,0)" xlink:href="#af"/><use transform="matrix(0.05,0,0,0.05,19,0)" xlink:href="#aq"/><use transform="matrix(0.05,0,0,0.05,28,0)" xlink:href="#aq"/><use transform="matrix(0.05,0,0,0.05,37,0)" xlink:href="#ab"/><use transform="matrix(0.05,0,0,0.05,40.95,0)" xlink:href="#Z"/><use transform="matrix(0.05,0,0,0.05,50.95,0)" xlink:href="#ac"/></g><path d="M143 0L79-87 56-68V0H24v-261h32v163l83-92h37l-77 82L181 0h-38" id="ar"/><path d="M179-190L93 31C79 59 56 82 12 73V49c39 6 53-20 64-50L1-190h34L92-34l54-156h33" id="as"/><g id="h"><use transform="matrix(0.05,0,0,0.05,0,0)" xlink:href="#ar"/><use transform="matrix(0.05,0,0,0.05,9,0)" xlink:href="#af"/><use transform="matrix(0.05,0,0,0.05,19,0)" xlink:href="#as"/></g><path d="M169-182c-1-43-94-46-97-3 18 66 151 10 154 114 3 95-165 93-204 36-6-8-10-19-12-30l50-8c3 46 112 56 116 5-17-69-150-10-154-114-4-87 153-88 188-35 5 8 8 18 10 28" id="at"/><path d="M24 0v-248h195v40H76v63h132v40H76v65h150V0H24" id="au"/><path d="M24 0v-248h52V0H24" id="av"/><path d="M140-251c80 0 125 45 125 126S219 4 139 4C58 4 15-44 15-125s44-126 125-126zm-1 214c52 0 73-35 73-88 0-50-21-86-72-86-52 0-73 35-73 86s22 88 72 88" id="aw"/><path d="M175 0L67-191c6 58 2 128 3 191H24v-248h59L193-55c-6-58-2-129-3-193h46V0h-61" id="ax"/><g id="i"><use transform="matrix(0.05,0,0,0.05,0,0)" xlink:href="#at"/><use transform="matrix(0.05,0,0,0.05,12,0)" xlink:href="#au"/><use transform="matrix(0.05,0,0,0.05,24,0)" xlink:href="#at"/><use transform="matrix(0.05,0,0,0.05,36,0)" xlink:href="#at"/><use transform="matrix(0.05,0,0,0.05,48,0)" xlink:href="#av"/><use transform="matrix(0.05,0,0,0.05,53,0)" xlink:href="#aw"/><use transform="matrix(0.05,0,0,0.05,67,0)" xlink:href="#ax"/></g><path d="M230 0l2-204L168 0h-37L68-204 70 0H24v-248h70l56 185 57-185h69V0h-46" id="ay"/><path d="M199 0l-22-63H83L61 0H9l90-248h61L250 0h-51zm-33-102l-36-108c-10 38-24 72-36 108h72" id="az"/><path d="M67-125c0 54 23 88 75 88 28 0 53-7 68-21v-34h-60v-39h108v91C232-14 192 4 140 4 58 4 20-42 15-125 8-236 126-280 215-234c19 10 29 26 37 47l-47 15c-11-23-29-39-63-39-53 1-75 33-75 86" id="aA"/><path d="M240-174c0 40-23 61-54 70L253 0h-59l-57-94H76V0H24v-248c93 4 217-23 216 74zM76-134c48-2 112 12 112-38 0-48-66-32-112-35v73" id="aB"/><g id="j"><use transform="matrix(0.05,0,0,0.05,0,0)" xlink:href="#ay"/><use transform="matrix(0.05,0,0,0.05,14.950000000000001,0)" xlink:href="#az"/><use transform="matrix(0.05,0,0,0.05,27.900000000000002,0)" xlink:href="#ax"/><use transform="matrix(0.05,0,0,0.05,40.85,0)" xlink:href="#az"/><use transform="matrix(0.05,0,0,0.05,53.800000000000004,0)" xlink:href="#aA"/><use transform="matrix(0.05,0,0,0.05,67.80000000000001,0)" xlink:href="#au"/><use transform="matrix(0.05,0,0,0.05,79.80000000000001,0)" xlink:href="#aB"/></g><g id="k"><use transform="matrix(0.04938271604938272,0,0,0.04938271604938272,0,0)" xlink:href="#U"/><use transform="matrix(0.04938271604938272,0,0,0.04938271604938272,12.790123456790125,0)" xlink:href="#N"/><use transform="matrix(0.04938271604938272,0,0,0.04938271604938272,24.641975308641978,0)" xlink:href="#S"/><use transform="matrix(0.04938271604938272,0,0,0.04938271604938272,39.40740740740741,0)" xlink:href="#R"/><use transform="matrix(0.04938271604938272,0,0,0.04938271604938272,53.23456790123457,0)" xlink:href="#L"/><use transform="matrix(0.04938271604938272,0,0,0.04938271604938272,64.04938271604938,0)" xlink:href="#N"/></g><path fill="#333" d="M169-182c-1-43-94-46-97-3 18 66 151 10 154 114 3 95-165 93-204 36-6-8-10-19-12-30l50-8c3 46 112 56 116 5-17-69-150-10-154-114-4-87 153-88 188-35 5 8 8 18 10 28" id="aC"/><g id="l"><use transform="matrix(0.04938271604938272,0,0,0.04938271604938272,0,0)" xlink:href="#U"/><use transform="matrix(0.04938271604938272,0,0,0.04938271604938272,12.790123456790125,0)" xlink:href="#N"/><use transform="matrix(0.04938271604938272,0,0,0.04938271604938272,24.641975308641978,0)" xlink:href="#T"/><use transform="matrix(0.04938271604938272,0,0,0.04938271604938272,38.46913580246914,0)" xlink:href="#P"/><use transform="matrix(0.04938271604938272,0,0,0.04938271604938272,43.40740740740741,0)" xlink:href="#aC"/><use transform="matrix(0.04938271604938272,0,0,0.04938271604938272,55.25925925925927,0)" xlink:href="#L"/><use transform="matrix(0.04938271604938272,0,0,0.04938271604938272,66.07407407407408,0)" xlink:href="#U"/><use transform="matrix(0.04938271604938272,0,0,0.04938271604938272,78.22222222222223,0)" xlink:href="#X"/></g><path d="M114-163C36-179 61-72 57 0H25l-1-190h30c1 12-1 29 2 39 6-27 23-49 58-41v29" id="aD"/><path d="M145-31C134-9 116 4 85 4 32 4 16-35 15-94c0-59 17-99 70-100 32-1 48 14 60 33 0-11-1-24 2-32h30l-1 268h-32zM93-21c41 0 51-33 51-76s-8-73-50-73c-40 0-46 35-46 75s5 74 45 74" id="aE"/><path d="M84 4C-5 8 30-112 23-190h32v120c0 31 7 50 39 49 72-2 45-101 50-169h31l1 190h-30c-1-10 1-25-2-33-11 22-28 36-60 37" id="aF"/><path d="M143 4C61 4 22-44 18-125c-5-107 100-154 193-111 17 8 29 25 37 43l-32 9c-13-25-37-40-76-40-61 0-88 39-88 99 0 61 29 100 91 101 35 0 62-11 79-27v-45h-74v-28h105v86C228-13 192 4 143 4" id="aG"/><g id="m"><use transform="matrix(0.05,0,0,0.05,0,0)" xlink:href="#aD"/><use transform="matrix(0.05,0,0,0.05,5.95,0)" xlink:href="#af"/><use transform="matrix(0.05,0,0,0.05,15.949999999999998,0)" xlink:href="#aE"/><use transform="matrix(0.05,0,0,0.05,25.950000000000003,0)" xlink:href="#aF"/><use transform="matrix(0.05,0,0,0.05,35.95,0)" xlink:href="#af"/><use transform="matrix(0.05,0,0,0.05,45.95,0)" xlink:href="#aq"/><use transform="matrix(0.05,0,0,0.05,54.95,0)" xlink:href="#ag"/><use transform="matrix(0.05,0,0,0.05,59.95,0)" xlink:href="#ap"/><use transform="matrix(0.05,0,0,0.05,70.9,0)" xlink:href="#aG"/><use transform="matrix(0.05,0,0,0.05,84.9,0)" xlink:href="#ap"/><use transform="matrix(0.05,0,0,0.05,93.85000000000001,0)" xlink:href="#aj"/></g><g id="n"><use transform="matrix(0.05,0,0,0.05,0,0)" xlink:href="#aD"/><use transform="matrix(0.05,0,0,0.05,5.95,0)" xlink:href="#af"/><use transform="matrix(0.05,0,0,0.05,15.949999999999998,0)" xlink:href="#aE"/><use transform="matrix(0.05,0,0,0.05,25.950000000000003,0)" xlink:href="#aF"/><use transform="matrix(0.05,0,0,0.05,35.95,0)" xlink:href="#af"/><use transform="matrix(0.05,0,0,0.05,45.95,0)" xlink:href="#aq"/><use transform="matrix(0.05,0,0,0.05,54.95,0)" xlink:href="#ag"/><use transform="matrix(0.05,0,0,0.05,59.95,0)" xlink:href="#an"/><use transform="matrix(0.05,0,0,0.05,72.9,0)" xlink:href="#ao"/><use transform="matrix(0.05,0,0,0.05,84.9,0)" xlink:href="#ap"/></g><g id="o"><use transform="matrix(0.05,0,0,0.05,0,0)" xlink:href="#ap"/><use transform="matrix(0.05,0,0,0.05,10.950000000000001,0)" xlink:href="#aG"/><use transform="matrix(0.05,0,0,0.05,24.950000000000003,0)" xlink:href="#ap"/><use transform="matrix(0.05,0,0,0.05,33.900000000000006,0)" xlink:href="#aj"/></g><g id="p"><use transform="matrix(0.05,0,0,0.05,0,0)" xlink:href="#an"/><use transform="matrix(0.05,0,0,0.05,12.950000000000001,0)" xlink:href="#ao"/><use transform="matrix(0.05,0,0,0.05,24.950000000000003,0)" xlink:href="#ap"/></g><path d="M238-95c0 69-44 99-111 99C63 4 22-25 22-93v-155h51v151c-1 38 19 59 55 60 90 1 49-130 58-211h52v153" id="aH"/><path d="M137-138c1-29-70-34-71-4 15 46 118 7 119 86 1 83-164 76-172 9l43-7c4 19 20 25 44 25 33 8 57-30 24-41C81-84 22-81 20-136c-2-80 154-74 161-7" id="aI"/><path d="M185-48c-13 30-37 53-82 52C43 2 14-33 14-96s30-98 90-98c62 0 83 45 84 108H66c0 31 8 55 39 56 18 0 30-7 34-22zm-45-69c5-46-57-63-70-21-2 6-4 13-4 21h74" id="aJ"/><path d="M135-150c-39-12-60 13-60 57V0H25l-1-190h47c2 13-1 29 3 40 6-28 27-53 61-41v41" id="aK"/><path d="M33-154v-36h34v36H33zM33 0v-36h34V0H33" id="aL"/><g id="q"><use transform="matrix(0.05,0,0,0.05,0,0)" xlink:href="#aH"/><use transform="matrix(0.05,0,0,0.05,12.950000000000001,0)" xlink:href="#aI"/><use transform="matrix(0.05,0,0,0.05,22.950000000000003,0)" xlink:href="#aJ"/><use transform="matrix(0.05,0,0,0.05,32.95,0)" xlink:href="#aK"/><use transform="matrix(0.05,0,0,0.05,39.95,0)" xlink:href="#aL"/></g><g id="r"><use transform="matrix(0.05,0,0,0.05,0,0)" xlink:href="#ar"/><use transform="matrix(0.05,0,0,0.05,9,0)" xlink:href="#af"/><use transform="matrix(0.05,0,0,0.05,19,0)" xlink:href="#as"/></g><path d="M210-169c-67 3-38 105-44 169h-31v-121c0-29-5-50-35-48C34-165 62-65 56 0H25l-1-190h30c1 10-1 24 2 32 10-44 99-50 107 0 11-21 27-35 58-36 85-2 47 119 55 194h-31v-121c0-29-5-49-35-48" id="aM"/><g id="s"><use transform="matrix(0.05,0,0,0.05,0,0)" xlink:href="#aM"/><use transform="matrix(0.05,0,0,0.05,14.950000000000001,0)" xlink:href="#ab"/><use transform="matrix(0.05,0,0,0.05,18.900000000000002,0)" xlink:href="#ag"/></g><g id="t"><use transform="matrix(0.05,0,0,0.05,0,0)" xlink:href="#ak"/><use transform="matrix(0.05,0,0,0.05,12,0)" xlink:href="#al"/></g><path d="M106-169C34-169 62-67 57 0H25v-261h32l-1 103c12-21 28-36 61-36 89 0 53 116 60 194h-32v-121c2-32-8-49-39-48" id="aN"/><g id="u"><use transform="matrix(0.05,0,0,0.05,0,0)" xlink:href="#aq"/><use transform="matrix(0.05,0,0,0.05,9,0)" xlink:href="#as"/><use transform="matrix(0.05,0,0,0.05,18,0)" xlink:href="#aM"/><use transform="matrix(0.05,0,0,0.05,32.95,0)" xlink:href="#aM"/><use transform="matrix(0.05,0,0,0.05,47.900000000000006,0)" xlink:href="#af"/><use transform="matrix(0.05,0,0,0.05,57.900000000000006,0)" xlink:href="#ag"/><use transform="matrix(0.05,0,0,0.05,62.900000000000006,0)" xlink:href="#aD"/><use transform="matrix(0.05,0,0,0.05,68.85000000000001,0)" xlink:href="#ab"/><use transform="matrix(0.05,0,0,0.05,72.80000000000001,0)" xlink:href="#aq"/><use transform="matrix(0.05,0,0,0.05,81.80000000000001,0)" xlink:href="#ae"/><use transform="matrix(0.05,0,0,0.05,90.80000000000001,0)" xlink:href="#aN"/></g><path d="M108 0H70L1-190h34L89-25l56-165h34" id="aO"/><path d="M85 4C-4 8 31-112 24-190h32v120c0 31 7 50 39 49 72-2 45-101 50-169h31l1 190h-30c-1-10 1-25-2-33-11 22-28 36-60 37zm34-218v-33h29v33h-29zm-69 0v-33h29v33H50" id="aP"/><g id="v"><use transform="matrix(0.05,0,0,0.05,0,0)" xlink:href="#aO"/><use transform="matrix(0.05,0,0,0.05,9,0)" xlink:href="#af"/><use transform="matrix(0.05,0,0,0.05,19,0)" xlink:href="#aD"/><use transform="matrix(0.05,0,0,0.05,24.95,0)" xlink:href="#aq"/><use transform="matrix(0.05,0,0,0.05,33.95,0)" xlink:href="#ae"/><use transform="matrix(0.05,0,0,0.05,42.95,0)" xlink:href="#aN"/><use transform="matrix(0.05,0,0,0.05,52.95,0)" xlink:href="#Y"/><use transform="matrix(0.05,0,0,0.05,56.900000000000006,0)" xlink:href="#aP"/><use transform="matrix(0.05,0,0,0.05,66.9,0)" xlink:href="#aq"/><use transform="matrix(0.05,0,0,0.05,75.9,0)" xlink:href="#aq"/><use transform="matrix(0.05,0,0,0.05,84.9,0)" xlink:href="#af"/><use transform="matrix(0.05,0,0,0.05,94.9,0)" xlink:href="#Y"/><use transform="matrix(0.05,0,0,0.05,98.85000000000001,0)" xlink:href="#ac"/></g><path d="M132-34C116-15 102 5 68 4 31 3 10-16 10-54c-1-60 55-63 116-61 1-26-3-47-28-47-18 1-26 9-28 27l-52-2c7-38 36-58 82-57s74 22 75 68l1 82c-1 14 12 18 25 15v27c-30 8-71 5-69-32zm-48 3c29 0 43-24 42-57-32 0-66-3-65 30 0 17 8 27 23 27zm33-180v-38h38v38h-38zm-76 0v-38h37v38H41" id="aQ"/><path d="M115-3C79 11 28 4 28-45v-112H4v-33h27l15-45h31v45h36v33H77v99c-1 23 16 31 38 25v30" id="aR"/><g id="w"><use transform="matrix(0.05,0,0,0.05,0,0)" xlink:href="#aA"/><use transform="matrix(0.05,0,0,0.05,14,0)" xlink:href="#aJ"/><use transform="matrix(0.05,0,0,0.05,24,0)" xlink:href="#aK"/><use transform="matrix(0.05,0,0,0.05,31,0)" xlink:href="#aQ"/><use transform="matrix(0.05,0,0,0.05,41,0)" xlink:href="#aR"/><use transform="matrix(0.05,0,0,0.05,46.95,0)" xlink:href="#aL"/></g><g id="x"><use transform="matrix(0.05,0,0,0.05,0,0)" xlink:href="#aM"/><use transform="matrix(0.05,0,0,0.05,14.950000000000001,0)" xlink:href="#ab"/><use transform="matrix(0.05,0,0,0.05,18.900000000000002,0)" xlink:href="#ag"/></g><path d="M115-194c53 0 69 39 70 98 0 66-23 100-70 100C84 3 66-7 56-30L54 0H23l1-261h32v101c10-23 28-34 59-34zm-8 174c40 0 45-34 45-75 0-40-5-75-45-74-42 0-51 32-51 76 0 43 10 73 51 73" id="aS"/><g id="y"><use transform="matrix(0.05,0,0,0.05,0,0)" xlink:href="#ak"/><use transform="matrix(0.05,0,0,0.05,12,0)" xlink:href="#aF"/><use transform="matrix(0.05,0,0,0.05,22,0)" xlink:href="#aS"/><use transform="matrix(0.05,0,0,0.05,32,0)" xlink:href="#Y"/><use transform="matrix(0.05,0,0,0.05,35.95,0)" xlink:href="#ab"/><use transform="matrix(0.05,0,0,0.05,39.900000000000006,0)" xlink:href="#ae"/></g><path d="M194 0L95-120 63-95V0H30v-248h33v124l119-124h40L117-140 236 0h-42" id="aT"/><g id="z"><use transform="matrix(0.05,0,0,0.05,0,0)" xlink:href="#aT"/><use transform="matrix(0.05,0,0,0.05,12,0)" xlink:href="#af"/><use transform="matrix(0.05,0,0,0.05,22,0)" xlink:href="#as"/></g><path d="M141-36C126-15 110 5 73 4 37 3 15-17 15-53c-1-64 63-63 125-63 3-35-9-54-41-54-24 1-41 7-42 31l-33-3c5-37 33-52 76-52 45 0 72 20 72 64v82c-1 20 7 32 28 27v20c-31 9-61-2-59-35zM48-53c0 20 12 33 32 33 41-3 63-29 60-74-43 2-92-5-92 41" id="aU"/><g id="A"><use transform="matrix(0.05,0,0,0.05,0,0)" xlink:href="#aU"/><use transform="matrix(0.05,0,0,0.05,10,0)" xlink:href="#aq"/><use transform="matrix(0.05,0,0,0.05,19,0)" xlink:href="#as"/><use transform="matrix(0.05,0,0,0.05,28,0)" xlink:href="#aM"/><use transform="matrix(0.05,0,0,0.05,42.95,0)" xlink:href="#aM"/><use transform="matrix(0.05,0,0,0.05,57.900000000000006,0)" xlink:href="#af"/><use transform="matrix(0.05,0,0,0.05,67.9,0)" xlink:href="#ag"/><use transform="matrix(0.05,0,0,0.05,72.9,0)" xlink:href="#aD"/><use transform="matrix(0.05,0,0,0.05,78.85000000000001,0)" xlink:href="#ab"/><use transform="matrix(0.05,0,0,0.05,82.80000000000001,0)" xlink:href="#aq"/><use transform="matrix(0.05,0,0,0.05,91.80000000000001,0)" xlink:href="#ae"/><use transform="matrix(0.05,0,0,0.05,100.80000000000001,0)" xlink:href="#aN"/></g><g id="B"><use transform="matrix(0.05,0,0,0.05,0,0)" xlink:href="#aO"/><use transform="matrix(0.05,0,0,0.05,9,0)" xlink:href="#af"/><use transform="matrix(0.05,0,0,0.05,19,0)" xlink:href="#aD"/><use transform="matrix(0.05,0,0,0.05,24.95,0)" xlink:href="#aq"/><use transform="matrix(0.05,0,0,0.05,33.95,0)" xlink:href="#ae"/><use transform="matrix(0.05,0,0,0.05,42.95,0)" xlink:href="#aN"/><use transform="matrix(0.05,0,0,0.05,52.95,0)" xlink:href="#Y"/><use transform="matrix(0.05,0,0,0.05,56.900000000000006,0)" xlink:href="#aP"/><use transform="matrix(0.05,0,0,0.05,66.9,0)" xlink:href="#aq"/><use transform="matrix(0.05,0,0,0.05,75.9,0)" xlink:href="#aq"/><use transform="matrix(0.05,0,0,0.05,84.9,0)" xlink:href="#af"/><use transform="matrix(0.05,0,0,0.05,94.9,0)" xlink:href="#Y"/><use transform="matrix(0.05,0,0,0.05,98.85000000000001,0)" xlink:href="#ac"/></g><path fill="#333" d="M177-190C167-65 218 103 67 71c-23-6-38-20-44-43l32-5c15 47 100 32 89-28v-30C133-14 115 1 83 1 29 1 15-40 15-95c0-56 16-97 71-98 29-1 48 16 59 35 1-10 0-23 2-32h30zM94-22c36 0 50-32 50-73 0-42-14-75-50-75-39 0-46 34-46 75s6 73 46 73" id="aV"/><path fill="#333" d="M100-194c63 0 86 42 84 106H49c0 40 14 67 53 68 26 1 43-12 49-29l28 8c-11 28-37 45-77 45C44 4 14-33 15-96c1-61 26-98 85-98zm52 81c6-60-76-77-97-28-3 7-6 17-6 28h103" id="aW"/><path fill="#333" d="M59-47c-2 24 18 29 38 22v24C64 9 27 4 27-40v-127H5v-23h24l9-43h21v43h35v23H59v120" id="aX"/><path fill="#333" d="M212-179c-10-28-35-45-73-45-59 0-87 40-87 99 0 60 29 101 89 101 43 0 62-24 78-52l27 14C228-24 195 4 139 4 59 4 22-46 18-125c-6-104 99-153 187-111 19 9 31 26 39 46" id="aY"/><path fill="#333" d="M114-163C36-179 61-72 57 0H25l-1-190h30c1 12-1 29 2 39 6-27 23-49 58-41v29" id="aZ"/><path fill="#333" d="M85-194c31 0 48 13 60 33l-1-100h32l1 261h-30c-2-10 0-23-3-31C134-8 116 4 85 4 32 4 16-35 15-94c0-66 23-100 70-100zm9 24c-40 0-46 34-46 75 0 40 6 74 45 74 42 0 51-32 51-76 0-42-9-74-50-73" id="ba"/><path fill="#333" d="M117-194c89-4 53 116 60 194h-32v-121c0-31-8-49-39-48C34-167 62-67 57 0H25l-1-190h30c1 10-1 24 2 32 11-22 29-35 61-36" id="bb"/><path fill="#333" d="M24-231v-30h32v30H24zM24 0v-190h32V0H24" id="bc"/><path fill="#333" d="M141-36C126-15 110 5 73 4 37 3 15-17 15-53c-1-64 63-63 125-63 3-35-9-54-41-54-24 1-41 7-42 31l-33-3c5-37 33-52 76-52 45 0 72 20 72 64v82c-1 20 7 32 28 27v20c-31 9-61-2-59-35zM48-53c0 20 12 33 32 33 41-3 63-29 60-74-43 2-92-5-92 41" id="bd"/><path fill="#333" d="M24 0v-261h32V0H24" id="be"/><path fill="#333" d="M135-143c-3-34-86-38-87 0 15 53 115 12 119 90S17 21 10-45l28-5c4 36 97 45 98 0-10-56-113-15-118-90-4-57 82-63 122-42 12 7 21 19 24 35" id="bf"/><g id="C"><use transform="matrix(0.05,0,0,0.05,0,0)" xlink:href="#aV"/><use transform="matrix(0.05,0,0,0.05,10,0)" xlink:href="#aW"/><use transform="matrix(0.05,0,0,0.05,20,0)" xlink:href="#aX"/><use transform="matrix(0.05,0,0,0.05,25,0)" xlink:href="#aY"/><use transform="matrix(0.05,0,0,0.05,37.95,0)" xlink:href="#aZ"/><use transform="matrix(0.05,0,0,0.05,43.900000000000006,0)" xlink:href="#aW"/><use transform="matrix(0.05,0,0,0.05,53.900000000000006,0)" xlink:href="#ba"/><use transform="matrix(0.05,0,0,0.05,63.900000000000006,0)" xlink:href="#aW"/><use transform="matrix(0.05,0,0,0.05,73.9,0)" xlink:href="#bb"/><use transform="matrix(0.05,0,0,0.05,83.9,0)" xlink:href="#aX"/><use transform="matrix(0.05,0,0,0.05,88.9,0)" xlink:href="#bc"/><use transform="matrix(0.05,0,0,0.05,92.85000000000001,0)" xlink:href="#bd"/><use transform="matrix(0.05,0,0,0.05,102.85000000000001,0)" xlink:href="#be"/><use transform="matrix(0.05,0,0,0.05,106.80000000000001,0)" xlink:href="#bf"/></g><path fill="#333" d="M143 4C61 4 22-44 18-125c-5-107 100-154 193-111 17 8 29 25 37 43l-32 9c-13-25-37-40-76-40-61 0-88 39-88 99 0 61 29 100 91 101 35 0 62-11 79-27v-45h-74v-28h105v86C228-13 192 4 143 4" id="bg"/><path fill="#333" d="M84 4C-5 8 30-112 23-190h32v120c0 31 7 50 39 49 72-2 45-101 50-169h31l1 190h-30c-1-10 1-25-2-33-11 22-28 36-60 37" id="bh"/><g id="D"><use transform="matrix(0.05,0,0,0.05,0,0)" xlink:href="#bg"/><use transform="matrix(0.05,0,0,0.05,14,0)" xlink:href="#aW"/><use transform="matrix(0.05,0,0,0.05,24,0)" xlink:href="#bb"/><use transform="matrix(0.05,0,0,0.05,34,0)" xlink:href="#bd"/><use transform="matrix(0.05,0,0,0.05,44,0)" xlink:href="#bh"/><use transform="matrix(0.05,0,0,0.05,54,0)" xlink:href="#aW"/><use transform="matrix(0.05,0,0,0.05,64,0)" xlink:href="#aZ"/></g><path fill="#333" d="M205 0l-28-72H64L36 0H1l101-248h38L239 0h-34zm-38-99l-47-123c-12 45-31 82-46 123h93" id="bi"/><path fill="#333" d="M115-194c53 0 69 39 70 98 0 66-23 100-70 100C84 3 66-7 56-30L54 0H23l1-261h32v101c10-23 28-34 59-34zm-8 174c40 0 45-34 45-75 0-40-5-75-45-74-42 0-51 32-51 76 0 43 10 73 51 73" id="bj"/><path fill="#333" d="M101-234c-31-9-42 10-38 44h38v23H63V0H32v-167H5v-23h27c-7-52 17-82 69-68v24" id="bk"/><g id="E"><use transform="matrix(0.05,0,0,0.05,0,0)" xlink:href="#bi"/><use transform="matrix(0.05,0,0,0.05,12,0)" xlink:href="#bj"/><use transform="matrix(0.05,0,0,0.05,22,0)" xlink:href="#be"/><use transform="matrix(0.05,0,0,0.05,25.950000000000003,0)" xlink:href="#bd"/><use transform="matrix(0.05,0,0,0.05,35.95,0)" xlink:href="#bh"/><use transform="matrix(0.05,0,0,0.05,45.95,0)" xlink:href="#bk"/></g><g id="F"><use transform="matrix(0.05,0,0,0.05,0,0)" xlink:href="#ba"/><use transform="matrix(0.05,0,0,0.05,10,0)" xlink:href="#aW"/><use transform="matrix(0.05,0,0,0.05,20,0)" xlink:href="#bf"/></g><path fill="#333" d="M127-220V0H93v-220H8v-28h204v28h-85" id="bl"/><path fill="#333" d="M96-169c-40 0-48 33-48 73s9 75 48 75c24 0 41-14 43-38l32 2c-6 37-31 61-74 61-59 0-76-41-82-99-10-93 101-131 147-64 4 7 5 14 7 22l-32 3c-4-21-16-35-41-35" id="bm"/><path fill="#333" d="M143 0L79-87 56-68V0H24v-261h32v163l83-92h37l-77 82L181 0h-38" id="bn"/><path fill="#333" d="M16-82v-28h88v28H16" id="bo"/><path fill="#333" d="M106-169C34-169 62-67 57 0H25v-261h32l-1 103c12-21 28-36 61-36 89 0 53 116 60 194h-32v-121c2-32-8-49-39-48" id="bp"/><path fill="#333" d="M33-154v-36h34v36H33zM33 0v-36h34V0H33" id="bq"/><g id="G"><use transform="matrix(0.05,0,0,0.05,0,0)" xlink:href="#bl"/><use transform="matrix(0.05,0,0,0.05,10.3,0)" xlink:href="#bc"/><use transform="matrix(0.05,0,0,0.05,14.25,0)" xlink:href="#bm"/><use transform="matrix(0.05,0,0,0.05,23.25,0)" xlink:href="#bn"/><use transform="matrix(0.05,0,0,0.05,32.25,0)" xlink:href="#aW"/><use transform="matrix(0.05,0,0,0.05,42.25,0)" xlink:href="#aX"/><use transform="matrix(0.05,0,0,0.05,47.25,0)" xlink:href="#bo"/><use transform="matrix(0.05,0,0,0.05,53.2,0)" xlink:href="#bi"/><use transform="matrix(0.05,0,0,0.05,65.2,0)" xlink:href="#bh"/><use transform="matrix(0.05,0,0,0.05,75.2,0)" xlink:href="#bf"/><use transform="matrix(0.05,0,0,0.05,84.2,0)" xlink:href="#bp"/><use transform="matrix(0.05,0,0,0.05,94.2,0)" xlink:href="#bd"/><use transform="matrix(0.05,0,0,0.05,104.2,0)" xlink:href="#bb"/><use transform="matrix(0.05,0,0,0.05,114.2,0)" xlink:href="#ba"/><use transform="matrix(0.05,0,0,0.05,124.2,0)" xlink:href="#aW"/><use transform="matrix(0.05,0,0,0.05,134.2,0)" xlink:href="#be"/><use transform="matrix(0.05,0,0,0.05,138.14999999999998,0)" xlink:href="#bb"/><use transform="matrix(0.05,0,0,0.05,148.14999999999998,0)" xlink:href="#bf"/><use transform="matrix(0.05,0,0,0.05,157.14999999999998,0)" xlink:href="#bq"/></g><path fill="#333" d="M33 0v-38h34V0H33" id="br"/><g id="H"><use transform="matrix(0.05,0,0,0.05,0,0)" xlink:href="#bf"/><use transform="matrix(0.05,0,0,0.05,9,0)" xlink:href="#br"/></g><path fill="#333" d="M194 0L95-120 63-95V0H30v-248h33v124l119-124h40L117-140 236 0h-42" id="bs"/><path fill="#333" d="M100-194c62-1 85 37 85 99 1 63-27 99-86 99S16-35 15-95c0-66 28-99 85-99zM99-20c44 1 53-31 53-75 0-43-8-75-51-75s-53 32-53 75 10 74 51 75" id="bt"/><path fill="#333" d="M30-248c118-7 216 8 213 122C240-48 200 0 122 0H30v-248zM63-27c89 8 146-16 146-99s-60-101-146-95v194" id="bu"/><path fill="#333" d="M210-169c-67 3-38 105-44 169h-31v-121c0-29-5-50-35-48C34-165 62-65 56 0H25l-1-190h30c1 10-1 24 2 32 10-44 99-50 107 0 11-21 27-35 58-36 85-2 47 119 55 194h-31v-121c0-29-5-49-35-48" id="bv"/><g id="I"><use transform="matrix(0.05,0,0,0.05,0,0)" xlink:href="#bs"/><use transform="matrix(0.05,0,0,0.05,12,0)" xlink:href="#aW"/><use transform="matrix(0.05,0,0,0.05,22,0)" xlink:href="#aZ"/><use transform="matrix(0.05,0,0,0.05,27.950000000000003,0)" xlink:href="#bj"/><use transform="matrix(0.05,0,0,0.05,37.95,0)" xlink:href="#aW"/><use transform="matrix(0.05,0,0,0.05,47.95,0)" xlink:href="#aZ"/><use transform="matrix(0.05,0,0,0.05,53.900000000000006,0)" xlink:href="#bt"/><use transform="matrix(0.05,0,0,0.05,63.900000000000006,0)" xlink:href="#bf"/><use transform="matrix(0.05,0,0,0.05,72.9,0)" xlink:href="#bo"/><use transform="matrix(0.05,0,0,0.05,78.85000000000001,0)" xlink:href="#bu"/><use transform="matrix(0.05,0,0,0.05,91.80000000000001,0)" xlink:href="#bc"/><use transform="matrix(0.05,0,0,0.05,95.75000000000001,0)" xlink:href="#bd"/><use transform="matrix(0.05,0,0,0.05,105.75,0)" xlink:href="#aV"/><use transform="matrix(0.05,0,0,0.05,115.75,0)" xlink:href="#aZ"/><use transform="matrix(0.05,0,0,0.05,121.7,0)" xlink:href="#bd"/><use transform="matrix(0.05,0,0,0.05,131.70000000000002,0)" xlink:href="#bv"/><use transform="matrix(0.05,0,0,0.05,146.65,0)" xlink:href="#bv"/><use transform="matrix(0.05,0,0,0.05,161.6,0)" xlink:href="#br"/></g></defs></g></svg>