<svg xmlns="http://www.w3.org/2000/svg" xmlns:xlink="http://www.w3.org/1999/xlink" width="1549.5" height="911"><g transform="translate(-108 -60)"><path d="M0 0h1760v1360H0z" fill="#fff"/><path d="M208 201v279" fill="none"/><path d="M208 201v10.33m0 10.34v20.66m0 10.34v20.66m0 10.34v20.66m0 10.34v20.66m0 10.34v20.66m0 10.34v20.66m0 10.34v20.66m0 10.34v20.66m0 10.34V480" stroke="#999" stroke-width="2" fill="none"/><path d="M209 201h-2v-1h2z" fill="#999"/><path d="M1527.5 200l.5 260" fill="none"/><path d="M1527.5 200l.02 9.63m.02 9.63l.03 19.26m.02 9.63l.03 19.26m.02 9.64l.04 19.26m0 9.63l.04 19.26m.02 9.6l.04 19.27m0 9.63l.05 19.26m.02 9.63l.04 19.25m.03 9.63l.03 19.26m.02 9.63l.02 9.63" stroke="#999" stroke-width="2" fill="none"/><path d="M1526.5 200h1zM1529 463h-2v-3h2z" fill="#999"/><path d="M1058 85c0-2.76 2.24-5 5-5h210c2.76 0 5 2.24 5 5v110c0 2.76-2.24 5-5 5h-210c-2.76 0-5-2.24-5-5z" stroke="#666" stroke-width="2" fill="#a3d977"/><use xlink:href="#a" transform="matrix(1,0,0,1,1058,80) translate(31.901234567901227 51.72222222222222)"/><use xlink:href="#b" transform="matrix(1,0,0,1,1058,80) translate(64.19753086419752 73.05555555555556)"/><path d="M1168 619V200" fill="none"/><path d="M1168 619v-9.98m0-9.97V579.1m0-9.98v-19.95m0-9.98v-19.96m0-9.98V489.3m0-9.97v-19.95m0-9.98v-19.95m0-9.97v-19.96m0-9.97V369.6m0-9.98v-19.95m0-9.98v-19.96m0-9.98V279.8m0-9.97v-19.95m0-9.98v-19.95m0-9.97V200" stroke="#999" stroke-width="2" fill="none"/><path d="M1169 620h-2v-1h2z" fill="#999"/><path d="M128 85c0-2.76 2.24-5 5-5h150c2.76 0 5 2.24 5 5v110c0 2.76-2.24 5-5 5H133c-2.76 0-5-2.24-5-5z" stroke="#666" stroke-width="2" fill="#83bbe5"/><use xlink:href="#c" transform="matrix(1,0,0,1,128,80) translate(48.96296296296296 62.97222222222222)"/><path d="M440 85c0-2.76 2.24-5 5-5h150c2.76 0 5 2.24 5 5v110c0 2.76-2.24 5-5 5H445c-2.76 0-5-2.24-5-5z" stroke="#666" stroke-width="2" fill="#ffc374"/><use xlink:href="#d" transform="matrix(1,0,0,1,440,80) translate(40.029999999999994 51.9)"/><use xlink:href="#e" transform="matrix(1,0,0,1,440,80) translate(33.62999999999999 73.5)"/><path d="M739.5 85c0-2.76 2.24-5 5-5h169c2.76 0 5 2.24 5 5v110c0 2.76-2.24 5-5 5h-169c-2.76 0-5-2.24-5-5z" stroke="#666" stroke-width="2" fill="#ccc"/><use xlink:href="#a" transform="matrix(1,0,0,1,739.5,80) translate(11.401234567901227 51.72222222222222)"/><use xlink:href="#f" transform="matrix(1,0,0,1,739.5,80) translate(51.54938271604939 73.05555555555556)"/><path d="M829 200v756.14" fill="none"/><path d="M829 200v10.08m0 10.08v20.17m0 10.08v20.17m0 10.08v20.17m0 10.08v20.16m0 10.1v20.15m0 10.1v20.15m0 10.1v20.15m0 10.08v20.17m0 10.08v20.16m0 10.07v20.17m0 10.08v20.16m0 10.08v20.17m0 10.08v20.17m0 10.08v20.17m0 10.08v20.16m0 10.1V694m0 10.1v20.15m0 10.1v20.15m0 10.08v20.17m0 10.08V815m0 10.07v20.17m0 10.08v20.16m0 10.08v20.17m0 10.08v20.17m0 10.08v10.1" stroke="#999" stroke-width="2" fill="none"/><path d="M520 200v280" fill="none"/><path d="M520 200v10.37m0 10.37v20.74m0 10.37v20.74m0 10.36v20.74m0 10.37v20.74m0 10.4v20.73m0 10.37v20.74m0 10.37v20.75m0 10.37v20.74m0 10.37V480" stroke="#999" stroke-width="2" fill="none"/><path d="M1417.5 85c0-2.76 2.24-5 5-5h210c2.76 0 5 2.24 5 5v110c0 2.76-2.24 5-5 5h-210c-2.76 0-5-2.24-5-5z" stroke="#666" stroke-width="2" fill="#a3d977"/><use xlink:href="#a" transform="matrix(1,0,0,1,1417.5,80) translate(31.901234567901227 51.72222222222222)"/><use xlink:href="#g" transform="matrix(1,0,0,1,1417.5,80) translate(64.96296296296296 73.05555555555556)"/><path d="M188 385c0-2.76 2.24-5 5-5h30c2.76 0 5 2.24 5 5v70c0 2.76-2.24 5-5 5h-30c-2.76 0-5-2.24-5-5z" stroke="#666" stroke-width="2" fill="#f2f2f2"/><path d="M228 396h292" stroke="#999" stroke-width="2" fill="none"/><path d="M520 396l-14.27 4.64v-9.28z" stroke="#999" stroke-width="2" fill="#999"/><use xlink:href="#h" transform="matrix(1,0,0,1,326.125,370.4) translate(0 14.4)"/><path d="M520 398.4h309" stroke="#999" stroke-width="2" fill="none"/><path d="M829 398.4l-14.27 4.63v-9.28z" stroke="#999" stroke-width="2" fill="#999"/><path d="M829 398.4h339" stroke="#999" stroke-width="2" fill="none"/><path d="M1168 398.4l-14.27 4.63v-9.28z" stroke="#999" stroke-width="2" fill="#999"/><path d="M1168 399.55h331.93" stroke="#999" stroke-width="2" fill="none"/><path d="M1499.93 399.55l-14.26 4.63v-9.27z" fill="#999"/><path d="M1502.1 399.2l-1.7 1.25-15.73 5.1v-12.02zm-15.43 3.6l10.03-3.25-10.03-3.26z" fill="#999"/><path d="M234.5 440h291" stroke="#999" stroke-width="2" fill="none"/><path d="M234.5 440l14.27-4.64v9.28z" stroke="#999" stroke-width="2" fill="#999"/><use xlink:href="#i" transform="matrix(1,0,0,1,364.525,414.40000000000003) translate(0 14.4)"/><path d="M525.5 441.33h309" stroke="#999" stroke-width="2" fill="none"/><path d="M525.5 441.33l14.27-4.63v9.27z" stroke="#999" stroke-width="2" fill="#999"/><path d="M834.5 441.33h339" stroke="#999" stroke-width="2" fill="none"/><path d="M834.5 441.33l14.27-4.63v9.27z" stroke="#999" stroke-width="2" fill="#999"/><path d="M1173.5 441.33h327.62" stroke="#999" stroke-width="2" fill="none"/><path d="M1173.5 441.33l14.27-4.63v9.27z" stroke="#999" stroke-width="2" fill="#999"/><path d="M1504.12 442.3v.03h-3v-2h.33z" fill="#999"/><path d="M1523.98 382.98c2.22-1.65 5.82-1.65 8.04 0l45.96 34.04c2.22 1.65 2.22 4.3 0 5.96l-45.96 34.04c-2.22 1.65-5.82 1.65-8.04 0l-45.96-34.04c-2.22-1.65-2.22-4.3 0-5.96z" stroke="#666" stroke-width="2" fill="#fff"/><use xlink:href="#j" transform="matrix(1,0,0,1,1479,385) translate(19.525 38.6)"/><path d="M128 485c0-2.76 2.24-5 5-5h150c2.76 0 5 2.24 5 5v50c0 2.76-2.24 5-5 5H133c-2.76 0-5-2.24-5-5z" stroke="#666" stroke-width="2" fill="#f2f2f2"/><use xlink:href="#k" transform="matrix(1,0,0,1,128,480) translate(25.029999999999994 33.15)"/><use xlink:href="#l" transform="matrix(1,0,0,1,128,480) translate(61.029999999999994 33.15)"/><path d="M1088 225c0-2.76 2.24-5 5-5h150c2.76 0 5 2.24 5 5v50c0 2.76-2.24 5-5 5h-150c-2.76 0-5-2.24-5-5z" stroke="#666" stroke-width="2" fill="#f2f2f2"/><use xlink:href="#k" transform="matrix(1,0,0,1,1088,220) translate(25.529999999999994 33.15)"/><use xlink:href="#m" transform="matrix(1,0,0,1,1088,220) translate(61.529999999999994 33.15)"/><path d="M289 500h210" stroke="#999" stroke-width="2" fill="none"/><path d="M289 501h-1v-2h1zM499 500l-14.27 4.64v-9.28z" fill="#999"/><path d="M500 499.27v1.46L483.73 506v-12zm-14.27 4l10.03-3.27-10.03-3.26z" fill="#999"/><path fill="#fff" d="M334.52 489.2h118.95v21.6H334.52z"/><use xlink:href="#n" transform="matrix(1,0,0,1,334.525,489.2) translate(0.005000000000002558 14.4)"/><path d="M500 495c0-2.76 2.24-5 5-5h30c2.76 0 5 2.24 5 5v30c0 2.76-2.24 5-5 5h-30c-2.76 0-5-2.24-5-5zM128 585c0-2.76 2.24-5 5-5h150c2.76 0 5 2.24 5 5v70c0 2.76-2.24 5-5 5H133c-2.76 0-5-2.24-5-5z" stroke="#666" stroke-width="2" fill="#f2f2f2"/><use xlink:href="#o" transform="matrix(1,0,0,1,128,580) translate(36.33 31.9)"/><use xlink:href="#p" transform="matrix(1,0,0,1,128,580) translate(79.23 31.9)"/><use xlink:href="#q" transform="matrix(1,0,0,1,128,580) translate(94.73 31.9)"/><use xlink:href="#l" transform="matrix(1,0,0,1,128,580) translate(43.029999999999994 53.5)"/><path d="M208 540v39" fill="none"/><path d="M208 540v13m0 13v13" stroke="#000" stroke-width="2" fill="none"/><path d="M209 580h-2v-1h2z"/><path d="M208 540v40" fill="none"/><path d="M208 540v13.33m0 13.34V580" stroke="#999" stroke-width="2" fill="none"/><path d="M500 625c0-2.76 2.24-5 5-5h30c2.76 0 5 2.24 5 5v150c0 2.76-2.24 5-5 5h-30c-2.76 0-5-2.24-5-5z" stroke="#666" stroke-width="2" fill="#f2f2f2"/><path d="M289 640h210" stroke="#999" stroke-width="2" fill="none"/><path d="M289 641h-1v-2h1zM499 640l-14.27 4.64v-9.28z" fill="#999"/><path d="M500 639.27v1.46L483.73 646v-12zm-14.27 4l10.03-3.27-10.03-3.26z" fill="#999"/><path fill="#fff" d="M364.07 629.2h59.85v21.6h-59.85z"/><use xlink:href="#r" transform="matrix(1,0,0,1,364.075,629.2) translate(0 14.4)"/><path d="M1148 625c0-2.76 2.24-5 5-5h30c2.76 0 5 2.24 5 5v130c0 2.76-2.24 5-5 5h-30c-2.76 0-5-2.24-5-5z" stroke="#666" stroke-width="2" fill="#f2f2f2"/><path d="M1523.98 622.98c2.22-1.65 5.82-1.65 8.04 0l45.96 34.04c2.22 1.65 2.22 4.3 0 5.96l-45.96 34.04c-2.22 1.65-5.82 1.65-8.04 0l-45.96-34.04c-2.22-1.65-2.22-4.3 0-5.96z" stroke="#666" stroke-width="2" fill="#fff"/><use xlink:href="#j" transform="matrix(1,0,0,1,1479,625) translate(19.525 38.6)"/><path d="M1188 633.96h319.47" stroke="#999" stroke-width="2" fill="none"/><path d="M1507.47 633.96l-14.26 4.63v-9.28z" fill="#999"/><path d="M1509.63 633.6l-1.7 1.26-15.72 5.1v-12zm-15.42 3.62l10.04-3.26-10.03-3.26z" fill="#999"/><use xlink:href="#h" transform="matrix(1,0,0,1,1299.862197526004,608.3596854712813) translate(0 14.4)"/><path d="M1492.4 674.88H1188" stroke="#999" stroke-width="2" fill="none"/><path d="M1495.4 675.85v.03h-3v-2h.33zM1202.27 679.5L1188 674.9l14.27-4.64z" fill="#999"/><path d="M1203.27 680.9l-15.27-4.97v-2.1l15.27-4.96zm-12.03-6.02l10.03 3.26v-6.52z" fill="#999"/><path fill="#fff" d="M1325.53 664.08h29.35v21.6h-29.35z"/><use xlink:href="#s" transform="matrix(1,0,0,1,1325.5271485575647,664.0772278292561) translate(0 14.4)"/><path d="M1508 725c0-2.76 2.24-5 5-5h30c2.76 0 5 2.24 5 5v50c0 2.76-2.24 5-5 5h-30c-2.76 0-5-2.24-5-5z" stroke="#666" stroke-width="2" fill="#f2f2f2"/><path d="M1188 737.9h319" stroke="#999" stroke-width="2" fill="none"/><path d="M1507 737.9l-14.27 4.62v-9.27z" fill="#999"/><path d="M1508 737.16v1.45l-16.27 5.3v-12.02zm-14.27 4l10.03-3.27-10.03-3.27z" fill="#999"/><use xlink:href="#t" transform="matrix(1,0,0,1,1290.1,712.2875027616552) translate(0 14.4)"/><path d="M1147 742.5H541" fill="none"/><path d="M1147 742.5h-4m-7.96 0h-7.97m-7.98 0h-7.98m-7.98 0h-7.97m-7.97 0h-7.98m-7.97 0h-7.97m-7.98 0h-7.97m-7.97 0h-7.98m-7.97 0h-7.97m-7.97 0h-7.97m-8 0h-7.96m-7.97 0h-7.98m-7.98 0h-7.98m-7.97 0h-7.97m-7.98 0h-7.97m-7.97 0h-7.98m-7.97 0h-7.97m-7.98 0h-7.97m-7.97 0h-7.97m-7.97 0h-8m-7.96 0h-7.97m-7.98 0h-7.98m-7.98 0h-7.97m-7.97 0h-7.98m-7.97 0h-7.97m-7.98 0h-7.97m-7.97 0h-7.98m-7.97 0h-7.97m-7.97 0h-7.97m-8 0h-7.96m-7.97 0h-7.98m-7.98 0h-7.98m-7.97 0h-7.97m-7.98 0h-7.97m-7.97 0h-7.98m-7.97 0h-7.97m-7.98 0h-7.97m-7.97 0h-7.97m-7.97 0h-4" stroke="#999" stroke-width="2" fill="none"/><path d="M1148 743.5h-1v-2h1zM555.27 747.14L541 742.5l14.27-4.63z" fill="#999"/><path d="M556.27 748.52l-16.27-5.3v-1.44l16.27-5.3zm-12.03-6l10.03 3.25v-6.52z" fill="#999"/><path d="M208 660v294.98" fill="none"/><path d="M208 660v9.83m0 9.84v19.66m0 9.83v19.67m0 9.83v19.67m0 9.83v19.67m0 9.83v19.66m0 9.84v19.66m0 9.83v19.67m0 9.83v19.67m0 9.83v19.67m0 9.83v9.83" stroke="#999" stroke-width="2" fill="none"/><path d="M499 762.14H208" fill="none"/><path d="M499 762.14h-4.04m-8.08 0h-8.1m-8.07 0h-8.07m-8.1 0h-8.07m-8.08 0h-8.1m-8.07 0h-8.07m-8.1 0h-8.07m-8.08 0h-8.1m-8.07 0h-8.08m-8.08 0h-8.08m-8.1 0h-8.07m-8.1 0h-8.08m-8.08 0h-8.08m-8.1 0h-8.07m-8.1 0h-8.08m-8.08 0h-8.08m-8.1 0h-8.07m-8.1 0h-8.08m-8.08 0H208" stroke="#999" stroke-width="2" fill="none"/><path d="M500 763.14h-1v-2h1z" fill="#999"/><path d="M208 762.14l14.27-4.64v9.27z" stroke="#999" stroke-width="2" fill="#999"/><use xlink:href="#u" transform="matrix(1,0,0,1,317.02500000000003,766.137326796076) translate(0 14.4)"/><path d="M128 785c0-2.76 2.24-5 5-5h150c2.76 0 5 2.24 5 5v70c0 2.76-2.24 5-5 5H133c-2.76 0-5-2.24-5-5z" stroke="#666" stroke-width="2" fill="#f2f2f2"/><use xlink:href="#v" transform="matrix(1,0,0,1,128,780) translate(58.029999999999994 44.4)"/><path d="M520 531v88" fill="none"/><path d="M520 531v9.78m0 9.78v19.55m0 9.8v19.54m0 9.78V619" stroke="#999" stroke-width="2" fill="none"/><path d="M521 531h-2v-1h2zM521 620h-2v-1h2z" fill="#999"/><path d="M520 780v180" fill="none"/><path d="M520 780v10m0 10v20m0 10v20m0 10v20m0 10v20m0 10v20m0 10v10" stroke="#999" stroke-width="2" fill="none"/><path d="M1168 760v199.6" fill="none"/><path d="M1168 760v9.5m0 9.5v19.02m0 9.5v19m0 9.52v19m0 9.5v19.02m0 9.5v19.02m0 9.5v19m0 9.52v9.5" stroke="#999" stroke-width="2" fill="none"/><path d="M1528 780v174.98" fill="none"/><path d="M1528 780v9.72m0 9.72v19.44m0 9.73v19.45m0 9.72v19.44m0 9.73v19.45m0 9.72v19.44m0 9.72v9.72" stroke="#999" stroke-width="2" fill="none"/><path d="M1528 458.25v162.5" fill="none"/><path d="M1528 458.25v10.84m0 10.82v21.66m0 10.83v21.68m0 10.83v21.68m0 10.83v21.67m0 10.83v10.84" stroke="#999" stroke-width="2" fill="none"/><path d="M1528 458.25h-1v-.14zm1 0h-.96l.96-.14zM1529 621.9l-1.02-.16-.98.15v-1.16h2z" fill="#999"/><path d="M1528 698.25V719" fill="none"/><path d="M1528 698.25v6.92m0 6.9V719" stroke="#999" stroke-width="2" fill="none"/><path d="M1528 698.25h-1v-.14zm1 0h-.96l.96-.14zM1529 720h-2v-1h2z" fill="#999"/><path d="M541 656h288" stroke="#999" stroke-width="2" fill="none"/><path d="M541 657h-1v-2h1z" fill="#999"/><path d="M829 656l-14.27 4.64v-9.28z" stroke="#999" stroke-width="2" fill="#999"/><path fill="#fff" d="M619.9 645.2h59.86v21.6H619.9z"/><g><use xlink:href="#r" transform="matrix(1,0,0,1,619.9066831683169,645.2) translate(0 14.4)"/></g><path d="M829 658.67h318" stroke="#999" stroke-width="2" fill="none"/><path d="M1147 658.67l-14.27 4.63v-9.27z" fill="#999"/><path d="M1148 657.94v1.45l-16.27 5.28v-12.03zm-14.27 4l10.03-3.27-10.03-3.26z" fill="#999"/><defs><path fill="#333" d="M199 0l-22-63H83L61 0H9l90-248h61L250 0h-51zm-33-102l-36-108c-10 38-24 72-36 108h72" id="w"/><path fill="#333" d="M238-95c0 69-44 99-111 99C63 4 22-25 22-93v-155h51v151c-1 38 19 59 55 60 90 1 49-130 58-211h52v153" id="x"/><path fill="#333" d="M136-208V0H84v-208H4v-40h212v40h-80" id="y"/><path fill="#333" d="M186 0v-106H76V0H24v-248h52v99h110v-99h50V0h-50" id="z"/><path fill="#333" d="M24 0v-248h195v40H76v63h132v40H76v65h150V0H24" id="A"/><path fill="#333" d="M175 0L67-191c6 58 2 128 3 191H24v-248h59L193-55c-6-58-2-129-3-193h46V0h-61" id="B"/><path fill="#333" d="M24 0v-248h52V0H24" id="C"/><path fill="#333" d="M67-125c0 53 21 87 73 88 37 1 54-22 65-47l45 17C233-25 199 4 140 4 58 4 20-42 15-125 8-235 124-281 211-232c18 10 29 29 36 50l-46 12c-8-25-30-41-62-41-52 0-71 34-72 86" id="D"/><path fill="#333" d="M140-251c80 0 125 45 125 126S219 4 139 4C58 4 15-44 15-125s44-126 125-126zm-1 214c52 0 73-35 73-88 0-50-21-86-72-86-52 0-73 35-73 86s22 88 72 88" id="E"/><g id="a"><use transform="matrix(0.04938271604938272,0,0,0.04938271604938272,0,0)" xlink:href="#w"/><use transform="matrix(0.04938271604938272,0,0,0.04938271604938272,12.790123456790125,0)" xlink:href="#x"/><use transform="matrix(0.04938271604938272,0,0,0.04938271604938272,25.58024691358025,0)" xlink:href="#y"/><use transform="matrix(0.04938271604938272,0,0,0.04938271604938272,36.39506172839506,0)" xlink:href="#z"/><use transform="matrix(0.04938271604938272,0,0,0.04938271604938272,49.18518518518519,0)" xlink:href="#A"/><use transform="matrix(0.04938271604938272,0,0,0.04938271604938272,61.037037037037045,0)" xlink:href="#B"/><use transform="matrix(0.04938271604938272,0,0,0.04938271604938272,73.82716049382717,0)" xlink:href="#y"/><use transform="matrix(0.04938271604938272,0,0,0.04938271604938272,84.64197530864197,0)" xlink:href="#C"/><use transform="matrix(0.04938271604938272,0,0,0.04938271604938272,89.58024691358025,0)" xlink:href="#D"/><use transform="matrix(0.04938271604938272,0,0,0.04938271604938272,102.37037037037038,0)" xlink:href="#w"/><use transform="matrix(0.04938271604938272,0,0,0.04938271604938272,113.82716049382717,0)" xlink:href="#y"/><use transform="matrix(0.04938271604938272,0,0,0.04938271604938272,124.64197530864199,0)" xlink:href="#C"/><use transform="matrix(0.04938271604938272,0,0,0.04938271604938272,129.58024691358025,0)" xlink:href="#E"/><use transform="matrix(0.04938271604938272,0,0,0.04938271604938272,143.40740740740742,0)" xlink:href="#B"/></g><path fill="#333" d="M230 0l2-204L168 0h-37L68-204 70 0H24v-248h70l56 185 57-185h69V0h-46" id="F"/><path fill="#333" d="M67-125c0 54 23 88 75 88 28 0 53-7 68-21v-34h-60v-39h108v91C232-14 192 4 140 4 58 4 20-42 15-125 8-236 126-280 215-234c19 10 29 26 37 47l-47 15c-11-23-29-39-63-39-53 1-75 33-75 86" id="G"/><path fill="#333" d="M240-174c0 40-23 61-54 70L253 0h-59l-57-94H76V0H24v-248c93 4 217-23 216 74zM76-134c48-2 112 12 112-38 0-48-66-32-112-35v73" id="H"/><g id="b"><use transform="matrix(0.04938271604938272,0,0,0.04938271604938272,0,0)" xlink:href="#F"/><use transform="matrix(0.04938271604938272,0,0,0.04938271604938272,14.765432098765434,0)" xlink:href="#w"/><use transform="matrix(0.04938271604938272,0,0,0.04938271604938272,27.555555555555557,0)" xlink:href="#B"/><use transform="matrix(0.04938271604938272,0,0,0.04938271604938272,40.345679012345684,0)" xlink:href="#w"/><use transform="matrix(0.04938271604938272,0,0,0.04938271604938272,53.135802469135804,0)" xlink:href="#G"/><use transform="matrix(0.04938271604938272,0,0,0.04938271604938272,66.96296296296298,0)" xlink:href="#A"/><use transform="matrix(0.04938271604938272,0,0,0.04938271604938272,78.81481481481482,0)" xlink:href="#H"/></g><path fill="#333" d="M182-130c37 4 62 22 62 59C244 23 116-4 24 0v-248c84 5 203-23 205 63 0 31-19 50-47 55zM76-148c40-3 101 13 101-30 0-44-60-28-101-31v61zm0 110c48-3 116 14 116-37 0-48-69-32-116-35v72" id="I"/><path fill="#333" d="M210 0H11v-37l134-170H24v-41h178v36L68-41h142V0" id="J"/><path fill="#333" d="M146-102V0H94v-102L6-248h54l60 105 60-105h54" id="K"/><g id="c"><use transform="matrix(0.04938271604938272,0,0,0.04938271604938272,0,0)" xlink:href="#I"/><use transform="matrix(0.04938271604938272,0,0,0.04938271604938272,12.790123456790125,0)" xlink:href="#D"/><use transform="matrix(0.04938271604938272,0,0,0.04938271604938272,25.58024691358025,0)" xlink:href="#E"/><use transform="matrix(0.04938271604938272,0,0,0.04938271604938272,39.40740740740741,0)" xlink:href="#J"/><use transform="matrix(0.04938271604938272,0,0,0.04938271604938272,50.22222222222223,0)" xlink:href="#K"/></g><path d="M169-182c-1-43-94-46-97-3 18 66 151 10 154 114 3 95-165 93-204 36-6-8-10-19-12-30l50-8c3 46 112 56 116 5-17-69-150-10-154-114-4-87 153-88 188-35 5 8 8 18 10 28" id="L"/><path d="M24 0v-248h195v40H76v63h132v40H76v65h150V0H24" id="M"/><path d="M24 0v-248h52V0H24" id="N"/><path d="M140-251c80 0 125 45 125 126S219 4 139 4C58 4 15-44 15-125s44-126 125-126zm-1 214c52 0 73-35 73-88 0-50-21-86-72-86-52 0-73 35-73 86s22 88 72 88" id="O"/><path d="M175 0L67-191c6 58 2 128 3 191H24v-248h59L193-55c-6-58-2-129-3-193h46V0h-61" id="P"/><g id="d"><use transform="matrix(0.05,0,0,0.05,0,0)" xlink:href="#L"/><use transform="matrix(0.05,0,0,0.05,12,0)" xlink:href="#M"/><use transform="matrix(0.05,0,0,0.05,24,0)" xlink:href="#L"/><use transform="matrix(0.05,0,0,0.05,36,0)" xlink:href="#L"/><use transform="matrix(0.05,0,0,0.05,48,0)" xlink:href="#N"/><use transform="matrix(0.05,0,0,0.05,53,0)" xlink:href="#O"/><use transform="matrix(0.05,0,0,0.05,67,0)" xlink:href="#P"/></g><path d="M230 0l2-204L168 0h-37L68-204 70 0H24v-248h70l56 185 57-185h69V0h-46" id="Q"/><path d="M199 0l-22-63H83L61 0H9l90-248h61L250 0h-51zm-33-102l-36-108c-10 38-24 72-36 108h72" id="R"/><path d="M67-125c0 54 23 88 75 88 28 0 53-7 68-21v-34h-60v-39h108v91C232-14 192 4 140 4 58 4 20-42 15-125 8-236 126-280 215-234c19 10 29 26 37 47l-47 15c-11-23-29-39-63-39-53 1-75 33-75 86" id="S"/><path d="M240-174c0 40-23 61-54 70L253 0h-59l-57-94H76V0H24v-248c93 4 217-23 216 74zM76-134c48-2 112 12 112-38 0-48-66-32-112-35v73" id="T"/><g id="e"><use transform="matrix(0.05,0,0,0.05,0,0)" xlink:href="#Q"/><use transform="matrix(0.05,0,0,0.05,14.950000000000001,0)" xlink:href="#R"/><use transform="matrix(0.05,0,0,0.05,27.900000000000002,0)" xlink:href="#P"/><use transform="matrix(0.05,0,0,0.05,40.85,0)" xlink:href="#R"/><use transform="matrix(0.05,0,0,0.05,53.800000000000004,0)" xlink:href="#S"/><use transform="matrix(0.05,0,0,0.05,67.80000000000001,0)" xlink:href="#M"/><use transform="matrix(0.05,0,0,0.05,79.80000000000001,0)" xlink:href="#T"/></g><g id="f"><use transform="matrix(0.04938271604938272,0,0,0.04938271604938272,0,0)" xlink:href="#H"/><use transform="matrix(0.04938271604938272,0,0,0.04938271604938272,12.790123456790125,0)" xlink:href="#A"/><use transform="matrix(0.04938271604938272,0,0,0.04938271604938272,24.641975308641978,0)" xlink:href="#F"/><use transform="matrix(0.04938271604938272,0,0,0.04938271604938272,39.40740740740741,0)" xlink:href="#E"/><use transform="matrix(0.04938271604938272,0,0,0.04938271604938272,53.23456790123457,0)" xlink:href="#y"/><use transform="matrix(0.04938271604938272,0,0,0.04938271604938272,64.04938271604938,0)" xlink:href="#A"/></g><path fill="#333" d="M169-182c-1-43-94-46-97-3 18 66 151 10 154 114 3 95-165 93-204 36-6-8-10-19-12-30l50-8c3 46 112 56 116 5-17-69-150-10-154-114-4-87 153-88 188-35 5 8 8 18 10 28" id="U"/><g id="g"><use transform="matrix(0.04938271604938272,0,0,0.04938271604938272,0,0)" xlink:href="#H"/><use transform="matrix(0.04938271604938272,0,0,0.04938271604938272,12.790123456790125,0)" xlink:href="#A"/><use transform="matrix(0.04938271604938272,0,0,0.04938271604938272,24.641975308641978,0)" xlink:href="#G"/><use transform="matrix(0.04938271604938272,0,0,0.04938271604938272,38.46913580246914,0)" xlink:href="#C"/><use transform="matrix(0.04938271604938272,0,0,0.04938271604938272,43.40740740740741,0)" xlink:href="#U"/><use transform="matrix(0.04938271604938272,0,0,0.04938271604938272,55.25925925925927,0)" xlink:href="#y"/><use transform="matrix(0.04938271604938272,0,0,0.04938271604938272,66.07407407407408,0)" xlink:href="#H"/><use transform="matrix(0.04938271604938272,0,0,0.04938271604938272,78.22222222222223,0)" xlink:href="#K"/></g><path d="M24-231v-30h32v30H24zM24 0v-190h32V0H24" id="V"/><path d="M135-143c-3-34-86-38-87 0 15 53 115 12 119 90S17 21 10-45l28-5c4 36 97 45 98 0-10-56-113-15-118-90-4-57 82-63 122-42 12 7 21 19 24 35" id="W"/><path d="M63-220v92h138v28H63V0H30v-248h175v28H63" id="X"/><path d="M114-163C36-179 61-72 57 0H25l-1-190h30c1 12-1 29 2 39 6-27 23-49 58-41v29" id="Y"/><path d="M59-47c-2 24 18 29 38 22v24C64 9 27 4 27-40v-127H5v-23h24l9-43h21v43h35v23H59v120" id="Z"/><path d="M185-189c-5-48-123-54-124 2 14 75 158 14 163 119 3 78-121 87-175 55-17-10-28-26-33-46l33-7c5 56 141 63 141-1 0-78-155-14-162-118-5-82 145-84 179-34 5 7 8 16 11 25" id="aa"/><path d="M141-36C126-15 110 5 73 4 37 3 15-17 15-53c-1-64 63-63 125-63 3-35-9-54-41-54-24 1-41 7-42 31l-33-3c5-37 33-52 76-52 45 0 72 20 72 64v82c-1 20 7 32 28 27v20c-31 9-61-2-59-35zM48-53c0 20 12 33 32 33 41-3 63-29 60-74-43 2-92-5-92 41" id="ab"/><path d="M103-251c84 0 111 97 45 133-19 10-37 24-39 52H78c0-63 77-55 77-114 0-30-21-42-52-43-32 0-53 17-56 46l-32-2c7-45 34-72 88-72zM77 0v-35h34V0H77" id="ac"/><g id="h"><use transform="matrix(0.05,0,0,0.05,0,0)" xlink:href="#V"/><use transform="matrix(0.05,0,0,0.05,3.95,0)" xlink:href="#W"/><use transform="matrix(0.05,0,0,0.05,12.949999999999998,0)" xlink:href="#X"/><use transform="matrix(0.05,0,0,0.05,23.9,0)" xlink:href="#V"/><use transform="matrix(0.05,0,0,0.05,27.849999999999994,0)" xlink:href="#Y"/><use transform="matrix(0.05,0,0,0.05,33.8,0)" xlink:href="#W"/><use transform="matrix(0.05,0,0,0.05,42.8,0)" xlink:href="#Z"/><use transform="matrix(0.05,0,0,0.05,47.8,0)" xlink:href="#aa"/><use transform="matrix(0.05,0,0,0.05,59.79999999999999,0)" xlink:href="#Z"/><use transform="matrix(0.05,0,0,0.05,64.8,0)" xlink:href="#ab"/><use transform="matrix(0.05,0,0,0.05,74.8,0)" xlink:href="#Y"/><use transform="matrix(0.05,0,0,0.05,80.75,0)" xlink:href="#Z"/><use transform="matrix(0.05,0,0,0.05,85.75,0)" xlink:href="#ac"/></g><path d="M84 4C-5 8 30-112 23-190h32v120c0 31 7 50 39 49 72-2 45-101 50-169h31l1 190h-30c-1-10 1-25-2-33-11 22-28 36-60 37" id="ad"/><path d="M100-194c63 0 86 42 84 106H49c0 40 14 67 53 68 26 1 43-12 49-29l28 8c-11 28-37 45-77 45C44 4 14-33 15-96c1-61 26-98 85-98zm52 81c6-60-76-77-97-28-3 7-6 17-6 28h103" id="ae"/><g id="i"><use transform="matrix(0.05,0,0,0.05,0,0)" xlink:href="#Z"/><use transform="matrix(0.05,0,0,0.05,5,0)" xlink:href="#Y"/><use transform="matrix(0.05,0,0,0.05,10.95,0)" xlink:href="#ad"/><use transform="matrix(0.05,0,0,0.05,20.95,0)" xlink:href="#ae"/></g><path fill="#333" d="M100-194c63 0 86 42 84 106H49c0 40 14 67 53 68 26 1 43-12 49-29l28 8c-11 28-37 45-77 45C44 4 14-33 15-96c1-61 26-98 85-98zm52 81c6-60-76-77-97-28-3 7-6 17-6 28h103" id="af"/><path fill="#333" d="M210-169c-67 3-38 105-44 169h-31v-121c0-29-5-50-35-48C34-165 62-65 56 0H25l-1-190h30c1 10-1 24 2 32 10-44 99-50 107 0 11-21 27-35 58-36 85-2 47 119 55 194h-31v-121c0-29-5-49-35-48" id="ag"/><path fill="#333" d="M115-194c55 1 70 41 70 98S169 2 115 4C84 4 66-9 55-30l1 105H24l-1-265h31l2 30c10-21 28-34 59-34zm-8 174c40 0 45-34 45-75s-6-73-45-74c-42 0-51 32-51 76 0 43 10 73 51 73" id="ah"/><path fill="#333" d="M59-47c-2 24 18 29 38 22v24C64 9 27 4 27-40v-127H5v-23h24l9-43h21v43h35v23H59v120" id="ai"/><path fill="#333" d="M179-190L93 31C79 59 56 82 12 73V49c39 6 53-20 64-50L1-190h34L92-34l54-156h33" id="aj"/><path fill="#333" d="M103-251c84 0 111 97 45 133-19 10-37 24-39 52H78c0-63 77-55 77-114 0-30-21-42-52-43-32 0-53 17-56 46l-32-2c7-45 34-72 88-72zM77 0v-35h34V0H77" id="ak"/><g id="j"><use transform="matrix(0.05,0,0,0.05,0,0)" xlink:href="#af"/><use transform="matrix(0.05,0,0,0.05,10,0)" xlink:href="#ag"/><use transform="matrix(0.05,0,0,0.05,24.950000000000003,0)" xlink:href="#ah"/><use transform="matrix(0.05,0,0,0.05,34.95,0)" xlink:href="#ai"/><use transform="matrix(0.05,0,0,0.05,39.95,0)" xlink:href="#aj"/><use transform="matrix(0.05,0,0,0.05,48.95,0)" xlink:href="#ak"/></g><path d="M194 0L95-120 63-95V0H30v-248h33v124l119-124h40L117-140 236 0h-42" id="al"/><path d="M179-190L93 31C79 59 56 82 12 73V49c39 6 53-20 64-50L1-190h34L92-34l54-156h33" id="am"/><g id="k"><use transform="matrix(0.05,0,0,0.05,0,0)" xlink:href="#al"/><use transform="matrix(0.05,0,0,0.05,12,0)" xlink:href="#ae"/><use transform="matrix(0.05,0,0,0.05,22,0)" xlink:href="#am"/></g><path d="M117-194c89-4 53 116 60 194h-32v-121c0-31-8-49-39-48C34-167 62-67 57 0H25l-1-190h30c1 10-1 24 2 32 11-22 29-35 61-36" id="an"/><path d="M177-190C167-65 218 103 67 71c-23-6-38-20-44-43l32-5c15 47 100 32 89-28v-30C133-14 115 1 83 1 29 1 15-40 15-95c0-56 16-97 71-98 29-1 48 16 59 35 1-10 0-23 2-32h30zM94-22c36 0 50-32 50-73 0-42-14-75-50-75-39 0-46 34-46 75s6 73 46 73" id="ao"/><path d="M115-194c53 0 69 39 70 98 0 66-23 100-70 100C84 3 66-7 56-30L54 0H23l1-261h32v101c10-23 28-34 59-34zm-8 174c40 0 45-34 45-75 0-40-5-75-45-74-42 0-51 32-51 76 0 43 10 73 51 73" id="ap"/><g id="l"><use transform="matrix(0.05,0,0,0.05,0,0)" xlink:href="#ae"/><use transform="matrix(0.05,0,0,0.05,10,0)" xlink:href="#V"/><use transform="matrix(0.05,0,0,0.05,13.949999999999998,0)" xlink:href="#an"/><use transform="matrix(0.05,0,0,0.05,23.95,0)" xlink:href="#ao"/><use transform="matrix(0.05,0,0,0.05,33.95,0)" xlink:href="#ae"/><use transform="matrix(0.05,0,0,0.05,43.95,0)" xlink:href="#ap"/><use transform="matrix(0.05,0,0,0.05,53.95,0)" xlink:href="#ae"/><use transform="matrix(0.05,0,0,0.05,63.95,0)" xlink:href="#an"/></g><path d="M9 0v-24l116-142H16v-24h144v24L44-24h123V0H9" id="aq"/><g id="m"><use transform="matrix(0.05,0,0,0.05,0,0)" xlink:href="#ab"/><use transform="matrix(0.05,0,0,0.05,10,0)" xlink:href="#an"/><use transform="matrix(0.05,0,0,0.05,20,0)" xlink:href="#aq"/><use transform="matrix(0.05,0,0,0.05,29,0)" xlink:href="#ae"/><use transform="matrix(0.05,0,0,0.05,39,0)" xlink:href="#V"/><use transform="matrix(0.05,0,0,0.05,42.95,0)" xlink:href="#ao"/><use transform="matrix(0.05,0,0,0.05,52.95,0)" xlink:href="#ae"/><use transform="matrix(0.05,0,0,0.05,62.95,0)" xlink:href="#an"/></g><path fill="#333" d="M135-143c-3-34-86-38-87 0 15 53 115 12 119 90S17 21 10-45l28-5c4 36 97 45 98 0-10-56-113-15-118-90-4-57 82-63 122-42 12 7 21 19 24 35" id="ar"/><path fill="#333" d="M185-189c-5-48-123-54-124 2 14 75 158 14 163 119 3 78-121 87-175 55-17-10-28-26-33-46l33-7c5 56 141 63 141-1 0-78-155-14-162-118-5-82 145-84 179-34 5 7 8 16 11 25" id="as"/><path fill="#333" d="M24-231v-30h32v30H24zM24 0v-190h32V0H24" id="at"/><path fill="#333" d="M100-194c62-1 85 37 85 99 1 63-27 99-86 99S16-35 15-95c0-66 28-99 85-99zM99-20c44 1 53-31 53-75 0-43-8-75-51-75s-53 32-53 75 10 74 51 75" id="au"/><path fill="#333" d="M117-194c89-4 53 116 60 194h-32v-121c0-31-8-49-39-48C34-167 62-67 57 0H25l-1-190h30c1 10-1 24 2 32 11-22 29-35 61-36" id="av"/><path fill="#333" d="M194 0L95-120 63-95V0H30v-248h33v124l119-124h40L117-140 236 0h-42" id="aw"/><g id="n"><use transform="matrix(0.05,0,0,0.05,0,0)" xlink:href="#ar"/><use transform="matrix(0.05,0,0,0.05,9,0)" xlink:href="#af"/><use transform="matrix(0.05,0,0,0.05,19,0)" xlink:href="#ai"/><use transform="matrix(0.05,0,0,0.05,24,0)" xlink:href="#as"/><use transform="matrix(0.05,0,0,0.05,36,0)" xlink:href="#af"/><use transform="matrix(0.05,0,0,0.05,46,0)" xlink:href="#ar"/><use transform="matrix(0.05,0,0,0.05,55,0)" xlink:href="#ar"/><use transform="matrix(0.05,0,0,0.05,64,0)" xlink:href="#at"/><use transform="matrix(0.05,0,0,0.05,67.95,0)" xlink:href="#au"/><use transform="matrix(0.05,0,0,0.05,77.95,0)" xlink:href="#av"/><use transform="matrix(0.05,0,0,0.05,87.95,0)" xlink:href="#aw"/><use transform="matrix(0.05,0,0,0.05,99.95,0)" xlink:href="#af"/><use transform="matrix(0.05,0,0,0.05,109.95,0)" xlink:href="#aj"/></g><path d="M232-93c-1 65-40 97-104 97C67 4 28-28 28-90v-158h33c8 89-33 224 67 224 102 0 64-133 71-224h33v155" id="ax"/><g id="o"><use transform="matrix(0.05,0,0,0.05,0,0)" xlink:href="#ax"/><use transform="matrix(0.05,0,0,0.05,12.950000000000001,0)" xlink:href="#W"/><use transform="matrix(0.05,0,0,0.05,21.950000000000003,0)" xlink:href="#ae"/><use transform="matrix(0.05,0,0,0.05,31.950000000000003,0)" xlink:href="#Y"/></g><path d="M118-107v75H92v-75H18v-26h74v-75h26v75h74v26h-74" id="ay"/><use transform="matrix(0.05,0,0,0.05,0,0)" xlink:href="#ay" id="p"/><path d="M30-248c87 1 191-15 191 75 0 78-77 80-158 76V0H30v-248zm33 125c57 0 124 11 124-50 0-59-68-47-124-48v98" id="az"/><path d="M266 0h-40l-56-210L115 0H75L2-248h35L96-30l15-64 43-154h32l59 218 59-218h35" id="aA"/><g id="q"><use transform="matrix(0.05,0,0,0.05,0,0)" xlink:href="#az"/><use transform="matrix(0.05,0,0,0.05,12,0)" xlink:href="#aA"/></g><g id="r"><use transform="matrix(0.05,0,0,0.05,0,0)" xlink:href="#Y"/><use transform="matrix(0.05,0,0,0.05,5.95,0)" xlink:href="#ae"/><use transform="matrix(0.05,0,0,0.05,15.949999999999998,0)" xlink:href="#ao"/><use transform="matrix(0.05,0,0,0.05,25.950000000000003,0)" xlink:href="#V"/><use transform="matrix(0.05,0,0,0.05,29.899999999999995,0)" xlink:href="#W"/><use transform="matrix(0.05,0,0,0.05,38.9,0)" xlink:href="#Z"/><use transform="matrix(0.05,0,0,0.05,43.9,0)" xlink:href="#ae"/><use transform="matrix(0.05,0,0,0.05,53.900000000000006,0)" xlink:href="#Y"/></g><path d="M137-103V0h-34v-103L8-248h37l75 118 75-118h37" id="aB"/><g id="s"><use transform="matrix(0.05,0,0,0.05,0,0)" xlink:href="#aB"/><use transform="matrix(0.05,0,0,0.05,10.35,0)" xlink:href="#ae"/><use transform="matrix(0.05,0,0,0.05,20.35,0)" xlink:href="#W"/></g><path d="M212-179c-10-28-35-45-73-45-59 0-87 40-87 99 0 60 29 101 89 101 43 0 62-24 78-52l27 14C228-24 195 4 139 4 59 4 22-46 18-125c-6-104 99-153 187-111 19 9 31 26 39 46" id="aC"/><path d="M85-194c31 0 48 13 60 33l-1-100h32l1 261h-30c-2-10 0-23-3-31C134-8 116 4 85 4 32 4 16-35 15-94c0-66 23-100 70-100zm9 24c-40 0-46 34-46 75 0 40 6 74 45 74 42 0 51-32 51-76 0-42-9-74-50-73" id="aD"/><path d="M24 0v-261h32V0H24" id="aE"/><g id="t"><use transform="matrix(0.05,0,0,0.05,0,0)" xlink:href="#W"/><use transform="matrix(0.05,0,0,0.05,9,0)" xlink:href="#ae"/><use transform="matrix(0.05,0,0,0.05,19,0)" xlink:href="#Z"/><use transform="matrix(0.05,0,0,0.05,24,0)" xlink:href="#aC"/><use transform="matrix(0.05,0,0,0.05,36.95,0)" xlink:href="#Y"/><use transform="matrix(0.05,0,0,0.05,42.900000000000006,0)" xlink:href="#ae"/><use transform="matrix(0.05,0,0,0.05,52.900000000000006,0)" xlink:href="#aD"/><use transform="matrix(0.05,0,0,0.05,62.900000000000006,0)" xlink:href="#ae"/><use transform="matrix(0.05,0,0,0.05,72.9,0)" xlink:href="#an"/><use transform="matrix(0.05,0,0,0.05,82.9,0)" xlink:href="#Z"/><use transform="matrix(0.05,0,0,0.05,87.9,0)" xlink:href="#V"/><use transform="matrix(0.05,0,0,0.05,91.85000000000001,0)" xlink:href="#ab"/><use transform="matrix(0.05,0,0,0.05,101.85000000000001,0)" xlink:href="#aE"/><use transform="matrix(0.05,0,0,0.05,105.80000000000001,0)" xlink:href="#W"/></g><path d="M240 0l2-218c-23 76-54 145-80 218h-23L58-218 59 0H30v-248h44l77 211c21-75 51-140 76-211h43V0h-30" id="aF"/><g id="u"><use transform="matrix(0.05,0,0,0.05,0,0)" xlink:href="#aF"/><use transform="matrix(0.05,0,0,0.05,14.950000000000001,0)" xlink:href="#ae"/><use transform="matrix(0.05,0,0,0.05,24.950000000000003,0)" xlink:href="#W"/><use transform="matrix(0.05,0,0,0.05,33.95,0)" xlink:href="#W"/><use transform="matrix(0.05,0,0,0.05,42.95,0)" xlink:href="#ab"/><use transform="matrix(0.05,0,0,0.05,52.95,0)" xlink:href="#ao"/><use transform="matrix(0.05,0,0,0.05,62.95,0)" xlink:href="#ae"/></g><path d="M30 0v-248h33v221h125V0H30" id="aG"/><path d="M100-194c62-1 85 37 85 99 1 63-27 99-86 99S16-35 15-95c0-66 28-99 85-99zM99-20c44 1 53-31 53-75 0-43-8-75-51-75s-53 32-53 75 10 74 51 75" id="aH"/><g id="v"><use transform="matrix(0.05,0,0,0.05,0,0)" xlink:href="#aG"/><use transform="matrix(0.05,0,0,0.05,10,0)" xlink:href="#aH"/><use transform="matrix(0.05,0,0,0.05,20,0)" xlink:href="#ao"/><use transform="matrix(0.05,0,0,0.05,30,0)" xlink:href="#V"/><use transform="matrix(0.05,0,0,0.05,33.95,0)" xlink:href="#an"/></g></defs></g></svg>